<svg width="40" height="24" viewBox="0 0 40 24" fill="none" xmlns="http://www.w3.org/2000/svg">
<path d="M28 10.5C28.8284 10.5 29.5 11.1716 29.5 12C29.5 12.8284 28.8284 13.5 28 13.5C27.1716 13.5 26.5 12.8284 26.5 12C26.5 11.1716 27.1716 10.5 28 10.5ZM20 10.5C20.8284 10.5 21.5 11.1716 21.5 12C21.5 12.8284 20.8284 13.5 20 13.5C19.1716 13.5 18.5 12.8284 18.5 12C18.5 11.1716 19.1716 10.5 20 10.5ZM12 10.5C12.8284 10.5 13.5 11.1716 13.5 12C13.5 12.8284 12.8284 13.5 12 13.5C11.1716 13.5 10.5 12.8284 10.5 12C10.5 11.1716 11.1716 10.5 12 10.5Z" fill="#7C7F86" stroke="#7C7F86"/>
</svg>
