<svg width="18" height="18" viewBox="0 0 18 18" fill="none" xmlns="http://www.w3.org/2000/svg">
<g clip-path="url(#clip0_1684_4228)">
<path d="M9 15H3.75C3.35218 15 2.97064 14.842 2.68934 14.5607C2.40804 14.2794 2.25 13.8978 2.25 13.5V6.75C2.25 6.35218 2.40804 5.97064 2.68934 5.68934C2.97064 5.40804 3.35218 5.25 3.75 5.25H4.5C4.89782 5.25 5.27936 5.09196 5.56066 4.81066C5.84196 4.52936 6 4.14782 6 3.75C6 3.55109 6.07902 3.36032 6.21967 3.21967C6.36032 3.07902 6.55109 3 6.75 3H11.25C11.4489 3 11.6397 3.07902 11.7803 3.21967C11.921 3.36032 12 3.55109 12 3.75C12 4.14782 12.158 4.52936 12.4393 4.81066C12.7206 5.09196 13.1022 5.25 13.5 5.25H14.25C14.6478 5.25 15.0294 5.40804 15.3107 5.68934C15.592 5.97064 15.75 6.35218 15.75 6.75V9.375M12 14.25H16.5M14.25 12V16.5M6.75 9.75C6.75 10.3467 6.98705 10.919 7.40901 11.341C7.83097 11.7629 8.40326 12 9 12C9.59674 12 10.169 11.7629 10.591 11.341C11.0129 10.919 11.25 10.3467 11.25 9.75C11.25 9.15326 11.0129 8.58097 10.591 8.15901C10.169 7.73705 9.59674 7.5 9 7.5C8.40326 7.5 7.83097 7.73705 7.40901 8.15901C6.98705 8.58097 6.75 9.15326 6.75 9.75Z" stroke="#7C7F86" stroke-width="1.5" stroke-linecap="round" stroke-linejoin="round"/>
</g>
<defs>
<clipPath id="clip0_1684_4228">
<rect width="18" height="18" fill="white" transform="translate(18 18) rotate(-180)"/>
</clipPath>
</defs>
</svg>
