<svg width="1283" height="721" viewBox="0 0 1283 721" fill="none" xmlns="http://www.w3.org/2000/svg">
<rect width="1280" height="645" fill="#279EF9"/>
<path d="M179.219 113.703V144.875H173.266V130.953H165.625V126.031H173.266V113.703H179.219ZM143.828 135.875C152.664 133.109 158.383 128 159.484 121.719H146.031V116.844H166C166 128.281 158.734 136.742 146.266 140.609L143.828 135.875ZM151.094 155.562V141.734H157.188V150.781H180.297V155.562H151.094ZM218.594 113.656V123.688H224.359V128.562H218.594V138.406H212.594V113.656H218.594ZM184.469 134.516C193.867 132.031 199.234 127.156 200.172 121.25H186.484V116.469H206.688C206.711 127.836 199.562 135.805 186.859 139.344L184.469 134.516ZM190.234 147.641C190.188 142.297 196 138.922 204.672 138.922C213.367 138.922 219.039 142.297 219.062 147.641C219.039 153.031 213.367 156.359 204.672 156.359C196 156.359 190.188 153.031 190.234 147.641ZM196.141 147.641C196.117 150.219 199.305 151.695 204.672 151.672C209.969 151.695 213.156 150.219 213.156 147.641C213.156 145.016 209.969 143.562 204.672 143.562C199.305 143.562 196.117 145.016 196.141 147.641ZM260.078 113.703V126.781H265.844V131.656H260.078V145.531H254.078V113.703H260.078ZM226.234 122.891V118.156H235.938V113.609H241.891V118.156H251.547V122.891H226.234ZM228.297 132.641C228.297 127.695 232.68 124.391 238.891 124.391C245.078 124.391 249.391 127.695 249.391 132.641C249.391 137.562 245.078 140.797 238.891 140.797C232.68 140.797 228.297 137.562 228.297 132.641ZM232.422 155.562V143.094H238.375V150.781H261.625V155.562H232.422ZM234.156 132.641C234.133 134.984 236.031 136.25 238.891 136.25C241.773 136.25 243.719 134.984 243.719 132.641C243.719 130.273 241.773 128.961 238.891 128.938C236.031 128.961 234.133 130.273 234.156 132.641ZM317.688 134.797V139.625H278.781V134.797H295.188V131.188H283.75V114.688H289.656V118.578H306.766V114.688H312.719V131.188H301.188V134.797H317.688ZM283.094 147.266V142.531H312.953V156.312H307V147.266H283.094ZM289.656 126.5H306.766V122.984H289.656V126.5ZM359.641 119.281V124.109H354.109V128.469H359.641V133.438H354.109V138.828H348.109V113.656H354.109V119.281H359.641ZM320.547 126.359C320.523 120.336 325.586 115.977 332.266 116C338.875 115.977 343.891 120.336 343.891 126.359C343.891 132.523 338.875 136.836 332.266 136.812C325.586 136.836 320.523 132.523 320.547 126.359ZM325.375 145.344V140.516H354.109V156.312H348.109V145.344H325.375ZM326.453 126.359C326.406 129.805 328.914 131.773 332.266 131.75C335.547 131.773 338.055 129.805 338.078 126.359C338.055 123.031 335.547 121.086 332.266 121.109C328.914 121.086 326.406 123.031 326.453 126.359ZM182.266 199.516V204.391H165.578V218.359H159.672V204.391H143.219V199.516H182.266ZM147.156 186.766C147.133 180.836 153.461 177.086 162.625 177.062C171.789 177.086 178.188 180.836 178.188 186.766C178.188 192.555 171.789 196.281 162.625 196.281C153.461 196.281 147.133 192.555 147.156 186.766ZM153.297 186.766C153.273 189.812 156.906 191.523 162.625 191.547C168.391 191.523 172 189.812 172 186.766C172 183.602 168.391 181.867 162.625 181.844C156.906 181.867 153.273 183.602 153.297 186.766ZM220.516 175.656V218.406H214.562V175.656H220.516ZM187 184.047V179.219H207.297V195.672H193.234V203.5C199.75 203.453 205.258 203.125 211.516 202.094L212.031 206.922C205.023 208.164 198.672 208.422 190.891 208.422H187.047V190.938H201.203V184.047H187ZM238.938 178.188C245.523 178.211 250.609 182.523 250.656 188.641C250.609 193.797 247.023 197.664 241.984 198.766V204.602C245.336 204.438 248.711 204.156 251.875 203.734L252.297 208.141C243.367 209.852 233.758 209.828 226.516 209.734L225.719 204.906C228.812 204.906 232.328 204.906 236.031 204.812V198.812C230.828 197.758 227.219 193.867 227.219 188.641C227.219 182.523 232.211 178.211 238.938 178.188ZM233.078 188.641C233.055 191.992 235.562 194.031 238.938 194.031C242.242 194.031 244.75 191.992 244.75 188.641C244.75 185.242 242.242 183.273 238.938 183.25C235.562 183.273 233.055 185.242 233.078 188.641ZM254.125 218.312V175.656H260.125V192.391H265.938V197.406H260.125V218.312H254.125ZM312.625 175.656V186.156H318.391V191.172H312.625V201.391H306.625V175.656H312.625ZM278.781 184.234V179.5H288.484V175.422H294.438V179.5H304.094V184.234H278.781ZM280.844 193.188C280.844 188.688 285.156 185.547 291.438 185.547C297.648 185.547 301.938 188.688 301.938 193.188C301.938 197.805 297.648 200.898 291.438 200.922C285.156 200.898 280.844 197.805 280.844 193.188ZM284.734 217.844V203.266H312.625V217.844H284.734ZM286.703 193.188C286.68 195.367 288.578 196.492 291.438 196.516C294.32 196.492 296.266 195.367 296.266 193.188C296.266 191.148 294.32 190.023 291.438 190.047C288.578 190.023 286.68 191.148 286.703 193.188ZM290.641 213.062H306.719V207.953H290.641V213.062ZM330.766 180.531C330.719 191.195 329.688 200.734 324.25 209.172L319.609 206.734C323.992 200.102 325.305 193.609 325.586 185.359H321.016V180.531H330.766ZM329.266 208.797C334.047 201.531 335.008 194.008 335.219 185.359H331.984V180.531H340.328C340.328 184.281 340.234 188.008 339.906 191.641H343.562V176.594H349.188V216.438H343.562V196.469H339.297C338.406 201.695 336.789 206.711 333.812 211.328L329.266 208.797ZM351.859 218.312V175.656H357.578V218.312H351.859ZM382.328 182.172V186.906H361.703V182.172H369.109V176.828H375.016V182.172H382.328ZM362.688 198.953C362.688 193.023 366.672 188.852 372.109 188.828C377.57 188.852 381.461 193.023 381.484 198.953C381.461 204.906 377.57 209.125 372.109 209.125C366.672 209.125 362.688 204.906 362.688 198.953ZM367.938 198.953C367.938 202.211 369.625 204.062 372.109 204.062C374.5 204.062 376.211 202.211 376.234 198.953C376.211 195.742 374.5 193.797 372.109 193.797C369.625 193.797 367.938 195.742 367.938 198.953ZM383.922 216.484V176.5H389.5V193H392.969V175.656H398.641V218.312H392.969V197.781H389.5V216.484H383.922ZM442.281 208.422V213.344H403.234V208.422H411.953V197.969C408.648 195.977 406.656 192.953 406.656 189.203C406.656 182.289 413.406 177.742 422.688 177.719C431.922 177.742 438.742 182.289 438.766 189.203C438.742 192.883 436.82 195.859 433.609 197.852V208.422H442.281ZM412.562 189.203C412.562 193.375 416.57 195.953 422.688 195.953C428.711 195.953 432.836 193.375 432.859 189.203C432.836 184.914 428.711 182.43 422.688 182.453C416.57 182.43 412.562 184.914 412.562 189.203ZM417.859 208.422H427.562V200.125C426.039 200.43 424.398 200.594 422.688 200.594C420.977 200.594 419.359 200.43 417.859 200.148V208.422Z" fill="#F5F6F7"/>
<path d="M1206.68 161.866C1206.68 161.867 1206.67 161.872 1206.65 161.882C1206.67 161.871 1206.67 161.866 1206.68 161.866ZM1205.58 160.426C1205.94 161.195 1206.1 161.732 1206.18 162.082C1205.84 162.19 1205.29 162.315 1204.45 162.393C1202.02 162.617 1198.39 162.295 1193.66 161.172C1184.26 158.945 1171.96 153.927 1159.13 146.518C1146.3 139.109 1135.8 130.963 1129.17 123.943C1125.83 120.401 1123.74 117.421 1122.72 115.206C1122.37 114.437 1122.2 113.9 1122.12 113.55C1122.46 113.442 1123.01 113.318 1123.85 113.24C1126.28 113.015 1129.91 113.338 1134.65 114.461C1144.04 116.687 1156.34 121.706 1169.18 129.114C1182.01 136.523 1192.51 144.669 1199.13 151.69C1202.47 155.232 1204.56 158.211 1205.58 160.426ZM1122.06 113.015C1122.06 113.015 1122.06 113.024 1122.06 113.041C1122.06 113.023 1122.06 113.015 1122.06 113.015ZM1121.63 113.766C1121.63 113.766 1121.63 113.76 1121.65 113.75C1121.64 113.761 1121.63 113.766 1121.63 113.766ZM1206.24 162.591C1206.24 162.609 1206.24 162.618 1206.24 162.618C1206.24 162.617 1206.24 162.608 1206.24 162.591Z" stroke="#2390E3" stroke-width="13"/>
<rect x="1165.33" y="73.3525" width="61.6793" height="112.828" rx="30.8396" transform="rotate(30 1165.33 73.3525)" fill="#52B1FA"/>
<path d="M1208.42 162.11C1201.65 167.752 1183.57 161.383 1158.77 147.067C1133.98 132.751 1120.79 123.373 1120.79 112.466" stroke="#2390E3" stroke-width="13" stroke-linecap="round"/>
<circle cx="1177" cy="269.002" r="6.40163" transform="rotate(-173.897 1177 269.002)" fill="url(#paint0_radial_2165_35621)"/>
<rect x="1176.97" y="275.437" width="1.30645" height="12.8033" transform="rotate(-173.897 1176.97 275.437)" fill="#EC8D64"/>
<path d="M794.1 221.671C795.173 221.724 796.246 221.565 797.257 221.203C798.269 220.841 799.199 220.284 799.995 219.562C800.79 218.841 801.436 217.97 801.896 216.999C802.355 216.028 802.618 214.976 802.671 213.903C802.724 212.83 802.565 211.757 802.203 210.746C801.841 209.735 801.283 208.805 800.562 208.009C799.841 207.213 798.97 206.567 797.998 206.108C797.027 205.648 795.975 205.385 794.903 205.332L794.501 213.502L794.1 221.671Z" fill="url(#paint1_radial_2165_35621)"/>
<path d="M421.355 424.787C420.596 424.028 419.694 423.425 418.702 423.014C417.709 422.603 416.646 422.391 415.571 422.391C414.497 422.391 413.434 422.603 412.441 423.014C411.449 423.425 410.547 424.028 409.788 424.787C409.028 425.547 408.426 426.448 408.015 427.441C407.604 428.433 407.392 429.497 407.392 430.571C407.392 431.645 407.604 432.709 408.015 433.701C408.426 434.693 409.028 435.595 409.788 436.355L415.571 430.571L421.355 424.787Z" fill="url(#paint2_radial_2165_35621)"/>
<rect x="940.531" y="111.374" width="6.28571" height="11" rx="3.14286" transform="rotate(15 940.531 111.374)" fill="#FFE03D"/>
<rect x="939.312" y="115.928" width="6.28571" height="1.04762" transform="rotate(15 939.312 115.928)" fill="#FF9F5A"/>
<rect x="273" y="369.143" width="6.28571" height="11" rx="3.14286" transform="rotate(-30 273 369.143)" fill="#FFE03D"/>
<rect x="275.357" y="373.226" width="6.28571" height="1.04762" transform="rotate(-30 275.357 373.226)" fill="#FF9F5A"/>
<path d="M0 500.919L314.5 485.262L639.5 479L969 485.262L1283 500.919V721H0V500.919Z" fill="url(#paint3_linear_2165_35621)"/>
<circle cx="570.002" cy="81.002" r="6.40163" transform="rotate(51.1034 570.002 81.002)" fill="url(#paint4_radial_2165_35621)"/>
<rect x="574.575" y="76.4742" width="1.30645" height="12.8033" transform="rotate(51.1034 574.575 76.4742)" fill="#EC8D64"/>
<rect x="612" y="195.143" width="6.28571" height="11" rx="3.14286" transform="rotate(-30 612 195.143)" fill="#FFE03D"/>
<rect x="614.357" y="199.226" width="6.28571" height="1.04762" transform="rotate(-30 614.357 199.226)" fill="#FF9F5A"/>
<ellipse cx="793" cy="501.5" rx="77" ry="16.5" fill="#EAEAEA"/>
<ellipse cx="63.7527" cy="11.7097" rx="63.7527" ry="11.7097" transform="matrix(-1 0 0 1 668.55 487.713)" fill="#EAEAEA"/>
<ellipse cx="955.822" cy="499.29" rx="48.1398" ry="11.7097" fill="#EAEAEA"/>
<ellipse cx="1122.95" cy="510.789" rx="71.9928" ry="11.7097" fill="#EAEAEA"/>
<rect x="-0.612372" y="0.353553" width="85.7383" height="163.803" rx="42.8692" transform="matrix(-0.965926 -0.258819 -0.258819 0.965926 676.011 293.171)" fill="url(#paint5_linear_2165_35621)" fill-opacity="0.6" stroke="#FFF284"/>
<path d="M629.295 317.192C634.57 323.923 650.81 325.171 658.477 326.037L653.821 328.868C646.966 333.036 638.814 334.529 630.926 333.063C624.139 331.802 618.02 328.322 612.997 323.587C607.021 317.952 600.952 313.342 596.824 313.393C592.758 313.442 616.862 301.328 629.295 317.192Z" fill="url(#paint6_linear_2165_35621)"/>
<path d="M601.922 312.568C609.043 314.477 610.812 325.694 629.292 330.646C642.256 334.119 655.437 327.326 658.478 326.036L636.555 407.379C631.832 424.905 613.807 435.294 596.274 430.596C578.723 425.894 568.308 407.854 573.011 390.303L592.248 318.51C592.386 317.992 592.581 317.491 592.837 317.02C594.551 313.871 596.546 311.128 601.922 312.568Z" fill="#FFFAEE"/>
<path d="M628.561 343.848C628.993 342.235 630.637 336.537 627.35 335.656C624.062 334.775 622.303 340.657 621.805 342.252" stroke="#40444C" stroke-width="2" stroke-linecap="round"/>
<path d="M617.668 340.929C618.101 339.316 619.745 333.618 616.457 332.737C613.17 331.856 611.41 337.738 610.913 339.333" stroke="#40444C" stroke-width="2" stroke-linecap="round"/>
<path d="M632.637 348.746C629.893 350.983 622.038 355.602 613.601 352.563C606.169 349.885 605.769 344.977 605.483 342.842" stroke="#18181B" stroke-width="2" stroke-linecap="round"/>
<path d="M645.268 298.252C650.34 301.47 657.699 311.646 657.31 320.336" stroke="white" stroke-width="5.69806" stroke-linecap="round"/>
<circle cx="3.089" cy="3.089" r="3.089" transform="matrix(-0.965926 -0.258819 -0.258819 0.965926 641.813 291.04)" fill="white"/>
<path d="M618.24 440.708L652.787 496.845L666.755 485.258" stroke="#FFE24B" stroke-width="8" stroke-linecap="round" stroke-linejoin="round"/>
<path d="M583.979 435.414L573.57 498.299H556.223" stroke="#FFE24B" stroke-width="8" stroke-linecap="round" stroke-linejoin="round"/>
<path d="M654.671 381.636C663.835 391.301 687.767 411.598 710.183 415.464" stroke="#FFE24B" stroke-width="8" stroke-linecap="round" stroke-linejoin="round"/>
<path d="M570.535 363.3C556.052 365.385 522.938 365.551 506.349 349.543" stroke="#FFE24B" stroke-width="8" stroke-linecap="round" stroke-linejoin="round"/>
<rect width="32.0932" height="28.6237" rx="1" transform="matrix(-1 0 0 1 523.695 321.787)" fill="#00D37B"/>
<rect width="37.2975" height="8.67383" rx="1" transform="matrix(-1 0 0 1 526.298 318.317)" fill="#2AE799"/>
<path d="M513.286 313.296C511.551 312.255 508.949 315.899 508.082 318.067C509.094 318.067 511.465 317.894 512.852 317.2C514.587 316.332 515.454 314.597 513.286 313.296Z" stroke="#F66555" stroke-width="2" stroke-linecap="round" stroke-linejoin="round"/>
<path d="M502.445 313.296C504.179 312.255 506.781 315.899 507.649 318.067C506.637 318.067 504.266 317.894 502.878 317.2C501.143 316.332 500.276 314.597 502.445 313.296Z" stroke="#F66555" stroke-width="2" stroke-linecap="round" stroke-linejoin="round"/>
<path d="M508.082 318.067C509.383 319.657 512.766 322.577 515.889 321.536" stroke="#F66555" stroke-width="2" stroke-linecap="round"/>
<path d="M507.648 318.067C506.347 319.657 502.964 322.577 499.842 321.536" stroke="#F66555" stroke-width="2" stroke-linecap="round"/>
<path d="M507.648 318.317V349.543" stroke="#F66555" stroke-width="2" stroke-linecap="round"/>
<path d="M571.829 353.061C571.898 352.8 572.15 352.503 572.77 352.231C573.381 351.962 574.263 351.758 575.411 351.633C577.701 351.384 580.929 351.462 584.875 351.854C592.759 352.638 603.415 354.669 614.971 357.765C626.526 360.861 636.77 364.431 643.99 367.694C647.603 369.327 650.437 370.874 652.296 372.235C653.228 372.917 653.89 373.535 654.284 374.073C654.685 374.619 654.755 375.001 654.685 375.262C654.615 375.523 654.363 375.82 653.743 376.092C653.132 376.361 652.251 376.565 651.102 376.69C648.812 376.939 645.584 376.862 641.638 376.47C633.755 375.686 623.098 373.655 611.543 370.558C599.987 367.462 589.743 363.893 582.523 360.63C578.91 358.997 576.076 357.45 574.217 356.089C573.285 355.406 572.624 354.789 572.229 354.251C571.828 353.705 571.759 353.322 571.829 353.061Z" stroke="url(#paint7_linear_2165_35621)"/>
<path d="M986.616 364.846C992.688 378.146 1004.57 408.649 1003.53 424.262" stroke="#FFA88C" stroke-width="8" stroke-linecap="round" stroke-linejoin="round"/>
<rect x="898.577" y="278.171" width="78.0645" height="164.803" rx="39.0323" transform="rotate(-6.74691 898.577 278.171)" fill="url(#paint8_linear_2165_35621)"/>
<rect x="898.577" y="278.171" width="78.0645" height="164.803" rx="39.0323" transform="rotate(-6.74691 898.577 278.171)" fill="url(#paint9_linear_2165_35621)" fill-opacity="0.2"/>
<path d="M903.163 316.933C900.63 295.526 915.931 276.118 937.339 273.586V273.586C958.747 271.053 978.154 286.354 980.687 307.762L985.986 352.554L977.502 358.361L976.882 358.685C971.553 361.471 965.935 363.664 960.128 365.225L959.206 365.473C952.138 367.372 944.833 368.237 937.517 368.039V368.039C930.88 367.859 924.296 366.807 917.934 364.909L917.56 364.797L908.462 361.725L903.163 316.933Z" fill="url(#paint10_linear_2165_35621)"/>
<path d="M903.163 316.933C900.63 295.526 915.931 276.118 937.339 273.586V273.586C958.747 271.053 978.154 286.354 980.687 307.762L985.986 352.554L977.502 358.361L976.882 358.685C971.553 361.471 965.935 363.664 960.128 365.225L959.206 365.473C952.138 367.372 944.833 368.237 937.517 368.039V368.039C930.88 367.859 924.296 366.807 917.934 364.909L917.56 364.797L908.462 361.725L903.163 316.933Z" fill="url(#paint11_linear_2165_35621)" fill-opacity="0.4"/>
<path d="M931.104 337.067L936.308 336.656" stroke="#18181B" stroke-width="2" stroke-linecap="round" stroke-linejoin="round"/>
<path d="M952.788 332.73L957.992 332.319" stroke="#18181B" stroke-width="2" stroke-linecap="round" stroke-linejoin="round"/>
<path d="M938.101 343.607C940.279 344.884 945.913 346.977 951.022 345.136" stroke="#18181B" stroke-width="2" stroke-linecap="round"/>
<path d="M952.483 342.542C951.391 343.763 950.711 345.481 951.425 347.034" stroke="#18181B" stroke-width="2" stroke-linecap="round"/>
<path d="M912.455 374.821L886 378.291L914.19 399.541L905.516 405.613" stroke="#FFA88C" stroke-width="8" stroke-linecap="round" stroke-linejoin="round"/>
<path d="M929.369 282.878C923.637 284.675 913.895 292.599 912.021 301.093" stroke="white" stroke-width="5.69806" stroke-linecap="round"/>
<path d="M969.851 423.965C977.423 419.517 985.899 407.855 984.992 393.035" stroke="#FFF1D0" stroke-width="5.69806" stroke-linecap="round"/>
<circle cx="937.662" cy="279.896" r="3.089" fill="white"/>
<path d="M944.548 432.068V495.387L935.007 499.291" stroke="#FFA88C" stroke-width="8" stroke-linecap="round" stroke-linejoin="round"/>
<path d="M966.667 431.201L980.833 462.539C980.927 462.747 980.947 462.981 980.89 463.202L972.739 494.52L984.448 491.918" stroke="#FFA88C" stroke-width="8" stroke-linecap="round" stroke-linejoin="round"/>
<path opacity="0.5" d="M924.817 346.943L914.391 346.943C914.595 345.716 914.368 342.4 911.017 341.73C907.95 341.116 906.826 344.081 906.724 346.023C905.906 344.387 902.562 343.088 900.284 345.716C897.094 349.396 899.977 352.361 901.817 353.383C900.08 354.508 898.751 357.676 901.511 359.823C905.165 362.665 907.644 359.21 908.257 357.37C908.973 358.29 910.956 359.823 913.164 358.597C915.372 357.37 915.515 353.792 915.311 352.157L924.817 346.943Z" fill="#F5F6F7" stroke="white" stroke-linecap="round" stroke-linejoin="round"/>
<circle cx="955.824" cy="336.222" r="2.16846" fill="#18181B"/>
<circle cx="934.139" cy="338.824" r="2.16846" fill="#18181B"/>
<rect x="1064.84" y="323" width="75.4624" height="137.914" rx="37.7312" fill="url(#paint12_linear_2165_35621)"/>
<rect x="1071.88" y="329.174" width="61.3799" height="125.566" rx="30.69" stroke="url(#paint13_linear_2165_35621)" stroke-width="5"/>
<path d="M1074.38 393.258L1131.63 393.258" stroke="#FEC1BB" stroke-width="6" stroke-linecap="round"/>
<path d="M1100.83 365.935C1100.83 367.67 1101.35 370.272 1103.44 370.272C1105.52 370.272 1106.04 367.67 1106.04 365.935" stroke="#18181B" stroke-width="2" stroke-linecap="round"/>
<path d="M1065.27 402.799L1041.42 415.81L1034.48 385.451" stroke="#FFADA5" stroke-width="6" stroke-linecap="round" stroke-linejoin="round"/>
<path d="M1093.46 460.914L1079.15 508.62H1067.44" stroke="#FFADA5" stroke-width="6" stroke-linecap="round" stroke-linejoin="round"/>
<path d="M1113.85 460.914L1128.16 508.62H1139.87" stroke="#FFADA5" stroke-width="6" stroke-linecap="round" stroke-linejoin="round"/>
<path d="M1040.55 378.946C1041.85 379.38 1044.45 381.201 1044.45 385.018" stroke="white" stroke-opacity="0.5" stroke-width="2" stroke-linecap="round" stroke-linejoin="round"/>
<path d="M1026.02 389.788C1025.44 391.148 1024.84 394.26 1027.06 395.833" stroke="white" stroke-opacity="0.5" stroke-width="2" stroke-linecap="round" stroke-linejoin="round"/>
<path d="M1044.89 375.91C1046.19 376.344 1048.79 378.165 1048.79 381.982" stroke="white" stroke-opacity="0.5" stroke-width="2" stroke-linecap="round" stroke-linejoin="round"/>
<path d="M1020.5 390.656C1019.92 392.015 1019.32 395.127 1021.54 396.7" stroke="white" stroke-opacity="0.5" stroke-width="2" stroke-linecap="round" stroke-linejoin="round"/>
<ellipse cx="1097.66" cy="358.563" rx="3.33075" ry="3.46953" fill="#18181B"/>
<path d="M1098.76 356.879C1098.85 356.598 1099.25 356.598 1099.34 356.879L1099.48 357.348C1099.52 357.473 1099.64 357.559 1099.77 357.559H1100.27C1100.55 357.559 1100.68 357.924 1100.45 358.098L1100.02 358.419C1099.92 358.496 1099.88 358.627 1099.92 358.748L1100.08 359.252C1100.16 359.53 1099.84 359.756 1099.61 359.58L1099.23 359.294C1099.12 359.213 1098.97 359.213 1098.87 359.294L1098.49 359.58C1098.26 359.756 1097.94 359.53 1098.02 359.252L1098.18 358.748C1098.22 358.627 1098.17 358.496 1098.07 358.419L1097.65 358.098C1097.42 357.924 1097.54 357.559 1097.83 357.559H1098.33C1098.46 357.559 1098.58 357.473 1098.62 357.348L1098.76 356.879Z" fill="white"/>
<ellipse cx="1096.27" cy="359.43" rx="0.832688" ry="0.867384" fill="white"/>
<path d="M1111.68 356.828L1107.34 358.996L1111.68 361.165" stroke="#18181B" stroke-width="2" stroke-linecap="round" stroke-linejoin="round"/>
<circle cx="1160.25" cy="438.362" r="38.1649" fill="url(#paint14_linear_2165_35621)"/>
<path d="M1129.02 438.362L1191.48 438.362" stroke="#B6F2D9" stroke-width="6" stroke-linecap="round"/>
<path d="M1151.58 474.792V501.066C1151.58 501.762 1151.49 502.457 1151.28 503.118C1150.53 505.372 1149.03 508.485 1147.24 508.187" stroke="#88C9AE" stroke-width="4" stroke-linecap="round"/>
<path d="M1169.79 474.792V501.066C1169.79 501.762 1169.71 502.457 1169.49 503.118C1168.74 505.372 1167.25 508.485 1165.46 508.187" stroke="#88C9AE" stroke-width="4" stroke-linecap="round"/>
<path d="M1194.95 446.169L1169.05 453.451C1167.83 453.795 1166.54 453.843 1165.29 453.589L1149.15 450.306C1147.05 449.879 1144.87 450.313 1143.09 451.511L1139.43 453.975" stroke="#88C9AE" stroke-width="4" stroke-linecap="round"/>
<path d="M1125.55 446.169L1151.45 453.451C1152.67 453.795 1153.96 453.843 1155.21 453.589L1171.35 450.306C1173.45 449.879 1175.63 450.313 1177.41 451.511L1181.07 453.975" stroke="#9AD4BB" stroke-width="4" stroke-linecap="round"/>
<path d="M1139.86 392.278C1150.71 392.278 1172.94 391.98 1174.13 397.922C1175.32 403.864 1163.24 402.302 1153.04 402.288" stroke="#FFADA5" stroke-width="6" stroke-linecap="round"/>
<path d="M1147.24 409.35L1153.61 413.03" stroke="#18181B" stroke-width="2" stroke-linecap="round" stroke-linejoin="round"/>
<path d="M1171.83 409.35L1165.46 413.03" stroke="#18181B" stroke-width="2" stroke-linecap="round" stroke-linejoin="round"/>
<circle cx="1150.71" cy="414.075" r="1.73477" fill="#18181B"/>
<circle cx="1168.06" cy="414.075" r="1.73477" fill="#18181B"/>
<path d="M1175 493.007L1176.73 494.742L1175 496.477L1176.73 498.212L1175 499.946" stroke="white" stroke-opacity="0.5" stroke-linecap="round" stroke-linejoin="round"/>
<path d="M1145.51 483.466L1143.77 485.201L1145.51 486.936L1143.77 488.67L1145.51 490.405" stroke="white" stroke-opacity="0.5" stroke-linecap="round" stroke-linejoin="round"/>
<path d="M1179.33 493.007L1181.07 494.742L1179.33 496.477L1181.07 498.212" stroke="white" stroke-opacity="0.5" stroke-linecap="round" stroke-linejoin="round"/>
<path d="M1155.05 422.749L1161.99 422.749" stroke="#18181B" stroke-width="2" stroke-linecap="round"/>
<path d="M1163.71 420.147C1162.62 421.368 1161.94 423.086 1162.65 424.639" stroke="#18181B" stroke-width="2" stroke-linecap="round"/>
<ellipse cx="792.749" cy="465.591" rx="72.866" ry="40.1172" transform="rotate(-180 792.749 465.591)" fill="url(#paint15_radial_2165_35621)"/>
<ellipse cx="792.749" cy="465.591" rx="72.866" ry="40.1172" transform="rotate(-180 792.749 465.591)" fill="url(#paint16_linear_2165_35621)" fill-opacity="0.4"/>
<path d="M783.335 439.392C784.465 439.392 785.382 438.476 785.382 437.345C785.382 436.215 784.465 435.298 783.335 435.298C782.204 435.298 781.288 436.215 781.288 437.345C781.288 438.476 782.204 439.392 783.335 439.392Z" fill="#FFC960"/>
<path d="M801.347 439.392C802.477 439.392 803.393 438.476 803.393 437.345C803.393 436.215 802.477 435.298 801.347 435.298C800.216 435.298 799.3 436.215 799.3 437.345C799.3 438.476 800.216 439.392 801.347 439.392Z" fill="#FFC960"/>
<path d="M792.75 466.41C799.985 466.41 805.849 462.011 805.849 456.585C805.849 451.159 799.985 446.76 792.75 446.76C785.515 446.76 779.65 451.159 779.65 456.585C779.65 462.011 785.515 466.41 792.75 466.41Z" fill="url(#paint17_linear_2165_35621)"/>
<circle cx="759.592" cy="434.889" r="2.0468" fill="white" fill-opacity="0.6"/>
<path d="M753.861 436.936C746.492 439.392 735.849 445.942 730.527 452.492" stroke="white" stroke-opacity="0.6" stroke-width="3" stroke-linecap="round"/>
<path d="M827.955 494.656C834.63 492.931 849.241 486.468 855.791 477.053" stroke="#FF9534" stroke-opacity="0.4" stroke-width="3" stroke-linecap="round"/>
<path d="M811.58 496.036L830.685 515.141L835.832 508.521" stroke="#FF7F48" stroke-width="3.75" stroke-linecap="round" stroke-linejoin="round"/>
<circle cx="820.996" cy="426.702" r="7.77783" fill="#FFFAFA" fill-opacity="0.26"/>
<circle cx="820.996" cy="426.702" r="7.40283" stroke="white" stroke-opacity="0.4" stroke-width="0.75"/>
<circle cx="817.721" cy="444.714" r="4.50295" fill="#FFFAFA" fill-opacity="0.26"/>
<circle cx="817.721" cy="444.714" r="4.12795" stroke="white" stroke-opacity="0.4" stroke-width="0.75"/>
<circle cx="835.732" cy="413.602" r="17.6024" fill="#FFFAFA" fill-opacity="0.26"/>
<circle cx="835.732" cy="413.602" r="17.2274" stroke="white" stroke-opacity="0.4" stroke-width="0.75"/>
<path d="M765.756 460.744C757.368 465.52 738.088 473.155 728.071 465.483" stroke="#FF7F48" stroke-width="3.75" stroke-linecap="round"/>
<path d="M779.65 445.533C780.469 444.85 782.762 443.486 785.381 443.486" stroke="#18181B" stroke-width="2.25" stroke-linecap="round"/>
<path d="M805.03 445.533C804.212 444.85 801.919 443.486 799.299 443.486" stroke="#18181B" stroke-width="2.25" stroke-linecap="round"/>
<path d="M773.919 495.909C769.199 496.006 760.175 497.007 761.841 500.244C763.507 503.48 775.55 503.519 778.882 503.133L774.644 507.371" stroke="#FF7F48" stroke-width="3.75" stroke-linecap="round" stroke-linejoin="round"/>
<circle cx="805.031" cy="447.579" r="1.63744" fill="white"/>
<path d="M853.553 460.875C853.951 450.283 856.8 427.932 865.004 423.259" stroke="#FF7F48" stroke-width="3.75" stroke-linecap="round" stroke-linejoin="round"/>
<path fill-rule="evenodd" clip-rule="evenodd" d="M108.214 513C107.544 513 107 513.544 107 514.214C107 514.885 106.456 515.429 105.786 515.429H89C87.8954 515.429 87 516.324 87 517.429V520.714C87 521.819 87.8954 522.714 89 522.714H105.179C106.185 522.714 107 523.53 107 524.536C107 525.542 107.815 526.357 108.821 526.357H124.069C124.024 526.564 124 526.779 124 527V529C124 530.657 125.343 532 127 532H128C129.306 532 130.417 531.165 130.829 530H153.171C153.583 531.165 154.694 532 156 532C157.657 532 159 530.657 159 529V527C159 526.779 158.976 526.564 158.931 526.357H175.179C176.185 526.357 177 525.542 177 524.536C177 523.53 177.815 522.714 178.821 522.714H194C195.105 522.714 196 521.819 196 520.714V517.429C196 516.324 195.105 515.429 194 515.429H178.214C177.544 515.429 177 514.885 177 514.214C177 513.544 176.456 513 175.786 513H108.214ZM153 528V527C153 526.779 153.024 526.564 153.069 526.357H130.931C130.976 526.564 131 526.779 131 527V528H153Z" fill="#D2D2D2"/>
<path d="M108 511.706V479L88.1573 517.741C87.7434 518.549 88.5336 519.446 89.3873 519.137L107.34 512.646C107.736 512.503 108 512.127 108 511.706Z" fill="#CAE0F0"/>
<path d="M176 511.706V479L195.843 517.741C196.257 518.549 195.466 519.446 194.613 519.137L176.66 512.646C176.264 512.503 176 512.127 176 511.706Z" fill="#CAE0F0"/>
<path fill-rule="evenodd" clip-rule="evenodd" d="M129 408C127.895 408 127 408.895 127 410V413.771C115.745 419.313 108 430.898 108 444.292V512.292C108 517.815 112.477 522.292 118 522.292H166C171.523 522.292 176 517.815 176 512.292V444.292C176 430.898 168.255 419.313 157 413.771V410C157 408.895 156.105 408 155 408H129Z" fill="#A7CBE6"/>
<path d="M118 453C118 439.745 128.745 429 142 429V429C155.255 429 166 439.745 166 453V503C166 508.523 161.523 513 156 513H128C122.477 513 118 508.523 118 503V453Z" fill="white" fill-opacity="0.4"/>
<path d="M152 390V382.008C152 381.643 151.9 381.286 151.711 380.973L146.869 372.965C146.507 372.366 145.858 372 145.158 372H138.586C137.87 372 137.209 372.383 136.852 373.004L132.266 380.988C132.092 381.291 132 381.635 132 381.984V390C132 391.105 132.895 392 134 392H150C151.105 392 152 391.105 152 390Z" fill="#FFD4D4"/>
<rect x="124" y="391" width="36" height="20" rx="2" fill="#E7E7E7"/>
<circle cx="142" cy="453" r="17" fill="#F4F4F4" fill-opacity="0.8"/>
<circle cx="142" cy="453" r="13" fill="#A2D5FC"/>
<path d="M130 490C130 483.373 135.373 478 142 478V478C148.627 478 154 483.373 154 490V505.619C154 506.382 153.382 507 152.619 507H131.381C130.618 507 130 506.382 130 505.619V490Z" fill="#484D5F"/>
<path d="M148.005 508L156.482 526.926" stroke="#A2A2A2" stroke-width="6" stroke-linecap="round"/>
<path d="M135.476 508.074L126.999 527" stroke="#A2A2A2" stroke-width="6" stroke-linecap="round"/>
<path d="M148 513L134 513" stroke="#A2A2A2" stroke-width="6" stroke-linecap="round"/>
<path d="M152.245 521.245H131.093" stroke="#A2A2A2" stroke-width="6" stroke-linecap="round"/>
<defs>
<radialGradient id="paint0_radial_2165_35621" cx="0" cy="0" r="1" gradientUnits="userSpaceOnUse" gradientTransform="translate(1177 269.002) rotate(90) scale(6.40163)">
<stop stop-color="#FFCA43"/>
<stop offset="1" stop-color="#FFAF65"/>
</radialGradient>
<radialGradient id="paint1_radial_2165_35621" cx="0" cy="0" r="1" gradientUnits="userSpaceOnUse" gradientTransform="translate(794.501 213.502) rotate(-177.189) scale(8.17947)">
<stop stop-color="#FFF1CD"/>
<stop offset="1" stop-color="#78FFA6"/>
</radialGradient>
<radialGradient id="paint2_radial_2165_35621" cx="0" cy="0" r="1" gradientUnits="userSpaceOnUse" gradientTransform="translate(415.571 430.571) rotate(45) scale(8.17947)">
<stop stop-color="#FFF1CD"/>
<stop offset="1" stop-color="#78FFA6"/>
</radialGradient>
<linearGradient id="paint3_linear_2165_35621" x1="641.5" y1="479" x2="641.5" y2="721" gradientUnits="userSpaceOnUse">
<stop stop-color="#F3F3F3"/>
<stop offset="1" stop-color="#FBFBFB"/>
</linearGradient>
<radialGradient id="paint4_radial_2165_35621" cx="0" cy="0" r="1" gradientUnits="userSpaceOnUse" gradientTransform="translate(570.002 81.002) rotate(90) scale(6.40163)">
<stop stop-color="#FFCA43"/>
<stop offset="1" stop-color="#FFAF65"/>
</radialGradient>
<linearGradient id="paint5_linear_2165_35621" x1="84.0578" y1="86.386" x2="0.415158" y2="86.8726" gradientUnits="userSpaceOnUse">
<stop stop-color="#FFF187"/>
<stop offset="0.532241" stop-color="#FFF9C9"/>
<stop offset="0.98" stop-color="#FFF187"/>
</linearGradient>
<linearGradient id="paint6_linear_2165_35621" x1="626.914" y1="329.416" x2="616.072" y2="312.502" gradientUnits="userSpaceOnUse">
<stop stop-color="#F6ECA2"/>
<stop offset="1" stop-color="#F7F3D9"/>
</linearGradient>
<linearGradient id="paint7_linear_2165_35621" x1="613.217" y1="359.388" x2="610.246" y2="370.728" gradientUnits="userSpaceOnUse">
<stop offset="0.189556" stop-color="#FFFAEE"/>
<stop offset="0.520654" stop-color="#FFEF78"/>
<stop offset="1" stop-color="#FFEF78"/>
</linearGradient>
<linearGradient id="paint8_linear_2165_35621" x1="938.493" y1="350.521" x2="937.609" y2="442.974" gradientUnits="userSpaceOnUse">
<stop stop-color="#FFFEF2"/>
<stop offset="1" stop-color="white"/>
</linearGradient>
<linearGradient id="paint9_linear_2165_35621" x1="904.621" y1="385.818" x2="975.842" y2="385.509" gradientUnits="userSpaceOnUse">
<stop stop-color="white" stop-opacity="0"/>
<stop offset="1" stop-color="#FFE4B0"/>
</linearGradient>
<linearGradient id="paint10_linear_2165_35621" x1="937.339" y1="273.586" x2="948.548" y2="368.337" gradientUnits="userSpaceOnUse">
<stop stop-color="#FF604E"/>
<stop offset="1" stop-color="#FF825A"/>
</linearGradient>
<linearGradient id="paint11_linear_2165_35621" x1="906.817" y1="338.391" x2="980.979" y2="330.585" gradientUnits="userSpaceOnUse">
<stop stop-color="white" stop-opacity="0"/>
<stop offset="1" stop-color="#FF4848"/>
</linearGradient>
<linearGradient id="paint12_linear_2165_35621" x1="1102.57" y1="323" x2="1102.57" y2="460.914" gradientUnits="userSpaceOnUse">
<stop stop-color="#FFEAE8"/>
<stop offset="1" stop-color="#FFDCD8"/>
</linearGradient>
<linearGradient id="paint13_linear_2165_35621" x1="1102.57" y1="452.24" x2="1102.57" y2="331.674" gradientUnits="userSpaceOnUse">
<stop stop-color="#FFCCC7"/>
<stop offset="1" stop-color="#FDB9B1"/>
</linearGradient>
<linearGradient id="paint14_linear_2165_35621" x1="1160.25" y1="400.197" x2="1160.25" y2="476.527" gradientUnits="userSpaceOnUse">
<stop stop-color="#DFFFF2"/>
<stop offset="1" stop-color="#B9FFE2"/>
</linearGradient>
<radialGradient id="paint15_radial_2165_35621" cx="0" cy="0" r="1" gradientUnits="userSpaceOnUse" gradientTransform="translate(792.749 461.497) rotate(-90) scale(36.0236 65.4306)">
<stop stop-color="#FFF491"/>
<stop offset="1" stop-color="#FCB815"/>
</radialGradient>
<linearGradient id="paint16_linear_2165_35621" x1="792.749" y1="470.913" x2="792.749" y2="436.936" gradientUnits="userSpaceOnUse">
<stop stop-color="#FFA361" stop-opacity="0"/>
<stop offset="1" stop-color="#FFEFB8"/>
</linearGradient>
<linearGradient id="paint17_linear_2165_35621" x1="792.75" y1="466.77" x2="792.75" y2="448.955" gradientUnits="userSpaceOnUse">
<stop stop-color="#621D00"/>
<stop offset="1" stop-color="#CF6537"/>
</linearGradient>
</defs>
</svg>
