<svg width="48" height="48" viewBox="0 0 48 48" fill="none" xmlns="http://www.w3.org/2000/svg">
<g filter="url(#filter0_i_1348_23358)">
<rect width="48" height="48" rx="4" fill="#E9F5FE"/>
<rect x="14.5" y="5.5" width="19" height="19" rx="1.5" fill="#A93DCF" stroke="#2390E3"/>
<path d="M23.797 42.6172V43.8359H14.0353V42.6172H18.1486V40.6484H15.0666V35.0938H16.5666V36.7461H21.2189V35.0938H22.7072V40.6484H19.6369V42.6172H23.797ZM16.5666 39.4531H21.2189V37.9414H16.5666V39.4531ZM32.6405 34.4141V38.4453H34.2108V39.6758H32.6405V45.1016H31.1639V34.4141H32.6405ZM24.66 36.5117V35.3047H29.5936V39.4414H26.16V41.375C27.7127 41.3691 28.9959 41.2988 30.4139 41.0586L30.5428 42.2539C28.9139 42.5527 27.4491 42.6172 25.5741 42.6172H24.6717V38.2578H28.1053V36.5117H24.66Z" fill="#279EF9"/>
</g>
<defs>
<filter id="filter0_i_1348_23358" x="0" y="0" width="48" height="52" filterUnits="userSpaceOnUse" color-interpolation-filters="sRGB">
<feFlood flood-opacity="0" result="BackgroundImageFix"/>
<feBlend mode="normal" in="SourceGraphic" in2="BackgroundImageFix" result="shape"/>
<feColorMatrix in="SourceAlpha" type="matrix" values="0 0 0 0 0 0 0 0 0 0 0 0 0 0 0 0 0 0 127 0" result="hardAlpha"/>
<feOffset dy="4"/>
<feGaussianBlur stdDeviation="6"/>
<feComposite in2="hardAlpha" operator="arithmetic" k2="-1" k3="1"/>
<feColorMatrix type="matrix" values="0 0 0 0 1 0 0 0 0 1 0 0 0 0 1 0 0 0 0.2 0"/>
<feBlend mode="normal" in2="shape" result="effect1_innerShadow_1348_23358"/>
</filter>
</defs>
</svg>
