<svg width="48" height="48" viewBox="0 0 48 48" fill="none" xmlns="http://www.w3.org/2000/svg">
<rect x="14" y="5" width="20" height="20" rx="2" fill="#FF4242"/>
<path d="M21.3669 34.088H22.3509V39.812H21.3669V34.088ZM21.6549 36.452H23.6829V37.28H21.6549V36.452ZM13.9269 34.604H14.7789V36.104H15.9909V34.604H16.8429V39.248H13.9269V34.604ZM14.7789 36.884V38.444H15.9909V36.884H14.7789ZM17.5029 34.604H18.3549V36.104H19.5669V34.604H20.4069V39.248H17.5029V34.604ZM18.3549 36.884V38.444H19.5669V36.884H18.3549ZM15.2589 40.292H22.3509V42.86H16.2669V44.444H15.2949V42.116H21.3669V41.084H15.2589V40.292ZM15.2949 44.024H22.7469V44.816H15.2949V44.024ZM31.926 34.088H32.922V40.58H31.926V34.088ZM32.646 36.884H34.53V37.724H32.646V36.884ZM28.926 34.88H29.994C29.994 37.664 28.062 39.692 24.93 40.616L24.51 39.812C27.27 38.996 28.926 37.364 28.926 35.336V34.88ZM24.99 34.88H29.49V35.708H24.99V34.88ZM29.526 40.712C31.674 40.712 33.042 41.504 33.042 42.812C33.042 44.12 31.674 44.912 29.526 44.912C27.366 44.912 25.986 44.12 25.986 42.812C25.986 41.504 27.366 40.712 29.526 40.712ZM29.526 41.504C27.966 41.504 26.97 41.996 26.97 42.812C26.97 43.628 27.966 44.12 29.526 44.12C31.086 44.12 32.082 43.628 32.082 42.812C32.082 41.996 31.086 41.504 29.526 41.504Z" fill="#18181B"/>
</svg>
