<svg width="48" height="48" viewBox="0 0 48 48" fill="none" xmlns="http://www.w3.org/2000/svg">
<rect x="14" y="5" width="20" height="20" rx="2" fill="#FF6F42"/>
<path d="M17.9949 35.156H18.8589V35.612C18.8589 37.556 16.7949 38.984 14.6109 39.356L14.2269 38.564C16.1349 38.288 17.9949 37.04 17.9949 35.612V35.156ZM18.2469 35.156H19.0989V35.612C19.0989 37.04 20.9709 38.288 22.8669 38.564L22.4949 39.356C20.2989 38.984 18.2469 37.556 18.2469 35.612V35.156ZM18.0309 40.796H19.0149V44.936H18.0309V40.796ZM13.6509 40.268H23.4549V41.084H13.6509V40.268ZM14.5629 34.76H22.5069V35.564H14.5629V34.76ZM31.914 34.1H32.91V41.444H31.914V34.1ZM32.49 37.352H34.494V38.192H32.49V37.352ZM29.43 41.588C31.686 41.588 32.994 42.176 32.994 43.256C32.994 44.336 31.686 44.924 29.43 44.924C27.186 44.924 25.878 44.336 25.878 43.256C25.878 42.176 27.186 41.588 29.43 41.588ZM29.43 42.332C27.786 42.332 26.874 42.656 26.874 43.256C26.874 43.856 27.786 44.18 29.43 44.18C31.062 44.18 31.986 43.856 31.986 43.256C31.986 42.656 31.062 42.332 29.43 42.332ZM27.342 39.02H28.338V40.508H27.342V39.02ZM24.57 40.964L24.438 40.172C26.382 40.172 29.046 40.148 31.266 39.824L31.35 40.52C29.046 40.94 26.466 40.964 24.57 40.964ZM24.714 35.024H30.942V35.768H24.714V35.024ZM27.834 36.224C29.37 36.224 30.354 36.8 30.354 37.76C30.354 38.72 29.37 39.296 27.834 39.296C26.298 39.296 25.302 38.72 25.302 37.76C25.302 36.8 26.298 36.224 27.834 36.224ZM27.834 36.896C26.862 36.896 26.238 37.232 26.238 37.76C26.238 38.3 26.862 38.624 27.834 38.624C28.806 38.624 29.418 38.3 29.418 37.76C29.418 37.232 28.806 36.896 27.834 36.896ZM27.342 34.004H28.338V35.3H27.342V34.004Z" fill="#18181B"/>
</svg>
