<svg width="48" height="48" viewBox="0 0 48 48" fill="none" xmlns="http://www.w3.org/2000/svg">
<g filter="url(#filter0_i_1348_23349)">
<rect width="48" height="48" rx="4" fill="#E9F5FE"/>
<rect x="14.5" y="5.5" width="19" height="19" rx="1.5" fill="white" stroke="#2390E3"/>
<path d="M23.0002 34.4375V42.7109H21.4767V34.4375H23.0002ZM14.0822 40.4961C16.0392 40.4961 18.6115 40.4668 20.8205 40.2031L20.9259 41.1992C18.6525 41.5859 16.1564 41.627 14.2814 41.6328L14.0822 40.4961ZM14.3986 36.4062V35.3164H16.8127V34.3789H18.3009V35.3164H20.7267V36.4062H14.3986ZM14.8908 38.3633C14.8849 37.3145 15.9455 36.7109 17.5627 36.7109C19.1623 36.7109 20.2228 37.3145 20.2345 38.3633C20.2228 39.3887 19.1623 40.0098 17.5627 40.0156C15.9455 40.0098 14.8849 39.3887 14.8908 38.3633ZM15.7111 44.8906V42.1602H17.2111V43.6953H23.2697V44.8906H15.7111ZM16.3088 38.3633C16.3029 38.7793 16.7834 38.9902 17.5627 38.9961C18.3302 38.9902 18.7931 38.7793 18.7931 38.3633C18.7931 37.9297 18.3302 37.6895 17.5627 37.6953C16.7834 37.6895 16.3029 37.9297 16.3088 38.3633ZM27.6366 36.2656C27.6366 37.4551 28.2225 38.6094 29.6405 39.1719L28.8319 40.3203C27.9295 39.957 27.3026 39.3066 26.9217 38.5039C26.535 39.418 25.8612 40.1855 24.8709 40.6016L24.0741 39.4414C25.5799 38.7969 26.1834 37.4727 26.1834 36.2656V35.0352H27.6366V36.2656ZM26.0194 42.5469V41.3516H33.3905V45.0781H31.9022V42.5469H26.0194ZM29.6873 40.8242V34.5898H31.0819V37.0156H31.9725V34.4258H33.3905V40.8828H31.9725V38.2344H31.0819V40.8242H29.6873Z" fill="#279EF9"/>
</g>
<defs>
<filter id="filter0_i_1348_23349" x="0" y="0" width="48" height="52" filterUnits="userSpaceOnUse" color-interpolation-filters="sRGB">
<feFlood flood-opacity="0" result="BackgroundImageFix"/>
<feBlend mode="normal" in="SourceGraphic" in2="BackgroundImageFix" result="shape"/>
<feColorMatrix in="SourceAlpha" type="matrix" values="0 0 0 0 0 0 0 0 0 0 0 0 0 0 0 0 0 0 127 0" result="hardAlpha"/>
<feOffset dy="4"/>
<feGaussianBlur stdDeviation="6"/>
<feComposite in2="hardAlpha" operator="arithmetic" k2="-1" k3="1"/>
<feColorMatrix type="matrix" values="0 0 0 0 1 0 0 0 0 1 0 0 0 0 1 0 0 0 0.2 0"/>
<feBlend mode="normal" in2="shape" result="effect1_innerShadow_1348_23349"/>
</filter>
</defs>
</svg>
