<svg width="48" height="48" viewBox="0 0 48 48" fill="none" xmlns="http://www.w3.org/2000/svg">
<rect x="14" y="5" width="20" height="20" rx="2" fill="#828282"/>
<path d="M16.7349 40.592H17.7429V42.38H16.7349V40.592ZM21.4869 34.088H22.4829V44.936H21.4869V34.088ZM13.8429 42.872L13.7109 42.044C15.7629 42.032 18.4629 42.008 20.8029 41.708L20.8749 42.44C18.4629 42.848 15.8469 42.872 13.8429 42.872ZM13.9389 35.408H20.5269V36.212H13.9389V35.408ZM17.2269 36.836C18.7869 36.836 19.8429 37.628 19.8429 38.84C19.8429 40.064 18.7869 40.844 17.2269 40.844C15.6789 40.844 14.6229 40.064 14.6229 38.84C14.6229 37.628 15.6789 36.836 17.2269 36.836ZM17.2269 37.604C16.2549 37.604 15.5709 38.096 15.5709 38.84C15.5709 39.584 16.2549 40.076 17.2269 40.076C18.2109 40.076 18.8949 39.584 18.8949 38.84C18.8949 38.096 18.2109 37.604 17.2269 37.604ZM16.7349 34.088H17.7309V35.852H16.7349V34.088ZM26.778 34.736H27.57V36.188C27.57 37.82 26.646 39.536 25.05 40.268L24.51 39.488C25.926 38.852 26.778 37.424 26.778 36.188V34.736ZM26.934 34.736H27.726V36.188C27.726 37.424 28.53 38.66 29.922 39.224L29.394 39.992C27.822 39.332 26.934 37.808 26.934 36.188V34.736ZM32.694 34.1H33.642V40.652H32.694V34.1ZM30.942 36.908H32.994V37.736H30.942V36.908ZM30.366 34.28H31.314V40.592H30.366V34.28ZM26.37 41.24H33.642V44.936H32.658V42.056H26.37V41.24Z" fill="#18181B"/>
</svg>
