<svg width="48" height="48" viewBox="0 0 48 48" fill="none" xmlns="http://www.w3.org/2000/svg">
<rect x="14" y="5" width="20" height="20" rx="2" fill="#FF4291"/>
<path d="M23.6681 40.0508V40.8008H19.4259V42.8398H18.5119V40.8008H14.1291V40.0508H23.6681ZM15.3478 44.7266V41.8789H16.2619V43.9531H22.6017V44.7266H15.3478ZM15.4064 39.0312V34.8711H16.3205V36.207H21.4767V34.8711H22.3908V39.0312H15.4064ZM16.3205 38.2812H21.4767V36.9102H16.3205V38.2812ZM29.078 41.75C31.3631 41.7441 32.6522 42.3008 32.6639 43.3555C32.6522 44.3867 31.3631 44.9258 29.078 44.9258C26.7694 44.9258 25.4745 44.3867 25.4803 43.3555C25.4745 42.3008 26.7694 41.7441 29.078 41.75ZM24.3319 41.0938V40.3555H28.6209V39.541C26.7459 39.4707 25.6912 38.9668 25.6912 38.0703C25.6912 37.0801 26.9159 36.5762 29.078 36.5703C31.2342 36.5762 32.453 37.0801 32.453 38.0703C32.453 38.9668 31.4041 39.4707 29.535 39.541V40.3555H33.8241V41.0938H24.3319ZM24.8241 36.1484V35.4102H28.6209V34.3906H29.535V35.4102H33.2733V36.1484H24.8241ZM26.4178 43.3555C26.4237 43.9238 27.3846 44.2402 29.078 44.2344C30.7655 44.2402 31.7264 43.9238 31.7264 43.3555C31.7264 42.7637 30.7655 42.4414 29.078 42.4414C27.3846 42.4414 26.4237 42.7637 26.4178 43.3555ZM26.6756 38.0703C26.6698 38.5859 27.5487 38.8848 29.078 38.8906C30.6073 38.8848 31.4745 38.5859 31.4803 38.0703C31.4745 37.5195 30.6073 37.2207 29.078 37.2266C27.5487 37.2207 26.6698 37.5195 26.6756 38.0703Z" fill="#18181B"/>
</svg>
