<svg width="48" height="48" viewBox="0 0 48 48" fill="none" xmlns="http://www.w3.org/2000/svg">
<g filter="url(#filter0_i_1348_23350)">
<rect width="48" height="48" rx="4" fill="#E9F5FE"/>
<rect x="14.5" y="5.5" width="19" height="19" rx="1.5" fill="#FF4242" stroke="#2390E3"/>
<path d="M22.883 34.4141V36.4883H23.9611V37.707H22.883V39.9219H21.4298V34.4141H22.883ZM14.1642 39.5586V34.8711H15.3713V36.0781H16.0627V34.8711H17.2697V39.5586H14.1642ZM15.3713 38.3984H16.0627V37.2148H15.3713V38.3984ZM15.5822 41.4453V40.2852H22.883V43.1445H17.0705V43.8242H23.2345V45.0078H15.5939V42.0664H21.4181V41.4453H15.5822ZM17.7267 39.5586V34.8711H18.9338V36.0781H19.6017V34.8711H20.8205V39.5586H17.7267ZM18.9338 38.3984H19.6017V37.2148H18.9338V38.3984ZM32.6873 34.4141V36.9219H34.1287V38.1406H32.6873V40.6016H31.1873V34.4141H32.6873ZM24.1561 39.6289C26.5057 39.0078 27.8475 37.7891 28.0819 36.3125H24.66V35.1172H29.7108C29.7166 37.959 27.9295 39.9512 24.7537 40.8359L24.1561 39.6289ZM25.5975 42.9102C25.5858 41.5742 27.0389 40.7305 29.2069 40.7305C31.3807 40.7305 32.7987 41.5742 32.8045 42.9102C32.7987 44.2578 31.3807 45.0898 29.2069 45.0898C27.0389 45.0898 25.5858 44.2578 25.5975 42.9102ZM27.0741 42.9102C27.0682 43.5547 27.8651 43.9238 29.2069 43.918C30.5311 43.9238 31.328 43.5547 31.328 42.9102C31.328 42.2539 30.5311 41.8906 29.2069 41.8906C27.8651 41.8906 27.0682 42.2539 27.0741 42.9102Z" fill="#279EF9"/>
</g>
<defs>
<filter id="filter0_i_1348_23350" x="0" y="0" width="48" height="52" filterUnits="userSpaceOnUse" color-interpolation-filters="sRGB">
<feFlood flood-opacity="0" result="BackgroundImageFix"/>
<feBlend mode="normal" in="SourceGraphic" in2="BackgroundImageFix" result="shape"/>
<feColorMatrix in="SourceAlpha" type="matrix" values="0 0 0 0 0 0 0 0 0 0 0 0 0 0 0 0 0 0 127 0" result="hardAlpha"/>
<feOffset dy="4"/>
<feGaussianBlur stdDeviation="6"/>
<feComposite in2="hardAlpha" operator="arithmetic" k2="-1" k3="1"/>
<feColorMatrix type="matrix" values="0 0 0 0 1 0 0 0 0 1 0 0 0 0 1 0 0 0 0.2 0"/>
<feBlend mode="normal" in2="shape" result="effect1_innerShadow_1348_23350"/>
</filter>
</defs>
</svg>
