<svg width="48" height="48" viewBox="0 0 48 48" fill="none" xmlns="http://www.w3.org/2000/svg">
<g filter="url(#filter0_i_1348_23357)">
<rect width="48" height="48" rx="4" fill="#E9F5FE"/>
<rect x="14.5" y="5.5" width="19" height="19" rx="1.5" fill="#2E388A" stroke="#2390E3"/>
<path d="M22.4963 34.4258V36.6758H23.9377V37.8945H22.4963V40.4375H20.9963V34.4258H22.4963ZM14.4689 39.8633V34.9297H15.9689V38.6387C17.2638 38.6094 18.6525 38.4863 20.1291 38.1992L20.3048 39.418C18.547 39.7695 16.8888 39.8633 15.383 39.8633H14.4689ZM15.5119 44.9492V40.918H22.4963V44.9492H15.5119ZM16.9767 43.7773H21.0314V42.0781H16.9767V43.7773ZM27.6366 36.2656C27.6366 37.4551 28.2225 38.6094 29.6405 39.1719L28.8319 40.3203C27.9295 39.957 27.3026 39.3066 26.9217 38.5039C26.535 39.418 25.8612 40.1855 24.8709 40.6016L24.0741 39.4414C25.5799 38.7969 26.1834 37.4727 26.1834 36.2656V35.0352H27.6366V36.2656ZM26.0194 42.5469V41.3516H33.3905V45.0781H31.9022V42.5469H26.0194ZM29.6873 40.8242V34.5898H31.0819V37.0156H31.9725V34.4258H33.3905V40.8828H31.9725V38.2344H31.0819V40.8242H29.6873Z" fill="#279EF9"/>
</g>
<defs>
<filter id="filter0_i_1348_23357" x="0" y="0" width="48" height="52" filterUnits="userSpaceOnUse" color-interpolation-filters="sRGB">
<feFlood flood-opacity="0" result="BackgroundImageFix"/>
<feBlend mode="normal" in="SourceGraphic" in2="BackgroundImageFix" result="shape"/>
<feColorMatrix in="SourceAlpha" type="matrix" values="0 0 0 0 0 0 0 0 0 0 0 0 0 0 0 0 0 0 127 0" result="hardAlpha"/>
<feOffset dy="4"/>
<feGaussianBlur stdDeviation="6"/>
<feComposite in2="hardAlpha" operator="arithmetic" k2="-1" k3="1"/>
<feColorMatrix type="matrix" values="0 0 0 0 1 0 0 0 0 1 0 0 0 0 1 0 0 0 0.2 0"/>
<feBlend mode="normal" in2="shape" result="effect1_innerShadow_1348_23357"/>
</filter>
</defs>
</svg>
