<svg width="48" height="48" viewBox="0 0 48 48" fill="none" xmlns="http://www.w3.org/2000/svg">
<rect x="14" y="5" width="20" height="20" rx="2" fill="#008826"/>
<path d="M13.6509 42.74H23.4789V43.568H13.6509V42.74ZM18.0549 40.292H19.0509V43.184H18.0549V40.292ZM18.0549 36.356H18.9309V36.596C18.9309 38.816 16.9149 40.256 14.5629 40.664L14.1789 39.872C16.3029 39.536 18.0549 38.276 18.0549 36.596V36.356ZM18.1869 36.356H19.0509V36.596C19.0509 38.276 20.8029 39.536 22.9269 39.872L22.5429 40.664C20.1909 40.256 18.1869 38.816 18.1869 36.596V36.356ZM14.5509 35.792H22.5429V36.62H14.5509V35.792ZM18.0549 34.316H19.0509V36.092H18.0549V34.316ZM24.498 40.052H34.338V40.868H24.498V40.052ZM25.746 34.364H33.066V36.992H26.754V38.456H25.77V36.26H32.094V35.144H25.746V34.364ZM25.77 38.132H33.306V38.912H25.77V38.132ZM28.914 38.54H29.91V40.46H28.914V38.54ZM25.59 41.696H33.138V44.84H32.142V42.512H25.59V41.696Z" fill="#18181B"/>
</svg>
