<svg width="48" height="48" viewBox="0 0 48 48" fill="none" xmlns="http://www.w3.org/2000/svg">
<rect x="14" y="5" width="20" height="20" rx="2" fill="#FFD542"/>
<path d="M22.5783 39.2773V40.0508H19.3439V42.8281H23.6798V43.5898H14.1408V42.8281H18.4298V40.0508H15.3127V35.4219H16.2502V39.2773H22.5783ZM32.4764 34.543V37.1562H34.0584V37.9297H32.4764V40.8359H31.5623V34.543H32.4764ZM24.7772 35.9492V35.1875H29.4998V38H25.703V39.4531C27.5545 39.459 28.8963 39.3887 30.5194 39.1133L30.6131 39.8867C28.9432 40.1621 27.5487 40.2266 25.6092 40.2266H24.8006V37.2734H28.5975V35.9492H24.7772ZM25.6795 43.0508C25.6737 41.8555 26.9862 41.1465 29.1366 41.1523C31.2635 41.1465 32.5702 41.8555 32.5702 43.0508C32.5702 44.2402 31.2635 44.9258 29.1366 44.9258C26.9862 44.9258 25.6737 44.2402 25.6795 43.0508ZM26.5819 43.0508C26.5702 43.7773 27.537 44.2168 29.1366 44.2109C30.7127 44.2168 31.6737 43.7773 31.6795 43.0508C31.6737 42.3184 30.7127 41.8789 29.1366 41.8789C27.537 41.8789 26.5702 42.3184 26.5819 43.0508Z" fill="#18181B"/>
</svg>
