<svg width="48" height="48" viewBox="0 0 48 48" fill="none" xmlns="http://www.w3.org/2000/svg">
<rect x="14" y="5" width="20" height="20" rx="2" fill="black"/>
<path d="M19.5197 35.2109C19.5138 37.8242 17.6447 39.6992 14.6447 40.5547L14.258 39.8281C16.7482 39.125 18.342 37.7422 18.5412 35.9727H14.797V35.2109H19.5197ZM16.0158 44.8086V40.9297H22.7775V44.8086H16.0158ZM16.9064 44.0586H21.8634V41.668H16.9064V44.0586ZM19.5431 38V37.2266H21.8517V34.543H22.7775V40.4844H21.8517V38H19.5431ZM32.9686 34.5312V40.7422H32.0428V38.0117H29.9452V37.25H32.0428V34.5312H32.9686ZM24.3787 39.9102C25.9256 39.3535 27.0272 37.9414 27.0272 36.4531V36.0664H24.6717V35.293H30.285V36.0664H27.953V36.4414C27.953 37.8008 28.9959 39.0957 30.5194 39.6172L30.0389 40.3555C28.8729 39.9336 27.9647 39.0547 27.5135 37.9824C27.0682 39.2012 26.1014 40.1738 24.8592 40.6484L24.3787 39.9102ZM26.0194 43.0039C26.0135 41.7793 27.3436 41.0645 29.5116 41.0703C31.6737 41.0645 33.0037 41.7793 33.0037 43.0039C33.0037 44.2344 31.6737 44.9375 29.5116 44.9492C27.3436 44.9375 26.0135 44.2344 26.0194 43.0039ZM26.9334 43.0039C26.9276 43.7598 27.912 44.2168 29.5116 44.2109C31.1053 44.2168 32.0897 43.7598 32.0897 43.0039C32.0897 42.2422 31.1053 41.7852 29.5116 41.7852C27.912 41.7852 26.9276 42.2422 26.9334 43.0039Z" fill="#18181B"/>
</svg>
