<svg width="48" height="48" viewBox="0 0 48 48" fill="none" xmlns="http://www.w3.org/2000/svg">
<g filter="url(#filter0_i_1348_23351)">
<rect width="48" height="48" rx="4" fill="#E9F5FE"/>
<rect x="14.5" y="5.5" width="19" height="19" rx="1.5" fill="#FF6F42" stroke="#2390E3"/>
<path d="M23.7619 40.2969V41.4922H19.6134V45.0781H18.1369V41.4922H14.0353V40.2969H23.7619ZM14.5158 38.5039C16.672 38.2402 17.8673 37.1973 18.0255 36.1484H14.9142V34.9766H22.8947V36.1484H19.7834C19.9357 37.1973 21.1134 38.2402 23.3048 38.5039L22.7658 39.6758C20.8908 39.4238 19.549 38.627 18.9045 37.5312C18.2541 38.627 16.924 39.4238 15.0666 39.6758L14.5158 38.5039ZM32.7577 34.4258V37.4492H34.117V38.6797H32.7577V41.6211H31.2577V34.4258H32.7577ZM24.1092 40.2031C24.8885 40.2031 25.7733 40.1973 26.6991 40.1738V39.5469C25.533 39.3887 24.8182 38.8496 24.8241 38.0586C24.8182 37.1094 25.8436 36.5293 27.4373 36.5352C29.0194 36.5293 30.0448 37.1094 30.0506 38.0586C30.0448 38.8496 29.3358 39.3887 28.1873 39.5469V40.1152C29.0604 40.0742 29.9393 40.0039 30.7655 39.8984L30.8709 40.9062C28.6034 41.2988 26.1483 41.3281 24.2616 41.3281L24.1092 40.2031ZM24.3905 36.2773V35.1758H26.6991V34.332H28.1873V35.1758H30.4959V36.2773H24.3905ZM25.5155 43.4023C25.5155 42.3125 26.8338 41.7031 29.16 41.7148C31.4686 41.7031 32.7928 42.3125 32.7928 43.4023C32.7928 44.5039 31.4686 45.0898 29.16 45.0898C26.8338 45.0898 25.5155 44.5039 25.5155 43.4023ZM26.2537 38.0586C26.2479 38.4336 26.6756 38.6152 27.4373 38.6211C28.1873 38.6152 28.6151 38.4336 28.6209 38.0586C28.6151 37.707 28.1873 37.5137 27.4373 37.5078C26.6756 37.5137 26.2479 37.707 26.2537 38.0586ZM27.0155 43.4023C27.0096 43.8066 27.6834 44.0059 29.16 44C30.6131 44.0059 31.287 43.8066 31.2928 43.4023C31.287 42.9863 30.6131 42.793 29.16 42.793C27.6834 42.793 27.0096 42.9863 27.0155 43.4023Z" fill="#279EF9"/>
</g>
<defs>
<filter id="filter0_i_1348_23351" x="0" y="0" width="48" height="52" filterUnits="userSpaceOnUse" color-interpolation-filters="sRGB">
<feFlood flood-opacity="0" result="BackgroundImageFix"/>
<feBlend mode="normal" in="SourceGraphic" in2="BackgroundImageFix" result="shape"/>
<feColorMatrix in="SourceAlpha" type="matrix" values="0 0 0 0 0 0 0 0 0 0 0 0 0 0 0 0 0 0 127 0" result="hardAlpha"/>
<feOffset dy="4"/>
<feGaussianBlur stdDeviation="6"/>
<feComposite in2="hardAlpha" operator="arithmetic" k2="-1" k3="1"/>
<feColorMatrix type="matrix" values="0 0 0 0 1 0 0 0 0 1 0 0 0 0 1 0 0 0 0.2 0"/>
<feBlend mode="normal" in2="shape" result="effect1_innerShadow_1348_23351"/>
</filter>
</defs>
</svg>
