<svg width="48" height="48" viewBox="0 0 48 48" fill="none" xmlns="http://www.w3.org/2000/svg">
<g filter="url(#filter0_i_1348_23354)">
<rect width="48" height="48" rx="4" fill="#E9F5FE"/>
<rect x="14.5" y="5.5" width="19" height="19" rx="1.5" fill="#008826" stroke="#2390E3"/>
<path d="M23.797 42.6406V43.8594H14.0353V42.6406H18.1603V40.5547H19.6486V42.6406H23.797ZM14.3634 39.7578C16.7951 39.4648 18.0021 38.2578 18.1369 37.0742H14.8791V35.8789H18.1603V34.543H19.6486V35.8789H22.9416V37.0742H19.6838C19.8068 38.2578 21.0197 39.4648 23.4455 39.7578L22.9064 40.918C20.9963 40.6719 19.6193 39.8809 18.8986 38.7793C18.1896 39.8809 16.8185 40.6719 14.9142 40.918L14.3634 39.7578ZM33.9764 40.1328V41.3281H24.2147V40.1328H28.3514V39.3594H25.4334V36.4297H31.2928V35.7734H25.41V34.6133H32.7928V37.5078H26.9217V38.2109H32.992V39.3594H29.8397V40.1328H33.9764ZM25.3045 43.1094V41.9375H32.8514V45.0312H31.3397V43.1094H25.3045Z" fill="#279EF9"/>
</g>
<defs>
<filter id="filter0_i_1348_23354" x="0" y="0" width="48" height="52" filterUnits="userSpaceOnUse" color-interpolation-filters="sRGB">
<feFlood flood-opacity="0" result="BackgroundImageFix"/>
<feBlend mode="normal" in="SourceGraphic" in2="BackgroundImageFix" result="shape"/>
<feColorMatrix in="SourceAlpha" type="matrix" values="0 0 0 0 0 0 0 0 0 0 0 0 0 0 0 0 0 0 127 0" result="hardAlpha"/>
<feOffset dy="4"/>
<feGaussianBlur stdDeviation="6"/>
<feComposite in2="hardAlpha" operator="arithmetic" k2="-1" k3="1"/>
<feColorMatrix type="matrix" values="0 0 0 0 1 0 0 0 0 1 0 0 0 0 1 0 0 0 0.2 0"/>
<feBlend mode="normal" in2="shape" result="effect1_innerShadow_1348_23354"/>
</filter>
</defs>
</svg>
