<svg width="48" height="48" viewBox="0 0 48 48" fill="none" xmlns="http://www.w3.org/2000/svg">
<rect x="14" y="5" width="20" height="20" rx="2" fill="#00C4A1"/>
<path d="M17.6916 36.7695C17.6974 38.0645 18.8166 39.2363 20.3517 39.6875L19.9064 40.4023C18.6994 40.0391 17.7384 39.2539 17.2638 38.2285C16.8185 39.3652 15.8634 40.2617 14.6213 40.6719L14.1759 39.9688C15.7052 39.4531 16.7834 38.1816 16.7892 36.7695V36.5469H14.4338V35.8086H16.7892V34.4844H17.715V35.8086H20.047V36.5469H17.6916V36.7695ZM15.8283 43.0273C15.8224 41.8145 17.1525 41.123 19.3205 41.1289C21.4826 41.123 22.8127 41.8145 22.8127 43.0273C22.8127 44.2344 21.4826 44.9258 19.3205 44.9258C17.1525 44.9258 15.8224 44.2344 15.8283 43.0273ZM16.7423 43.0273C16.7365 43.7539 17.7209 44.1992 19.3205 44.1992C20.9201 44.1992 21.8986 43.7539 21.8986 43.0273C21.8986 42.2832 20.9201 41.8555 19.3205 41.8438C17.7209 41.8555 16.7365 42.2832 16.7423 43.0273ZM19.7189 38.2812V37.5195H21.8517V34.5312H22.7775V40.8477H21.8517V38.2812H19.7189ZM33.8592 40.2734V41.0352H24.3202V40.2734H28.6327V39.1719H25.5623V36.6289H31.703V35.5508H25.5272V34.8008H32.6287V37.3203H26.4764V38.4336H32.8514V39.1719H29.535V40.2734H33.8592ZM25.3866 42.582V41.832H32.6873V44.8555H31.7616V42.582H25.3866Z" fill="#18181B"/>
</svg>
