<svg width="48" height="48" viewBox="0 0 48 48" fill="none" xmlns="http://www.w3.org/2000/svg">
<rect x="14" y="5" width="20" height="20" rx="2" fill="#F5F6F7"/>
<path d="M13.6389 40.652H23.4669V41.48H13.6389V40.652ZM18.0549 40.892H19.0389V44.948H18.0549V40.892ZM14.9469 38.732H22.3749V39.548H14.9469V38.732ZM14.9469 34.592H22.2549V35.396H15.9309V38.972H14.9469V34.592ZM15.6429 36.644H21.9909V37.424H15.6429V36.644ZM29.682 35.84H32.814V36.656H29.682V35.84ZM29.682 38H32.838V38.804H29.682V38ZM32.43 34.088H33.426V40.508H32.43V34.088ZM25.002 34.904H29.958V39.728H25.002V34.904ZM28.974 35.708H25.974V38.936H28.974V35.708ZM29.862 40.82C32.094 40.82 33.474 41.576 33.474 42.872C33.474 44.168 32.094 44.912 29.862 44.912C27.618 44.912 26.238 44.168 26.238 42.872C26.238 41.576 27.618 40.82 29.862 40.82ZM29.862 41.612C28.23 41.612 27.234 42.08 27.234 42.872C27.234 43.664 28.23 44.132 29.862 44.132C31.494 44.132 32.49 43.664 32.49 42.872C32.49 42.08 31.494 41.612 29.862 41.612Z" fill="#18181B"/>
</svg>
