<svg width="48" height="48" viewBox="0 0 48 48" fill="none" xmlns="http://www.w3.org/2000/svg">
<rect x="14" y="5" width="20" height="20" rx="2" fill="#A93DCF"/>
<path d="M23.6798 42.8516V43.6133H14.1408V42.8516H18.4298V40.6016H15.2658V35.2695H16.1916V37.1562H21.6056V35.2695H22.508V40.6016H19.3322V42.8516H23.6798ZM16.1916 39.8516H21.6056V37.9062H16.1916V39.8516ZM32.3944 34.5312V38.6797H34.1405V39.4531H32.3944V44.9727H31.4803V34.5312H32.3944ZM24.742 36.2656V35.5039H29.4764V39.2305H25.6795V41.668C27.6131 41.6738 28.9666 41.5977 30.5428 41.3047L30.6366 42.0664C28.9959 42.3652 27.6073 42.4414 25.5975 42.4531H24.7655V38.4688H28.5623V36.2656H24.742Z" fill="#18181B"/>
</svg>
