<svg width="48" height="48" viewBox="0 0 48 48" fill="none" xmlns="http://www.w3.org/2000/svg">
<rect x="14.5" y="5.5" width="19" height="19" rx="1.5" fill="white" stroke="#BCBFC1"/>
<path d="M22.7306 34.5664V42.6523H21.8048V34.5664H22.7306ZM14.1877 40.6602C16.133 40.6602 18.7228 40.6367 20.9377 40.3438L21.008 40.9883C18.7228 41.3574 16.2033 41.3984 14.3283 41.3984L14.1877 40.6602ZM14.5392 36.3125V35.6094H17.1525V34.5078H18.0666V35.6094H20.6916V36.3125H14.5392ZM15.1369 38.3867C15.1252 37.373 16.1154 36.7637 17.6213 36.7695C19.1154 36.7637 20.1056 37.373 20.1173 38.3867C20.1056 39.3828 19.1154 39.998 17.6213 39.9922C16.1154 39.998 15.1252 39.3828 15.1369 38.3867ZM15.9103 44.7266V42.0898H16.8244V43.9531H23.0588V44.7266H15.9103ZM15.9923 38.3867C15.9982 38.9609 16.6369 39.3359 17.6213 39.3359C18.5939 39.3359 19.2326 38.9609 19.2267 38.3867C19.2326 37.7949 18.5939 37.4023 17.6213 37.4141C16.6369 37.4023 15.9982 37.7949 15.9923 38.3867ZM27.4373 36.5703C27.4432 37.7598 28.2342 38.9551 29.5702 39.4766L29.078 40.1914C28.0877 39.7871 27.3729 39.0195 27.0037 38.0996C26.617 39.1074 25.867 39.998 24.8475 40.4492L24.3436 39.7344C25.7147 39.125 26.5526 37.7598 26.5584 36.5703V35.1758H27.4373V36.5703ZM26.16 42.1719V41.4102H33.1795V44.9492H32.2772V42.1719H26.16ZM30.0506 40.7773V34.7305H30.9178V37.2617H32.3006V34.543H33.1795V40.8359H32.3006V38.0352H30.9178V40.7773H30.0506Z" fill="#18181B"/>
</svg>
