<svg width="48" height="48" viewBox="0 0 48 48" fill="none" xmlns="http://www.w3.org/2000/svg">
<rect x="14" y="5" width="20" height="20" rx="2" fill="#4F76FF"/>
<path d="M13.7829 35.252H19.8189V36.068H13.7829V35.252ZM13.6269 42.26L13.5069 41.408C15.4629 41.408 18.0909 41.384 20.3229 41.108L20.3829 41.852C18.1149 42.224 15.5349 42.26 13.6269 42.26ZM14.9469 35.864H15.9189V41.636H14.9469V35.864ZM17.6829 35.864H18.6549V41.636H17.6829V35.864ZM20.9829 34.088H21.9909V44.936H20.9829V34.088ZM21.7509 38.42H23.7669V39.26H21.7509V38.42ZM31.926 34.088H32.922V40.64H31.926V34.088ZM32.622 36.8H34.53V37.628H32.622V36.8ZM24.978 39.2H25.83C27.798 39.2 29.202 39.14 30.894 38.84L30.978 39.668C29.262 39.956 27.834 40.028 25.83 40.028H24.978V39.2ZM24.954 34.76H29.838V37.712H25.95V39.728H24.978V36.932H28.854V35.576H24.954V34.76ZM29.454 40.976C31.674 40.976 33.018 41.696 33.018 42.944C33.018 44.204 31.674 44.924 29.454 44.924C27.246 44.924 25.89 44.204 25.89 42.944C25.89 41.696 27.246 40.976 29.454 40.976ZM29.454 41.756C27.834 41.756 26.862 42.188 26.862 42.944C26.862 43.712 27.834 44.144 29.454 44.144C31.074 44.144 32.058 43.712 32.058 42.944C32.058 42.188 31.074 41.756 29.454 41.756Z" fill="#18181B"/>
</svg>
