<svg width="48" height="48" viewBox="0 0 48 48" fill="none" xmlns="http://www.w3.org/2000/svg">
<g filter="url(#filter0_i_1348_23359)">
<rect width="48" height="48" rx="4" fill="#E9F5FE"/>
<rect x="14.5" y="5.5" width="19" height="19" rx="1.5" fill="#FF4291" stroke="#2390E3"/>
<path d="M23.7853 39.8867V41.0586H19.7658V42.7812H18.2892V41.0586H14.0236V39.8867H23.7853ZM15.172 44.8906V41.9375H16.6486V43.6953H22.7072V44.8906H15.172ZM15.2775 39.1367V34.7539H16.7541V35.8672H21.0314V34.7539H22.5197V39.1367H15.2775ZM16.7541 37.9531H21.0314V36.9805H16.7541V37.9531ZM29.078 41.75C31.4393 41.7559 32.7811 42.3477 32.7928 43.4258C32.7811 44.5156 31.4393 45.084 29.078 45.0781C26.6815 45.084 25.3397 44.5156 25.3397 43.4258C25.3397 42.3477 26.6815 41.7559 29.078 41.75ZM24.2264 41.3398V40.1797H28.3397V39.6289C26.5116 39.5234 25.492 39.0137 25.5037 38.1289C25.492 37.1152 26.7928 36.5938 29.0897 36.5938C31.3983 36.5938 32.6698 37.1152 32.6756 38.1289C32.6698 39.0137 31.6737 39.5234 29.8397 39.6289V40.1797H33.953V41.3398H24.2264ZM24.6952 36.3008V35.1758H28.3397V34.332H29.8397V35.1758H33.4491V36.3008H24.6952ZM26.8748 43.4258C26.869 43.8301 27.5604 44 29.078 43.9883C30.578 44 31.2752 43.8301 31.2811 43.4258C31.2752 43.0273 30.578 42.8457 29.078 42.8398C27.5604 42.8457 26.869 43.0273 26.8748 43.4258ZM27.0975 38.1289C27.0975 38.4688 27.742 38.6328 29.0897 38.6328C30.4491 38.6328 31.0702 38.4688 31.0702 38.1289C31.0702 37.7539 30.4491 37.5957 29.0897 37.6016C27.742 37.5957 27.0975 37.7539 27.0975 38.1289Z" fill="#279EF9"/>
</g>
<defs>
<filter id="filter0_i_1348_23359" x="0" y="0" width="48" height="52" filterUnits="userSpaceOnUse" color-interpolation-filters="sRGB">
<feFlood flood-opacity="0" result="BackgroundImageFix"/>
<feBlend mode="normal" in="SourceGraphic" in2="BackgroundImageFix" result="shape"/>
<feColorMatrix in="SourceAlpha" type="matrix" values="0 0 0 0 0 0 0 0 0 0 0 0 0 0 0 0 0 0 127 0" result="hardAlpha"/>
<feOffset dy="4"/>
<feGaussianBlur stdDeviation="6"/>
<feComposite in2="hardAlpha" operator="arithmetic" k2="-1" k3="1"/>
<feColorMatrix type="matrix" values="0 0 0 0 1 0 0 0 0 1 0 0 0 0 1 0 0 0 0.2 0"/>
<feBlend mode="normal" in2="shape" result="effect1_innerShadow_1348_23359"/>
</filter>
</defs>
</svg>
