<svg width="48" height="48" viewBox="0 0 48 48" fill="none" xmlns="http://www.w3.org/2000/svg">
<rect x="14" y="5" width="20" height="20" rx="2" fill="#AEFA4D"/>
<path d="M22.7775 34.543V42.2422H21.8517V39.4297H19.1564C18.6759 40.0449 17.9025 40.4141 17.0119 40.4141C15.4533 40.4141 14.299 39.3359 14.3048 37.8125C14.299 36.2832 15.4533 35.2051 17.0119 35.1992C17.8966 35.2051 18.6584 35.5684 19.1447 36.1719H21.8517V34.543H22.7775ZM15.1838 37.8125C15.1838 38.8555 15.9455 39.5996 17.0119 39.5938C18.0373 39.5996 18.8166 38.8555 18.8166 37.8125C18.8166 36.7754 18.0373 36.0254 17.0119 36.0195C15.9455 36.0254 15.1838 36.7754 15.1838 37.8125ZM16.0861 44.7266V41.4336H17.0119V43.9531H23.0705V44.7266H16.0861ZM19.5607 36.9336C19.6545 37.2031 19.7072 37.4961 19.7072 37.8125C19.7072 38.1172 19.6545 38.4043 19.5666 38.668H21.8517V36.9336H19.5607ZM32.6405 38.4336V39.1719H25.6444V35.1523H32.4998V35.9141H26.5819V38.4336H32.6405ZM24.3202 41.3047V40.5547H33.8592V41.3047H29.5116V44.9141H28.6092V41.3047H24.3202Z" fill="#18181B"/>
</svg>
