<svg width="48" height="48" viewBox="0 0 48 48" fill="none" xmlns="http://www.w3.org/2000/svg">
<rect x="14" y="5" width="20" height="20" rx="2" fill="#2E388A"/>
<path d="M22.2853 34.543V36.9336H23.8673V37.707H22.2853V40.4258H21.3713V34.543H22.2853ZM14.6447 39.6289V35.0703H15.5705V38.8555C17.0588 38.8496 18.588 38.7324 20.2697 38.3867L20.3869 39.1602C18.6173 39.5176 17.0412 39.623 15.4767 39.6289H14.6447ZM15.6877 44.8086V41H22.2853V44.8086H15.6877ZM16.59 44.0586H21.3947V41.7266H16.59V44.0586ZM27.4373 36.5703C27.4432 37.7598 28.2342 38.9551 29.5702 39.4766L29.078 40.1914C28.0877 39.7871 27.3729 39.0195 27.0037 38.0996C26.617 39.1074 25.867 39.998 24.8475 40.4492L24.3436 39.7344C25.7147 39.125 26.5526 37.7598 26.5584 36.5703V35.1758H27.4373V36.5703ZM26.16 42.1719V41.4102H33.1795V44.9492H32.2772V42.1719H26.16ZM30.0506 40.7773V34.7305H30.9178V37.2617H32.3006V34.543H33.1795V40.8359H32.3006V38.0352H30.9178V40.7773H30.0506Z" fill="#18181B"/>
</svg>
