<svg width="48" height="48" viewBox="0 0 48 48" fill="none" xmlns="http://www.w3.org/2000/svg">
<g filter="url(#filter0_i_1348_23360)">
<rect width="48" height="48" rx="4" fill="#E9F5FE"/>
<rect x="14.5" y="5.5" width="19" height="19" rx="1.5" fill="#828282" stroke="#2390E3"/>
<path d="M23.0002 34.4141V45.0781H21.5119V34.4141H23.0002ZM14.0822 42.0664C14.8966 42.0605 15.8283 42.0605 16.8009 42.0371V41.1348C15.6349 40.9238 14.8732 40.1973 14.8791 39.1953C14.8732 38.0059 15.9572 37.1914 17.5275 37.1914C19.1095 37.1914 20.2111 38.0059 20.2111 39.1953C20.2111 40.1914 19.4494 40.918 18.2775 41.1348V41.9844C19.174 41.9434 20.0705 41.873 20.9259 41.7617L21.0314 42.8633C18.6935 43.2676 16.1798 43.291 14.2814 43.2852L14.0822 42.0664ZM14.2931 36.7695V35.5977H16.8009V34.4609H18.2892V35.5977H20.7736V36.7695H14.2931ZM16.297 39.1953C16.2912 39.7578 16.8009 40.0625 17.5275 40.0625C18.2775 40.0625 18.7814 39.7578 18.7814 39.1953C18.7814 38.6445 18.2775 38.334 17.5275 38.3281C16.8009 38.334 16.2912 38.6445 16.297 39.1953ZM27.6366 36.2656C27.6366 37.4551 28.2225 38.6094 29.6405 39.1719L28.8319 40.3203C27.9295 39.957 27.3026 39.3066 26.9217 38.5039C26.535 39.418 25.8612 40.1855 24.8709 40.6016L24.0741 39.4414C25.5799 38.7969 26.1834 37.4727 26.1834 36.2656V35.0352H27.6366V36.2656ZM26.0194 42.5469V41.3516H33.3905V45.0781H31.9022V42.5469H26.0194ZM29.6873 40.8242V34.5898H31.0819V37.0156H31.9725V34.4258H33.3905V40.8828H31.9725V38.2344H31.0819V40.8242H29.6873Z" fill="#279EF9"/>
</g>
<defs>
<filter id="filter0_i_1348_23360" x="0" y="0" width="48" height="52" filterUnits="userSpaceOnUse" color-interpolation-filters="sRGB">
<feFlood flood-opacity="0" result="BackgroundImageFix"/>
<feBlend mode="normal" in="SourceGraphic" in2="BackgroundImageFix" result="shape"/>
<feColorMatrix in="SourceAlpha" type="matrix" values="0 0 0 0 0 0 0 0 0 0 0 0 0 0 0 0 0 0 127 0" result="hardAlpha"/>
<feOffset dy="4"/>
<feGaussianBlur stdDeviation="6"/>
<feComposite in2="hardAlpha" operator="arithmetic" k2="-1" k3="1"/>
<feColorMatrix type="matrix" values="0 0 0 0 1 0 0 0 0 1 0 0 0 0 1 0 0 0 0.2 0"/>
<feBlend mode="normal" in2="shape" result="effect1_innerShadow_1348_23360"/>
</filter>
</defs>
</svg>
