<svg width="20" height="20" viewBox="0 0 20 20" fill="none" xmlns="http://www.w3.org/2000/svg">
<path d="M5.41622 8.74984L8.74955 5.41651M16.6663 16.6665L16.6663 13.3332L7.91627 4.58317C7.6974 4.3643 7.43756 4.19068 7.15159 4.07223C6.86563 3.95378 6.55913 3.89282 6.2496 3.89282C5.94007 3.89282 5.63358 3.95378 5.34761 4.07223C5.06164 4.19068 4.80181 4.3643 4.58294 4.58317C4.36407 4.80204 4.19045 5.06188 4.072 5.34785C3.95355 5.63381 3.89258 5.94031 3.89258 6.24984C3.89258 6.55937 3.95355 6.86586 4.072 7.15183C4.19045 7.4378 4.36407 7.69764 4.58293 7.9165L13.3329 16.6665L16.6663 16.6665Z" stroke="#7C7F86" stroke-width="1.66667" stroke-linecap="round" stroke-linejoin="round"/>
</svg>
