<svg width="162" height="113" viewBox="0 0 162 113" fill="none" xmlns="http://www.w3.org/2000/svg">
<ellipse cx="73.5" cy="59.8867" rx="73" ry="40" transform="rotate(-180 73.5 59.8867)" fill="url(#paint0_radial_1523_39934)"/>
<ellipse cx="73.5" cy="59.8867" rx="73" ry="40" transform="rotate(-180 73.5 59.8867)" fill="url(#paint1_linear_1523_39934)" fill-opacity="0.4"/>
<circle cx="42.8281" cy="29" r="2" fill="white" fill-opacity="0.6"/>
<path d="M37.3633 31.1611C29.7843 33.6874 18.837 40.4243 13.3633 47.1611" stroke="white" stroke-opacity="0.6" stroke-width="2.31415" stroke-linecap="round"/>
<path d="M114.578 87.7233C120.963 85.3415 134.652 77.6005 140.093 67.9999" stroke="#FF9534" stroke-opacity="0.4" stroke-width="2.31415" stroke-linecap="round"/>
<path d="M47.992 54.1801C39.4658 59.0353 19.8678 66.7961 9.68507 58.9979" stroke="#FF7F48" stroke-width="3" stroke-linecap="round"/>
<path d="M136.278 60.6475C126.667 62.6228 105.629 63.9312 98.3626 53.3624" stroke="#FF7F48" stroke-width="3" stroke-linecap="round"/>
<path d="M90.2086 90.0551L109.628 109.475L114.861 102.746" stroke="#FF7F48" stroke-width="3" stroke-linecap="round" stroke-linejoin="round"/>
<path d="M57.5 90L41 111L31.5 104" stroke="#FF7F48" stroke-width="3" stroke-linecap="round" stroke-linejoin="round"/>
<path d="M64.418 32.3154C65.5225 32.3154 66.418 31.42 66.418 30.3154C66.418 29.2109 65.5225 28.3154 64.418 28.3154C63.3134 28.3154 62.418 29.2109 62.418 30.3154C62.418 31.42 63.3134 32.3154 64.418 32.3154Z" fill="#FFC960"/>
<path d="M82.7246 32.3154C83.8292 32.3154 84.7246 31.42 84.7246 30.3154C84.7246 29.2109 83.8292 28.3154 82.7246 28.3154C81.62 28.3154 80.7246 29.2109 80.7246 30.3154C80.7246 31.42 81.62 32.3154 82.7246 32.3154Z" fill="#FFC960"/>
<path d="M66.5 38V38C64.4378 39.2766 61.9408 39.6476 59.5966 39.0256L59.5 39" stroke="#18181B" stroke-width="2" stroke-linecap="round" stroke-linejoin="round"/>
<path d="M81 38V38C83.0622 39.2766 85.5592 39.6476 87.9034 39.0256L88 39" stroke="#18181B" stroke-width="2" stroke-linecap="round" stroke-linejoin="round"/>
<path d="M74.5 49C76.9853 49 79 47.433 79 45.5C79 43.567 76.9853 42 74.5 42C72.0147 42 70 43.567 70 45.5C70 47.433 72.0147 49 74.5 49Z" fill="url(#paint2_linear_1523_39934)"/>
<path d="M71.9373 20.8349L55.5006 23.3809L58.1546 19.6137C60.4989 16.2861 61.7572 12.3152 61.7572 8.24469L62.1116 8.52086C66.3113 11.794 69.678 16.0134 71.9373 20.8349Z" fill="#155189" stroke="#155189" stroke-width="2" stroke-linecap="round" stroke-linejoin="round"/>
<g opacity="0.6">
<mask id="mask0_1523_39934" style="mask-type:alpha" maskUnits="userSpaceOnUse" x="54" y="7" width="19" height="18">
<path d="M71.9373 20.8349L55.5006 23.3809L58.1546 19.6137C60.4989 16.2861 61.7572 12.3152 61.7572 8.24469L62.1116 8.52086C66.3113 11.794 69.678 16.0134 71.9373 20.8349Z" fill="#155189" stroke="#155189" stroke-width="2" stroke-linecap="round" stroke-linejoin="round"/>
</mask>
<g mask="url(#mask0_1523_39934)">
<circle cx="67.0006" cy="11.5" r="2.5" transform="rotate(51.6522 67.0006 11.5)" fill="#1C70B1"/>
<path d="M59.2237 14.9642C59.9528 15.4803 60.4507 16.2616 60.6104 17.1405C60.7702 18.0194 60.5792 18.9259 60.0783 19.6656C59.5774 20.4053 58.8066 20.9192 57.9312 21.0972C57.0558 21.2751 56.1455 21.1029 55.3956 20.6175L57.251 17.7511L59.2237 14.9642Z" fill="#1C70B1"/>
<circle cx="65.5" cy="18" r="2" fill="#1C70B1"/>
<circle cx="71" cy="23.5" r="3.5" fill="#1C70B1"/>
</g>
</g>
<path d="M60.8631 4.25142C60.9416 4.1832 61.0584 4.1832 61.1369 4.25142C61.2548 4.35387 61.4208 4.38016 61.5646 4.31917C61.6604 4.27855 61.7715 4.31463 61.8251 4.40379C61.9056 4.53766 62.0553 4.61395 62.2109 4.60038C62.3145 4.59135 62.409 4.65999 62.4325 4.76135C62.4676 4.91353 62.5865 5.03237 62.7387 5.06755C62.84 5.09098 62.9087 5.18546 62.8996 5.28909C62.886 5.4447 62.9623 5.59444 63.0962 5.67493C63.1854 5.72854 63.2215 5.8396 63.1808 5.93537C63.1198 6.07917 63.1461 6.24516 63.2486 6.36308C63.3168 6.44161 63.3168 6.55839 63.2486 6.63692C63.1461 6.75484 63.1198 6.92083 63.1808 7.06463C63.2215 7.1604 63.1854 7.27146 63.0962 7.32507C62.9623 7.40556 62.886 7.5553 62.8996 7.71091C62.9087 7.81454 62.84 7.90902 62.7387 7.93245C62.5865 7.96763 62.4676 8.08647 62.4325 8.23865C62.409 8.34001 62.3145 8.40865 62.2109 8.39962C62.0553 8.38605 61.9056 8.46234 61.8251 8.59621C61.7715 8.68537 61.6604 8.72145 61.5646 8.68083C61.4208 8.61984 61.2548 8.64613 61.1369 8.74858C61.0584 8.8168 60.9416 8.8168 60.8631 8.74858C60.7452 8.64613 60.5792 8.61984 60.4354 8.68083C60.3396 8.72145 60.2285 8.68537 60.1749 8.59621C60.0944 8.46234 59.9447 8.38605 59.7891 8.39962C59.6855 8.40865 59.591 8.34001 59.5675 8.23865C59.5324 8.08647 59.4135 7.96763 59.2613 7.93245C59.16 7.90902 59.0913 7.81454 59.1004 7.71091C59.114 7.5553 59.0377 7.40556 58.9038 7.32507C58.8146 7.27146 58.7785 7.1604 58.8192 7.06463C58.8802 6.92083 58.8539 6.75484 58.7514 6.63692C58.6832 6.55839 58.6832 6.44161 58.7514 6.36308C58.8539 6.24516 58.8802 6.07917 58.8192 5.93537C58.7785 5.8396 58.8146 5.72854 58.9038 5.67493C59.0377 5.59444 59.114 5.4447 59.1004 5.28909C59.0913 5.18546 59.16 5.09098 59.2613 5.06755C59.4135 5.03237 59.5324 4.91353 59.5675 4.76135C59.591 4.65999 59.6855 4.59135 59.7891 4.60038C59.9447 4.61395 60.0944 4.53766 60.1749 4.40379C60.2285 4.31463 60.3396 4.27855 60.4354 4.31917C60.5792 4.38016 60.7452 4.35387 60.8631 4.25142Z" fill="#F5F6F7" stroke="#E0E2E4" stroke-width="0.2"/>
<path d="M112.617 17V15.9844L118.695 6.9375H112.555V5.6875H120.383V6.70312L114.305 15.75H120.445V17H112.617Z" fill="#FFE24B"/>
<path d="M124.727 18V16.9844L129.508 10.8438V10.75H124.883V9.51562H131.242V10.5781L126.602 16.6719V16.7656H131.398V18H124.727Z" fill="#FFEF78"/>
<path d="M135.636 18V17.1113L139.819 11.7383V11.6562H135.772V10.5762H141.337V11.5059L137.276 16.8379V16.9199H141.474V18H135.636Z" fill="#FFEF78"/>
<path d="M146.498 18.082C146.019 18.0752 145.609 17.6787 145.623 17.1934C145.609 16.7148 146.019 16.3184 146.498 16.3184C146.983 16.3184 147.379 16.7148 147.373 17.1934C147.379 17.6787 146.983 18.0752 146.498 18.082ZM153.119 18.082C152.64 18.0752 152.23 17.6787 152.244 17.1934C152.23 16.7148 152.64 16.3184 153.119 16.3184C153.604 16.3184 154.001 16.7148 153.994 17.1934C154.001 17.6787 153.604 18.0752 153.119 18.082ZM159.74 18.082C159.261 18.0752 158.851 17.6787 158.865 17.1934C158.851 16.7148 159.261 16.3184 159.74 16.3184C160.225 16.3184 160.622 16.7148 160.615 17.1934C160.622 17.6787 160.225 18.0752 159.74 18.082Z" fill="#FFEF78"/>
<defs>
<radialGradient id="paint0_radial_1523_39934" cx="0" cy="0" r="1" gradientUnits="userSpaceOnUse" gradientTransform="translate(73.5 55.8051) rotate(-90) scale(35.9184 65.551)">
<stop stop-color="#FFF491"/>
<stop offset="1" stop-color="#FCB815"/>
</radialGradient>
<linearGradient id="paint1_linear_1523_39934" x1="73.5" y1="65.1928" x2="73.5" y2="31.3153" gradientUnits="userSpaceOnUse">
<stop stop-color="#FFA361" stop-opacity="0"/>
<stop offset="1" stop-color="#FFEFB8"/>
</linearGradient>
<linearGradient id="paint2_linear_1523_39934" x1="74.5" y1="49.1283" x2="74.5" y2="42.7817" gradientUnits="userSpaceOnUse">
<stop stop-color="#621D00"/>
<stop offset="1" stop-color="#CF6537"/>
</linearGradient>
</defs>
</svg>
