<svg width="24" height="24" viewBox="0 0 24 24" fill="none" xmlns="http://www.w3.org/2000/svg">
<path d="M12 18C12 17.4696 11.7893 16.9609 11.4142 16.5858C11.0391 16.2107 10.5304 16 10 16C9.46957 16 8.96086 16.2107 8.58579 16.5858C8.21071 16.9609 8 17.4696 8 18M12 18C12 18.5304 11.7893 19.0391 11.4142 19.4142C11.0391 19.7893 10.5304 20 10 20C9.46957 20 8.96086 19.7893 8.58579 19.4142C8.21071 19.0391 8 18.5304 8 18M12 18L20 18M8 18L4 18M18 12C18 11.4696 17.7893 10.9609 17.4142 10.5858C17.0391 10.2107 16.5304 10 16 10C15.4696 10 14.9609 10.2107 14.5858 10.5858C14.2107 10.9609 14 11.4696 14 12M18 12C18 12.5304 17.7893 13.0391 17.4142 13.4142C17.0391 13.7893 16.5304 14 16 14C15.4696 14 14.9609 13.7893 14.5858 13.4142C14.2107 13.0391 14 12.5304 14 12M18 12L20 12M14 12L4 12M9 6C9 5.46957 8.78928 4.96086 8.41421 4.58579C8.03914 4.21072 7.53043 4 7 4C6.46957 4 5.96086 4.21072 5.58579 4.58579C5.21071 4.96086 5 5.46957 5 6M9 6C9 6.53043 8.78928 7.03914 8.41421 7.41421C8.03914 7.78929 7.53043 8 7 8C6.46957 8 5.96086 7.78929 5.58579 7.41421C5.21071 7.03914 5 6.53043 5 6M9 6L20 6M5 6L4 6" stroke="#18181B" stroke-width="2" stroke-linecap="round" stroke-linejoin="round"/>
</svg>
