<svg width="48" height="48" viewBox="0 0 48 48" fill="none" xmlns="http://www.w3.org/2000/svg">
<path d="M11 15C11 11.6863 13.6863 9 17 9H24V21H17C13.6863 21 11 18.3137 11 15Z" fill="#6EBEFB"/>
<path d="M37 15C37 18.3137 34.3137 21 31 21L24 21L24 9L31 9C34.3137 9 37 11.6863 37 15Z" fill="#F5F6F7"/>
<rect x="11.5" y="9.5" width="25" height="11" rx="5.5" stroke="#BCBFC1"/>
<path d="M18.8349 36.08H21.7389V36.896H18.8349V36.08ZM18.7389 38.336H21.6669V39.152H18.7389V38.336ZM21.5709 34.088H22.5669V40.592H21.5709V34.088ZM18.1749 34.904H19.2429C19.2429 37.7 17.3109 39.656 14.1909 40.592L13.7829 39.788C16.5549 38.984 18.1749 37.388 18.1749 35.336V34.904ZM14.3469 34.904H18.8589V35.72H14.3469V34.904ZM19.0389 40.712C21.2349 40.712 22.6269 41.492 22.6269 42.8C22.6269 44.108 21.2349 44.888 19.0389 44.888C16.8429 44.888 15.4509 44.108 15.4509 42.8C15.4509 41.492 16.8429 40.712 19.0389 40.712ZM19.0389 41.492C17.4549 41.492 16.4349 41.984 16.4349 42.8C16.4349 43.616 17.4549 44.096 19.0389 44.096C20.6349 44.096 21.6549 43.616 21.6549 42.8C21.6549 41.984 20.6349 41.492 19.0389 41.492ZM32.394 34.088H33.39V39.704H32.394V34.088ZM26.382 40.232H33.402V42.836H27.378V44.384H26.406V42.116H32.418V41.024H26.382V40.232ZM26.406 44.024H33.762V44.816H26.406V44.024ZM27.39 35.048H28.206V35.612C28.206 37.532 26.958 39.116 25.122 39.728L24.654 38.948C26.274 38.42 27.39 37.088 27.39 35.612V35.048ZM27.594 35.048H28.41V35.612C28.41 36.992 29.538 38.24 31.146 38.732L30.678 39.5C28.854 38.936 27.594 37.436 27.594 35.612V35.048ZM24.918 34.7H30.858V35.504H24.918V34.7Z" fill="#18181B"/>
</svg>
