<svg width="48" height="48" viewBox="0 0 48 48" fill="none" xmlns="http://www.w3.org/2000/svg">
<g filter="url(#filter0_i_1348_23368)">
<rect width="48" height="48" rx="4" fill="#E9F5FE"/>
<rect x="11.5" y="9.5" width="25" height="11" rx="5.5" fill="#F5F6F7" stroke="#2390E3"/>
<path d="M23.0236 34.4141V40.7422H21.5353V38.2227H19.8713V37.0156H21.5353V34.4141H23.0236ZM13.965 39.5703C15.7111 38.9844 16.508 37.5898 16.5431 36.2539H14.3986V35.0586H20.1877V36.2539H18.0666C18.0959 37.4961 18.8576 38.75 20.5158 39.3008L19.7775 40.4727C18.6056 40.0918 17.7912 39.3184 17.3283 38.3633C16.8595 39.4473 16.0041 40.3203 14.7384 40.7539L13.965 39.5703ZM15.7111 43.0391C15.7111 41.7441 17.1056 40.9824 19.3791 40.9766C21.6584 40.9824 23.0529 41.7441 23.0588 43.0391C23.0529 44.334 21.6584 45.0898 19.3791 45.0898C17.1056 45.0898 15.7111 44.334 15.7111 43.0391ZM17.1994 43.0391C17.1994 43.6484 17.967 43.9531 19.3791 43.9531C20.797 43.9531 21.5646 43.6484 21.5705 43.0391C21.5646 42.4238 20.797 42.1191 19.3791 42.125C17.967 42.1191 17.1994 42.4238 17.1994 43.0391ZM33.4491 34.4141V45.0781H32.0311V34.4141H33.4491ZM24.0037 41.9609C25.5741 40.9941 26.16 39.084 26.16 37.2734V36.6992H24.4139V35.5039H29.2186V36.6992H27.6014V37.2734C27.5955 39.043 28.1522 40.8359 29.7108 41.7266L28.8319 42.8281C27.8768 42.2656 27.2557 41.3164 26.8924 40.168C26.5291 41.4102 25.8846 42.4648 24.9061 43.0625L24.0037 41.9609ZM28.4569 39.2773V38.0703H29.8631V34.5898H31.2694V44.5859H29.8631V39.2773H28.4569Z" fill="#279EF9"/>
</g>
<defs>
<filter id="filter0_i_1348_23368" x="0" y="0" width="48" height="52" filterUnits="userSpaceOnUse" color-interpolation-filters="sRGB">
<feFlood flood-opacity="0" result="BackgroundImageFix"/>
<feBlend mode="normal" in="SourceGraphic" in2="BackgroundImageFix" result="shape"/>
<feColorMatrix in="SourceAlpha" type="matrix" values="0 0 0 0 0 0 0 0 0 0 0 0 0 0 0 0 0 0 127 0" result="hardAlpha"/>
<feOffset dy="4"/>
<feGaussianBlur stdDeviation="6"/>
<feComposite in2="hardAlpha" operator="arithmetic" k2="-1" k3="1"/>
<feColorMatrix type="matrix" values="0 0 0 0 1 0 0 0 0 1 0 0 0 0 1 0 0 0 0.2 0"/>
<feBlend mode="normal" in2="shape" result="effect1_innerShadow_1348_23368"/>
</filter>
</defs>
</svg>
