<svg width="48" height="48" viewBox="0 0 48 48" fill="none" xmlns="http://www.w3.org/2000/svg">
<rect x="11.5" y="9.5" width="25" height="11" rx="5.5" fill="url(#paint0_linear_1348_23370)" stroke="url(#paint1_linear_1348_23370)"/>
<path d="M18.6669 35.78H21.9309V36.596H18.6669V35.78ZM18.6669 38.384H21.9309V39.2H18.6669V38.384ZM21.5709 34.1H22.5669V42.116H21.5709V34.1ZM15.6429 43.88H22.8669V44.696H15.6429V43.88ZM15.6429 41.288H16.6389V44.24H15.6429V41.288ZM16.6029 34.784C18.1989 34.784 19.3989 35.9 19.3989 37.496C19.3989 39.092 18.1989 40.208 16.6029 40.208C15.0069 40.208 13.8069 39.092 13.8069 37.496C13.8069 35.9 15.0069 34.784 16.6029 34.784ZM16.6029 35.66C15.5469 35.66 14.7669 36.428 14.7669 37.496C14.7669 38.576 15.5469 39.344 16.6029 39.344C17.6589 39.344 18.4509 38.576 18.4509 37.496C18.4509 36.428 17.6589 35.66 16.6029 35.66ZM32.394 34.088H33.39V39.704H32.394V34.088ZM26.382 40.232H33.402V42.836H27.378V44.384H26.406V42.116H32.418V41.024H26.382V40.232ZM26.406 44.024H33.762V44.816H26.406V44.024ZM27.39 35.048H28.206V35.612C28.206 37.532 26.958 39.116 25.122 39.728L24.654 38.948C26.274 38.42 27.39 37.088 27.39 35.612V35.048ZM27.594 35.048H28.41V35.612C28.41 36.992 29.538 38.24 31.146 38.732L30.678 39.5C28.854 38.936 27.594 37.436 27.594 35.612V35.048ZM24.918 34.7H30.858V35.504H24.918V34.7Z" fill="#18181B"/>
<defs>
<linearGradient id="paint0_linear_1348_23370" x1="24" y1="9" x2="24" y2="21" gradientUnits="userSpaceOnUse">
<stop stop-color="#FFF27A"/>
<stop offset="0.5" stop-color="#FFFBD7"/>
<stop offset="1" stop-color="white"/>
</linearGradient>
<linearGradient id="paint1_linear_1348_23370" x1="19.3571" y1="2.5" x2="24.6838" y2="20.801" gradientUnits="userSpaceOnUse">
<stop stop-color="#FFF9E5"/>
<stop offset="1" stop-color="#FFE27A"/>
</linearGradient>
</defs>
</svg>
