<svg width="48" height="48" viewBox="0 0 48 48" fill="none" xmlns="http://www.w3.org/2000/svg">
<rect x="11.5" y="9.5" width="25" height="11" rx="5.5" fill="#F5F6F7" stroke="#BCBFC1"/>
<path d="M19.4349 36.896H21.8829V37.724H19.4349V36.896ZM21.5709 34.088H22.5669V40.556H21.5709V34.088ZM19.0029 40.88C21.2349 40.88 22.6149 41.636 22.6149 42.908C22.6149 44.192 21.2349 44.924 19.0029 44.924C16.7589 44.924 15.3789 44.192 15.3789 42.908C15.3789 41.636 16.7589 40.88 19.0029 40.88ZM19.0029 41.66C17.3709 41.66 16.3749 42.116 16.3749 42.908C16.3749 43.688 17.3709 44.144 19.0029 44.144C20.6349 44.144 21.6309 43.688 21.6309 42.908C21.6309 42.116 20.6349 41.66 19.0029 41.66ZM16.4109 35.18H17.2269V36.056C17.2269 38.06 16.0029 39.776 14.2029 40.448L13.6869 39.656C15.2949 39.068 16.4109 37.616 16.4109 36.056V35.18ZM16.6029 35.18H17.4069V36.056C17.4069 37.46 18.4629 38.804 20.0349 39.356L19.5309 40.148C17.7669 39.512 16.6029 37.88 16.6029 36.056V35.18ZM13.9869 34.88H19.7829V35.696H13.9869V34.88ZM32.754 34.088H33.714V44.936H32.754V34.088ZM28.806 37.976H30.882V38.804H28.806V37.976ZM30.582 34.34H31.518V44.384H30.582V34.34ZM26.718 35.768H27.486V37.148C27.486 39.524 26.574 41.768 24.978 42.776L24.366 42.032C25.878 41.12 26.718 39.14 26.718 37.148V35.768ZM26.922 35.768H27.69V37.148C27.69 39.032 28.506 40.916 29.994 41.78L29.382 42.512C27.798 41.552 26.922 39.416 26.922 37.148V35.768ZM24.666 35.348H29.622V36.176H24.666V35.348Z" fill="#18181B"/>
</svg>
