<svg width="48" height="48" viewBox="0 0 48 48" fill="none" xmlns="http://www.w3.org/2000/svg">
<g filter="url(#filter0_i_1348_23369)">
<rect width="48" height="48" rx="4" fill="#E9F5FE"/>
<path d="M11 15C11 11.6863 13.6863 9 17 9H24V21H17C13.6863 21 11 18.3137 11 15V15Z" fill="#6EBEFB"/>
<path d="M37 15C37 18.3137 34.3137 21 31 21L24 21L24 9L31 9C34.3137 9 37 11.6863 37 15V15Z" fill="#F5F6F7"/>
<rect x="11.5" y="9.5" width="25" height="11" rx="5.5" stroke="#2390E3"/>
<path d="M23.0236 34.4258V40.5664H21.5353V39.5234H19.133V38.3281H21.5353V37.3086H19.2443C18.5763 38.9961 17.0588 40.1621 14.715 40.8008L14.1291 39.6172C16.5783 38.9785 17.7853 37.8008 17.9963 36.3359H14.7033V35.1406H19.6252C19.6252 35.4863 19.6017 35.8203 19.549 36.1367H21.5353V34.4258H23.0236ZM15.8283 42.8516C15.8224 41.5332 17.2814 40.7012 19.4728 40.6953C21.6349 40.7012 23.0998 41.5332 23.1056 42.8516C23.0998 44.1875 21.6349 45.0312 19.4728 45.0312C17.2814 45.0312 15.8224 44.1875 15.8283 42.8516ZM17.3166 42.8516C17.3166 43.5137 18.1193 43.8477 19.4728 43.8477C20.797 43.8477 21.5998 43.5137 21.6056 42.8516C21.5998 42.1953 20.797 41.8555 19.4728 41.8672C18.1193 41.8555 17.3166 42.1953 17.3166 42.8516ZM33.1444 34.4141V39.8867H31.6561V34.4141H33.1444ZM24.2733 38.8203C25.9315 38.3633 26.7518 37.2441 26.8514 36.1016H24.6717V34.9062H30.5311V36.1016H28.3983C28.4979 37.1621 29.3065 38.2051 30.9412 38.6328L30.2264 39.7812C28.9901 39.4414 28.1346 38.7266 27.6541 37.8125C27.1678 38.8262 26.2655 39.6289 24.953 40.0039L24.2733 38.8203ZM25.9959 41.4453V40.3086H33.1561V43.1562H27.4842V43.8594H33.4491V45.0078H26.0194V42.0898H31.6678V41.4453H25.9959Z" fill="#279EF9"/>
</g>
<defs>
<filter id="filter0_i_1348_23369" x="0" y="0" width="48" height="52" filterUnits="userSpaceOnUse" color-interpolation-filters="sRGB">
<feFlood flood-opacity="0" result="BackgroundImageFix"/>
<feBlend mode="normal" in="SourceGraphic" in2="BackgroundImageFix" result="shape"/>
<feColorMatrix in="SourceAlpha" type="matrix" values="0 0 0 0 0 0 0 0 0 0 0 0 0 0 0 0 0 0 127 0" result="hardAlpha"/>
<feOffset dy="4"/>
<feGaussianBlur stdDeviation="6"/>
<feComposite in2="hardAlpha" operator="arithmetic" k2="-1" k3="1"/>
<feColorMatrix type="matrix" values="0 0 0 0 1 0 0 0 0 1 0 0 0 0 1 0 0 0 0.2 0"/>
<feBlend mode="normal" in2="shape" result="effect1_innerShadow_1348_23369"/>
</filter>
</defs>
</svg>
