<svg width="48" height="48" viewBox="0 0 48 48" fill="none" xmlns="http://www.w3.org/2000/svg">
<g filter="url(#filter0_i_1348_23370)">
<rect width="48" height="48" rx="4" fill="#E9F5FE"/>
<rect x="11.5" y="9.5" width="25" height="11" rx="5.5" fill="url(#paint0_linear_1348_23370)" stroke="#2390E3"/>
<path d="M23.0236 34.4258V42.2188H21.5353V39.6875H19.0978C18.5822 40.2324 17.8439 40.5664 17.0119 40.5664C15.3947 40.5664 14.1642 39.3945 14.1759 37.8125C14.1642 36.207 15.3947 35.041 17.0119 35.0352C17.838 35.041 18.5763 35.3691 19.092 35.9141H21.5353V34.4258H23.0236ZM15.5939 37.8125C15.588 38.7031 16.1798 39.2422 17.0119 39.2422C17.797 39.2422 18.4005 38.7031 18.4064 37.8125C18.4005 36.9102 17.797 36.3711 17.0119 36.3711C16.1798 36.3711 15.588 36.9102 15.5939 37.8125ZM15.9455 44.8906V41.4336H17.4455V43.6953H23.2814V44.8906H15.9455ZM19.7365 37.1094C19.7951 37.332 19.8244 37.5664 19.8244 37.8125C19.8244 38.0469 19.7951 38.2754 19.7423 38.4922H21.5353V37.1094H19.7365ZM33.1444 34.4141V39.8867H31.6561V34.4141H33.1444ZM24.2733 38.8203C25.9315 38.3633 26.7518 37.2441 26.8514 36.1016H24.6717V34.9062H30.5311V36.1016H28.3983C28.4979 37.1621 29.3065 38.2051 30.9412 38.6328L30.2264 39.7812C28.9901 39.4414 28.1346 38.7266 27.6541 37.8125C27.1678 38.8262 26.2655 39.6289 24.953 40.0039L24.2733 38.8203ZM25.9959 41.4453V40.3086H33.1561V43.1562H27.4842V43.8594H33.4491V45.0078H26.0194V42.0898H31.6678V41.4453H25.9959Z" fill="#279EF9"/>
</g>
<defs>
<filter id="filter0_i_1348_23370" x="0" y="0" width="48" height="52" filterUnits="userSpaceOnUse" color-interpolation-filters="sRGB">
<feFlood flood-opacity="0" result="BackgroundImageFix"/>
<feBlend mode="normal" in="SourceGraphic" in2="BackgroundImageFix" result="shape"/>
<feColorMatrix in="SourceAlpha" type="matrix" values="0 0 0 0 0 0 0 0 0 0 0 0 0 0 0 0 0 0 127 0" result="hardAlpha"/>
<feOffset dy="4"/>
<feGaussianBlur stdDeviation="6"/>
<feComposite in2="hardAlpha" operator="arithmetic" k2="-1" k3="1"/>
<feColorMatrix type="matrix" values="0 0 0 0 1 0 0 0 0 1 0 0 0 0 1 0 0 0 0.2 0"/>
<feBlend mode="normal" in2="shape" result="effect1_innerShadow_1348_23370"/>
</filter>
<linearGradient id="paint0_linear_1348_23370" x1="24" y1="9" x2="24" y2="21" gradientUnits="userSpaceOnUse">
<stop stop-color="#FFF27A"/>
<stop offset="0.5" stop-color="#FFFBD7"/>
<stop offset="1" stop-color="white"/>
</linearGradient>
</defs>
</svg>
