<svg width="48" height="48" viewBox="0 0 48 48" fill="none" xmlns="http://www.w3.org/2000/svg">
<g filter="url(#filter0_i_1348_23375)">
<rect width="48" height="48" rx="4" fill="#E9F5FE"/>
<circle cx="24" cy="15" r="9.5" fill="#F5F6F7" stroke="#2390E3"/>
<path d="M16.6017 40.6484V41.7148H17.7502V40.6484H19.133V43.8887C20.3166 43.3496 20.8205 42.3535 20.8205 41.3867V40.5664H22.3205V41.3867C22.3146 42.4766 22.8361 43.5078 24.172 43.9414L23.3986 45.0547C22.4787 44.7383 21.8869 44.1289 21.547 43.3613C21.1955 44.1055 20.6095 44.7207 19.7423 45.0547L19.133 44.1348V44.9609H15.2189V40.6484H16.6017ZM14.1759 37.3203C14.1642 35.8555 15.3713 34.8184 17.0119 34.8125C18.3654 34.8184 19.4494 35.5684 19.7423 36.6992H21.5353V34.4141H23.0236V40.0625H21.5353V37.9297H19.7482C19.4611 39.084 18.3713 39.8516 17.0119 39.8516C15.3713 39.8516 14.1642 38.8086 14.1759 37.3203ZM15.5939 37.3203C15.588 38.1289 16.174 38.627 17.0119 38.6328C17.8205 38.627 18.4005 38.1289 18.4064 37.3203C18.4005 36.5352 17.8205 36.0488 17.0119 36.043C16.174 36.0488 15.588 36.5352 15.5939 37.3203ZM16.6017 43.8242H17.7502V42.8164H16.6017V43.8242ZM29.0897 34.6133C31.4627 34.6074 32.9627 35.3984 32.9686 36.6992C32.9627 37.9941 31.4627 38.7676 29.0897 38.7617C26.7284 38.7676 25.1991 37.9941 25.1991 36.6992C25.1991 35.3984 26.7284 34.6074 29.0897 34.6133ZM24.2264 40.5781V39.3828H33.953V40.5781H24.2264ZM25.3514 44.9609V41.3281H32.7928V44.9609H25.3514ZM26.7577 36.6992C26.7459 37.2969 27.5955 37.6016 29.0897 37.6016C30.5604 37.6016 31.4217 37.2969 31.4217 36.6992C31.4217 36.084 30.5604 35.7734 29.0897 35.7734C27.5955 35.7734 26.7459 36.084 26.7577 36.6992ZM26.828 43.7656H31.328V42.5117H26.828V43.7656Z" fill="#279EF9"/>
</g>
<defs>
<filter id="filter0_i_1348_23375" x="0" y="0" width="48" height="52" filterUnits="userSpaceOnUse" color-interpolation-filters="sRGB">
<feFlood flood-opacity="0" result="BackgroundImageFix"/>
<feBlend mode="normal" in="SourceGraphic" in2="BackgroundImageFix" result="shape"/>
<feColorMatrix in="SourceAlpha" type="matrix" values="0 0 0 0 0 0 0 0 0 0 0 0 0 0 0 0 0 0 127 0" result="hardAlpha"/>
<feOffset dy="4"/>
<feGaussianBlur stdDeviation="6"/>
<feComposite in2="hardAlpha" operator="arithmetic" k2="-1" k3="1"/>
<feColorMatrix type="matrix" values="0 0 0 0 1 0 0 0 0 1 0 0 0 0 1 0 0 0 0.2 0"/>
<feBlend mode="normal" in2="shape" result="effect1_innerShadow_1348_23375"/>
</filter>
</defs>
</svg>
