<svg width="48" height="48" viewBox="0 0 48 48" fill="none" xmlns="http://www.w3.org/2000/svg">
<circle cx="24" cy="15" r="9.5" fill="#F5F6F7" stroke="#BCBFC1"/>
<path d="M24 9V21M18 15H30" stroke="#BCBFC1" stroke-linecap="round"/>
<path d="M18.424 43.4258V41.1523H16.1623V40.2031H18.424V37.9414H19.3732V40.2031H21.6466V41.1523H19.3732V43.4258H18.424ZM28.8143 35.7031V36.4531H22.9198V35.7031H25.451V34.4492H26.3651V35.7031H28.8143ZM23.5409 38.9141C23.5291 37.7539 24.4901 36.9863 25.8963 36.9922C27.2909 36.9863 28.2694 37.7539 28.2752 38.9141C28.2694 40.0801 27.2909 40.8418 25.8963 40.8477C24.4901 40.8418 23.5291 40.0801 23.5409 38.9141ZM24.3963 38.9141C24.3905 39.6465 24.9881 40.1387 25.8963 40.1328C26.7928 40.1387 27.408 39.6465 27.4198 38.9141C27.408 38.1816 26.7928 37.6953 25.8963 37.6836C24.9881 37.6953 24.3905 38.1816 24.3963 38.9141ZM24.6073 43.1562C24.6073 42.0195 25.9256 41.375 28.1112 41.375C30.285 41.375 31.6034 42.0195 31.6034 43.1562C31.6034 44.2754 30.285 44.9258 28.1112 44.9258C25.9256 44.9258 24.6073 44.2754 24.6073 43.1562ZM25.5565 43.1562C25.5623 43.8184 26.5291 44.2168 28.1112 44.2109C29.6698 44.2168 30.6307 43.8184 30.6307 43.1562C30.6307 42.4766 29.6698 42.0957 28.1112 42.0898C26.5291 42.0957 25.5623 42.4766 25.5565 43.1562ZM28.8026 39.8281V39.0664H30.619V37.8008H28.8143V37.0391H30.619V34.5312H31.5448V41.2695H30.619V39.8281H28.8026Z" fill="#18181B"/>
</svg>
