<svg width="48" height="48" viewBox="0 0 48 48" fill="none" xmlns="http://www.w3.org/2000/svg">
<circle cx="24" cy="15" r="9.5" fill="#F5F6F7" stroke="#BCBFC1"/>
<path d="M18 15H30" stroke="#BCBFC1" stroke-linecap="round"/>
<path d="M20.7619 39.9102V40.8359H17.047V39.9102H20.7619ZM27.6483 35.7031V36.4531H21.7537V35.7031H24.285V34.4492H25.1991V35.7031H27.6483ZM22.3748 38.9141C22.3631 37.7539 23.3241 36.9863 24.7303 36.9922C26.1248 36.9863 27.1034 37.7539 27.1092 38.9141C27.1034 40.0801 26.1248 40.8418 24.7303 40.8477C23.3241 40.8418 22.3631 40.0801 22.3748 38.9141ZM23.2303 38.9141C23.2245 39.6465 23.8221 40.1387 24.7303 40.1328C25.6268 40.1387 26.242 39.6465 26.2537 38.9141C26.242 38.1816 25.6268 37.6953 24.7303 37.6836C23.8221 37.6953 23.2245 38.1816 23.2303 38.9141ZM23.4412 43.1562C23.4412 42.0195 24.7596 41.375 26.9452 41.375C29.119 41.375 30.4373 42.0195 30.4373 43.1562C30.4373 44.2754 29.119 44.9258 26.9452 44.9258C24.7596 44.9258 23.4412 44.2754 23.4412 43.1562ZM24.3905 43.1562C24.3963 43.8184 25.3631 44.2168 26.9452 44.2109C28.5037 44.2168 29.4647 43.8184 29.4647 43.1562C29.4647 42.4766 28.5037 42.0957 26.9452 42.0898C25.3631 42.0957 24.3963 42.4766 24.3905 43.1562ZM27.6366 39.8281V39.0664H29.453V37.8008H27.6483V37.0391H29.453V34.5312H30.3787V41.2695H29.453V39.8281H27.6366Z" fill="#18181B"/>
</svg>
