<svg width="48" height="48" viewBox="0 0 48 48" fill="none" xmlns="http://www.w3.org/2000/svg">
<circle cx="24" cy="15" r="9.5" fill="#F5F6F7" stroke="#BCBFC1"/>
<path d="M14.8869 40.448H15.8229V41.804H17.7189V40.448H18.6429V44.792H14.8869V40.448ZM15.8229 42.548V44.012H17.7189V42.548H15.8229ZM20.7429 40.388H21.5109V41.288C21.5109 42.764 20.7669 44.252 19.2669 44.888L18.7629 44.132C20.0709 43.58 20.7429 42.392 20.7429 41.288V40.388ZM20.9469 40.388H21.7149V41.288C21.7149 42.452 22.3869 43.628 23.6949 44.132L23.1909 44.888C21.6789 44.264 20.9469 42.824 20.9469 41.288V40.388ZM19.0989 36.632H22.0149V37.46H19.0989V36.632ZM16.6029 34.568C18.2229 34.568 19.3989 35.576 19.3989 37.064C19.3989 38.54 18.2229 39.56 16.6029 39.56C14.9829 39.56 13.8069 38.54 13.8069 37.064C13.8069 35.576 14.9829 34.568 16.6029 34.568ZM16.6029 35.396C15.5349 35.396 14.7669 36.08 14.7669 37.064C14.7669 38.036 15.5349 38.732 16.6029 38.732C17.6709 38.732 18.4389 38.036 18.4389 37.064C18.4389 36.08 17.6709 35.396 16.6029 35.396ZM21.5709 34.088H22.5669V39.836H21.5709V34.088ZM29.406 34.328C31.746 34.328 33.222 35.096 33.222 36.38C33.222 37.664 31.746 38.42 29.406 38.42C27.054 38.42 25.59 37.664 25.59 36.38C25.59 35.096 27.054 34.328 29.406 34.328ZM29.406 35.12C27.678 35.12 26.61 35.576 26.61 36.38C26.61 37.172 27.678 37.64 29.406 37.64C31.122 37.64 32.202 37.172 32.202 36.38C32.202 35.576 31.122 35.12 29.406 35.12ZM25.698 41.216H33.102V44.792H25.698V41.216ZM32.13 42.02H26.682V43.988H32.13V42.02ZM24.498 39.356H34.302V40.16H24.498V39.356Z" fill="#18181B"/>
</svg>
