<svg width="48" height="48" viewBox="0 0 48 48" fill="none" xmlns="http://www.w3.org/2000/svg">
<circle cx="24" cy="15" r="9.5" fill="#F5F6F7" stroke="#BCBFC1"/>
<path d="M23.5296 7.77832C23.6885 7.3378 24.3115 7.3378 24.4704 7.77832L25.7093 11.214C25.9178 11.7923 26.4581 12.1848 27.0725 12.2044L30.7229 12.321C31.1909 12.336 31.3834 12.9285 31.0136 13.2157L28.1289 15.4557C27.6433 15.8327 27.437 16.4678 27.6082 17.0582L28.6253 20.566C28.7557 21.0158 28.2517 21.3819 27.8643 21.1189L24.8425 19.0676C24.3339 18.7223 23.6661 18.7223 23.1575 19.0676L20.1357 21.1189C19.7483 21.3819 19.2443 21.0158 19.3747 20.566L20.3918 17.0582C20.563 16.4678 20.3567 15.8327 19.8711 15.4557L16.9864 13.2157C16.6166 12.9285 16.8091 12.336 17.2771 12.321L20.9275 12.2044C21.5419 12.1848 22.0822 11.7923 22.2907 11.214L23.5296 7.77832Z" fill="#F5F6F7" stroke="#BCBFC1"/>
<path d="M21.5469 34.088H22.5429V44.936H21.5469V34.088ZM18.3669 35.252H19.3509C19.3509 38.396 17.9349 41.144 14.3109 42.92L13.7829 42.116C16.9149 40.604 18.3669 38.3 18.3669 35.42V35.252ZM14.2749 35.252H18.7989V36.068H14.2749V35.252ZM24.966 41.504H25.818C27.822 41.504 29.202 41.456 30.834 41.168L30.942 41.984C29.262 42.272 27.846 42.332 25.818 42.332H24.966V41.504ZM24.966 35.072H30.018V35.9H25.962V41.792H24.966V35.072ZM25.71 38.108H29.778V38.912H25.71V38.108ZM31.842 34.088H32.85V44.936H31.842V34.088ZM32.61 38.444H34.626V39.284H32.61V38.444Z" fill="#18181B"/>
</svg>
