<svg width="68" height="11" viewBox="0 0 68 11" fill="none" xmlns="http://www.w3.org/2000/svg">
<path d="M1.83647 10.126C1.50047 10.126 1.25781 10.0747 1.10847 9.972C0.968475 9.86933 0.879808 9.73867 0.842475 9.58C0.805142 9.412 0.786475 9.23467 0.786475 9.048V1.39C0.786475 1.21267 0.805142 1.04933 0.842475 0.899999C0.879808 0.741333 0.973142 0.610666 1.12247 0.508C1.27181 0.405333 1.51914 0.354 1.86447 0.354C2.09781 0.354 2.27514 0.368 2.39647 0.395999C2.51781 0.424 2.60647 0.466 2.66248 0.521999C2.71848 0.568666 2.77914 0.624666 2.84448 0.69L5.99448 4.946H5.78448L8.94847 0.69C9.02314 0.596666 9.09781 0.526667 9.17248 0.48C9.24714 0.433333 9.34048 0.400666 9.45248 0.381999C9.57381 0.363333 9.74181 0.354 9.95648 0.354C10.2925 0.354 10.5351 0.405333 10.6845 0.508C10.8338 0.610666 10.9271 0.745999 10.9645 0.913999C11.0018 1.07267 11.0205 1.24067 11.0205 1.418V9.076C11.0205 9.25333 11.0018 9.42133 10.9645 9.58C10.9271 9.73867 10.8338 9.86933 10.6845 9.972C10.5351 10.0747 10.2878 10.126 9.94248 10.126C9.60648 10.126 9.36381 10.0747 9.21448 9.972C9.06514 9.86933 8.97181 9.734 8.93448 9.566C8.89714 9.398 8.87847 9.22533 8.87847 9.048V4.05L6.79248 7.004C6.75514 7.05067 6.70381 7.116 6.63848 7.2C6.57314 7.27467 6.47981 7.34 6.35848 7.396C6.24648 7.452 6.09248 7.48 5.89647 7.48C5.69114 7.48 5.52781 7.452 5.40648 7.396C5.29448 7.34 5.20581 7.27467 5.14048 7.2C5.07514 7.12533 5.01914 7.06 4.97248 7.004L2.90047 4.064V9.076C2.90047 9.25333 2.88181 9.42133 2.84448 9.58C2.80714 9.73867 2.71381 9.86933 2.56448 9.972C2.42448 10.0747 2.18181 10.126 1.83647 10.126ZM13.5048 10.126C13.1688 10.126 12.9262 10.0793 12.7768 9.986C12.6275 9.88333 12.5342 9.748 12.4968 9.58C12.4688 9.412 12.4548 9.23933 12.4548 9.062V1.404C12.4548 0.993333 12.5342 0.713333 12.6928 0.564C12.8515 0.414666 13.1362 0.339999 13.5468 0.339999H18.8388C19.0255 0.339999 19.1982 0.358666 19.3568 0.395999C19.5155 0.424 19.6462 0.512666 19.7488 0.661999C19.8515 0.811333 19.9028 1.06333 19.9028 1.418C19.9028 1.754 19.8515 1.99667 19.7488 2.146C19.6462 2.29533 19.5108 2.38867 19.3428 2.426C19.1842 2.454 19.0115 2.468 18.8248 2.468H14.5828V4.274H17.4668C17.6535 4.274 17.8168 4.288 17.9568 4.316C18.1062 4.344 18.2228 4.42333 18.3068 4.554C18.3908 4.68467 18.4328 4.904 18.4328 5.212C18.4328 5.50133 18.3908 5.71133 18.3068 5.842C18.2228 5.97267 18.1062 6.052 17.9568 6.08C17.8075 6.108 17.6348 6.122 17.4388 6.122H14.5828V7.998H18.8388C19.0255 7.998 19.1982 8.01667 19.3568 8.054C19.5155 8.09133 19.6462 8.18467 19.7488 8.334C19.8515 8.474 19.9028 8.72133 19.9028 9.076C19.9028 9.412 19.8515 9.65467 19.7488 9.804C19.6462 9.95333 19.5108 10.042 19.3428 10.07C19.1842 10.1073 19.0115 10.126 18.8248 10.126H13.5048ZM22.0497 10.126C21.7231 10.126 21.4851 10.0747 21.3357 9.972C21.1957 9.86933 21.1024 9.73867 21.0557 9.58C21.0091 9.412 20.9857 9.23467 20.9857 9.048V1.39C20.9857 1.21267 21.0044 1.04467 21.0417 0.886C21.0791 0.718 21.1724 0.582666 21.3217 0.48C21.4711 0.377333 21.7184 0.330666 22.0637 0.339999H24.5837C25.2557 0.339999 25.8811 0.461333 26.4597 0.704C27.0384 0.946666 27.5471 1.28733 27.9857 1.726C28.4244 2.16467 28.7651 2.678 29.0077 3.266C29.2504 3.854 29.3717 4.49333 29.3717 5.184C29.3717 5.884 29.2504 6.53733 29.0077 7.144C28.7651 7.74133 28.4244 8.264 27.9857 8.712C27.5471 9.15067 27.0337 9.496 26.4457 9.748C25.8671 10 25.2324 10.126 24.5417 10.126H22.0497ZM23.1137 7.984H24.5837C25.0877 7.984 25.5404 7.86733 25.9417 7.634C26.3431 7.39133 26.6604 7.06467 26.8937 6.654C27.1271 6.24333 27.2437 5.772 27.2437 5.24C27.2437 4.708 27.1271 4.232 26.8937 3.812C26.6604 3.392 26.3431 3.06533 25.9417 2.832C25.5404 2.58933 25.0831 2.468 24.5697 2.468H23.1137V7.984ZM31.5136 10.126C31.1776 10.126 30.935 10.0793 30.7856 9.986C30.6363 9.88333 30.543 9.748 30.5056 9.58C30.4776 9.412 30.4636 9.23933 30.4636 9.062V1.404C30.4636 1.21733 30.4776 1.04467 30.5056 0.886C30.543 0.727333 30.6363 0.596666 30.7856 0.494C30.935 0.391333 31.1823 0.339999 31.5276 0.339999C31.8823 0.339999 32.1296 0.391333 32.2696 0.494C32.419 0.596666 32.5076 0.727333 32.5356 0.886C32.573 1.04467 32.5916 1.222 32.5916 1.418V9.076C32.5916 9.25333 32.573 9.426 32.5356 9.594C32.4983 9.75267 32.405 9.88333 32.2556 9.986C32.1156 10.0793 31.8683 10.126 31.5136 10.126ZM40.8995 10.126C40.5542 10.126 40.3069 10.0747 40.1575 9.972C40.0175 9.86933 39.9289 9.734 39.8915 9.566C39.8542 9.398 39.8355 9.22533 39.8355 9.048V1.404C39.8355 1.21733 39.8542 1.04467 39.8915 0.886C39.9289 0.727333 40.0222 0.596666 40.1715 0.494C40.3209 0.391333 40.5682 0.339999 40.9135 0.339999C41.2589 0.339999 41.5015 0.391333 41.6415 0.494C41.7909 0.596666 41.8795 0.727333 41.9075 0.886C41.9449 1.04467 41.9635 1.222 41.9635 1.418V9.062C41.9635 9.23933 41.9449 9.412 41.9075 9.58C41.8795 9.73867 41.7909 9.86933 41.6415 9.972C41.4922 10.0747 41.2449 10.126 40.8995 10.126ZM34.9635 10.126C34.6182 10.126 34.3709 10.0747 34.2215 9.972C34.0722 9.86933 33.9789 9.734 33.9415 9.566C33.9135 9.398 33.8995 9.22533 33.8995 9.048V1.404C33.8995 1.21733 33.9182 1.04467 33.9555 0.886C33.9929 0.727333 34.0815 0.596666 34.2215 0.494C34.3709 0.391333 34.6229 0.339999 34.9775 0.339999C35.3229 0.339999 35.5655 0.391333 35.7055 0.494C35.8549 0.596666 35.9435 0.727333 35.9715 0.886C36.0089 1.04467 36.0275 1.222 36.0275 1.418V9.062C36.0275 9.23933 36.0089 9.412 35.9715 9.58C35.9435 9.73867 35.8549 9.86933 35.7055 9.972C35.5562 10.0747 35.3089 10.126 34.9635 10.126ZM35.6915 6.122V4.274H40.0595V6.122H35.6915ZM44.4711 10.126C44.1351 10.126 43.8924 10.0793 43.7431 9.986C43.5937 9.88333 43.5004 9.748 43.4631 9.58C43.4351 9.412 43.4211 9.23933 43.4211 9.062V1.404C43.4211 0.993333 43.5004 0.713333 43.6591 0.564C43.8177 0.414666 44.1024 0.339999 44.5131 0.339999H49.8051C49.9917 0.339999 50.1644 0.358666 50.3231 0.395999C50.4817 0.424 50.6124 0.512666 50.7151 0.661999C50.8177 0.811333 50.8691 1.06333 50.8691 1.418C50.8691 1.754 50.8177 1.99667 50.7151 2.146C50.6124 2.29533 50.4771 2.38867 50.3091 2.426C50.1504 2.454 49.9777 2.468 49.7911 2.468H45.5491V4.274H48.4331C48.6197 4.274 48.7831 4.288 48.9231 4.316C49.0724 4.344 49.1891 4.42333 49.2731 4.554C49.3571 4.68467 49.3991 4.904 49.3991 5.212C49.3991 5.50133 49.3571 5.71133 49.2731 5.842C49.1891 5.97267 49.0724 6.052 48.9231 6.08C48.7737 6.108 48.6011 6.122 48.4051 6.122H45.5491V7.998H49.8051C49.9917 7.998 50.1644 8.01667 50.3231 8.054C50.4817 8.09133 50.6124 8.18467 50.7151 8.334C50.8177 8.474 50.8691 8.72133 50.8691 9.076C50.8691 9.412 50.8177 9.65467 50.7151 9.804C50.6124 9.95333 50.4771 10.042 50.3091 10.07C50.1504 10.1073 49.9777 10.126 49.7911 10.126H44.4711ZM53.226 10.126C52.89 10.126 52.6473 10.0793 52.498 9.986C52.3487 9.88333 52.2553 9.748 52.218 9.58C52.1807 9.412 52.162 9.23933 52.162 9.062V1.404C52.162 1.21733 52.176 1.04467 52.204 0.886C52.2413 0.727333 52.3347 0.596666 52.484 0.494C52.6333 0.391333 52.8807 0.339999 53.226 0.339999C53.5807 0.339999 53.828 0.391333 53.968 0.494C54.1173 0.596666 54.206 0.727333 54.234 0.886C54.2713 1.04467 54.29 1.21733 54.29 1.404V8.278H58.126C58.2847 8.278 58.434 8.292 58.574 8.32C58.714 8.348 58.826 8.42733 58.91 8.558C59.0033 8.68867 59.05 8.90333 59.05 9.202C59.05 9.49133 59.0033 9.706 58.91 9.846C58.8167 9.97667 58.7 10.056 58.56 10.084C58.4293 10.112 58.2847 10.126 58.126 10.126H53.226ZM61.156 10.126C60.8107 10.126 60.5633 10.0747 60.414 9.972C60.274 9.86933 60.1853 9.734 60.148 9.566C60.1107 9.398 60.092 9.22533 60.092 9.048V1.404C60.092 1.22667 60.1107 1.05867 60.148 0.899999C60.1853 0.731999 60.2787 0.596666 60.428 0.494C60.5773 0.391333 60.8247 0.339999 61.17 0.339999H64.04C64.432 0.339999 64.824 0.409999 65.216 0.55C65.6173 0.69 65.986 0.909333 66.322 1.208C66.6673 1.49733 66.9427 1.85667 67.148 2.286C67.3627 2.71533 67.47 3.21933 67.47 3.798C67.47 4.36733 67.3627 4.86667 67.148 5.296C66.9427 5.72533 66.6673 6.08467 66.322 6.374C65.986 6.654 65.6173 6.86867 65.216 7.018C64.8147 7.158 64.418 7.228 64.026 7.228H62.234V9.062C62.234 9.23933 62.2153 9.412 62.178 9.58C62.1407 9.73867 62.0473 9.86933 61.898 9.972C61.7487 10.0747 61.5013 10.126 61.156 10.126ZM62.234 5.1H64.04C64.2453 5.1 64.446 5.058 64.642 4.974C64.8473 4.88067 65.0153 4.736 65.146 4.54C65.286 4.344 65.356 4.092 65.356 3.784C65.356 3.52267 65.3 3.294 65.188 3.098C65.076 2.902 64.9173 2.748 64.712 2.636C64.516 2.524 64.2873 2.468 64.026 2.468H62.234V5.1Z" fill="#18181B"/>
</svg>
