<svg width="157" height="61" viewBox="0 0 157 61" fill="none" xmlns="http://www.w3.org/2000/svg">
<path d="M22.1875 2.34375V12.6562H20.7031V7.79688H17.7969V6.5625H20.7031V2.34375H22.1875ZM10.7188 9.90625C13.8359 8.89844 15.9531 7 16.2578 4.625H11.4375V3.39062H17.8906C17.875 7.04688 15.3672 9.79688 11.3438 11.0938L10.7188 9.90625ZM13.1719 16.0312V11.5938H14.6719V14.8281H22.5469V16.0312H13.1719ZM35.3438 2.32812V5.85938H37.375V7.0625H35.3438V10.6406H33.8594V2.32812H35.3438ZM24.3281 9.54688C27.6094 8.625 29.6172 6.79688 29.8906 4.53125H24.9531V3.32812H31.5C31.5 6.94531 29.0391 9.5625 24.9375 10.75L24.3281 9.54688ZM26.2344 13.5469C26.2188 11.8438 28.0625 10.7891 30.875 10.7969C33.6953 10.7891 35.5 11.8438 35.5 13.5469C35.5 15.2656 33.6953 16.3047 30.875 16.3125C28.0625 16.3047 26.2188 15.2656 26.2344 13.5469ZM27.7031 13.5469C27.6953 14.5312 28.9141 15.1328 30.875 15.1406C32.8203 15.1328 34.0469 14.5312 34.0469 13.5469C34.0469 12.5625 32.8203 11.9609 30.875 11.9688C28.9141 11.9609 27.6953 12.5625 27.7031 13.5469ZM49.1719 2.34375V6.84375H51.2031V8.07812H49.1719V12.8125H47.6875V2.34375H49.1719ZM38.1875 5.17188V3.96875H41.625V2.32812H43.1094V3.96875H46.5312V5.17188H38.1875ZM38.9531 8.48438C38.9453 6.88281 40.3281 5.83594 42.3594 5.84375C44.3672 5.83594 45.75 6.88281 45.75 8.48438C45.75 10.0703 44.3672 11.1016 42.3594 11.1094C40.3281 11.1016 38.9453 10.0703 38.9531 8.48438ZM40.2969 16.0312V11.9844H41.7812V14.8281H49.7656V16.0312H40.2969ZM40.3906 8.48438C40.375 9.39844 41.1719 9.96094 42.3594 9.95312C43.5469 9.96094 44.3438 9.39844 44.3594 8.48438C44.3438 7.5625 43.5469 6.99219 42.3594 6.98438C41.1719 6.99219 40.375 7.5625 40.3906 8.48438ZM68.8906 4.375V5.59375H66.9062V7.375H68.8906V8.625H66.9062V10.625H65.4219V2.32812H66.9062V4.375H68.8906ZM56.125 6.48438C56.1094 4.52344 57.7031 3.14062 59.8438 3.14062C61.9922 3.14062 63.5625 4.52344 63.5781 6.48438C63.5625 8.46094 61.9922 9.82812 59.8438 9.82812C57.7031 9.82812 56.1094 8.46094 56.125 6.48438ZM57.5781 6.48438C57.5625 7.74219 58.5312 8.57812 59.8438 8.5625C61.1562 8.57812 62.1172 7.74219 62.125 6.48438C62.1172 5.23438 61.1562 4.41406 59.8438 4.40625C58.5312 4.41406 57.5625 5.23438 57.5781 6.48438ZM57.6562 12.4531V11.25H66.9062V16.3281H65.4219V12.4531H57.6562ZM86.4062 9.46875V10.6719H73.6406V9.46875H79.2812V7.95312H75.3125V2.65625H76.7812V4.17188H83.2656V2.65625H84.75V7.95312H80.75V9.46875H86.4062ZM75.0625 13.1094V11.9219H84.8438V16.3281H83.3438V13.1094H75.0625ZM76.7812 6.76562H83.2656V5.28125H76.7812V6.76562ZM100.234 9.15625V10.3594H87.4688V9.15625H90.5312V7.27344C89.4453 6.83594 88.8359 6.13281 88.8438 5.20312C88.8359 3.53906 90.7656 2.57031 93.8438 2.57812C96.9141 2.57031 98.8359 3.53906 98.8438 5.20312C98.8359 6.13281 98.2266 6.83594 97.1406 7.28125V9.15625H100.234ZM88.9844 13.7969C88.9844 12.1953 90.7969 11.3125 93.8438 11.3125C96.8516 11.3125 98.6641 12.1953 98.6719 13.7969C98.6641 15.4141 96.8516 16.2969 93.8438 16.2969C90.7969 16.2969 88.9844 15.4141 88.9844 13.7969ZM90.375 5.20312C90.3672 6.14062 91.6641 6.66406 93.8438 6.67188C96.0078 6.66406 97.3203 6.14062 97.3125 5.20312C97.3203 4.26562 96.0078 3.72656 93.8438 3.71875C91.6641 3.72656 90.3672 4.26562 90.375 5.20312ZM90.4844 13.7969C90.4766 14.6719 91.7031 15.1719 93.8438 15.1562C95.9531 15.1719 97.1875 14.6719 97.1875 13.7969C97.1875 12.9375 95.9531 12.4531 93.8438 12.4531C91.7031 12.4531 90.4766 12.9375 90.4844 13.7969ZM92.0312 9.15625H95.6719V7.66406C95.125 7.75 94.5078 7.79688 93.8438 7.79688C93.1875 7.79688 92.5781 7.75 92.0312 7.67188V9.15625ZM107.672 2.5625C110.828 2.55469 112.664 3.40625 112.672 4.96875C112.664 6.53906 110.828 7.39062 107.672 7.39062C104.516 7.39062 102.664 6.53906 102.672 4.96875C102.664 3.40625 104.516 2.55469 107.672 2.5625ZM101.297 9.4375V8.25H114.062V9.4375H101.297ZM102.828 11.625V10.5156H112.453V13.7969H104.297V15.0469H112.844V16.1875H102.844V12.7188H110.984V11.625H102.828ZM104.219 4.96875C104.211 5.83594 105.445 6.28125 107.672 6.28125C109.914 6.28125 111.148 5.83594 111.141 4.96875C111.148 4.14062 109.914 3.65625 107.672 3.65625C105.445 3.65625 104.211 4.14062 104.219 4.96875ZM123.625 2.96875C125.734 2.96094 127.258 4.14062 127.266 5.875C127.258 7.59375 125.734 8.78125 123.625 8.76562C121.523 8.78125 120.008 7.59375 120.016 5.875C120.008 4.14062 121.523 2.96094 123.625 2.96875ZM119.016 9.85938C121.602 9.85938 125.172 9.80469 128.234 9.34375L128.344 10.4531C127.062 10.6953 125.742 10.8438 124.453 10.9297V15.8906H122.969V11.0156C121.609 11.0781 120.328 11.0859 119.219 11.0938L119.016 9.85938ZM121.453 5.875C121.438 6.89062 122.352 7.5625 123.625 7.54688C124.93 7.5625 125.844 6.89062 125.844 5.875C125.844 4.85156 124.93 4.16406 123.625 4.17188C122.352 4.16406 121.438 4.85156 121.453 5.875ZM129.203 16.3281V2.34375H130.672V16.3281H129.203ZM139.781 4.64062V5.84375H132.828V4.64062H135.578V2.73438H137.047V4.64062H139.781ZM133.281 9.90625C133.273 8.02344 134.555 6.6875 136.312 6.6875C138.086 6.6875 139.352 8.02344 139.359 9.90625C139.352 11.8203 138.086 13.1641 136.312 13.1562C134.555 13.1641 133.273 11.8203 133.281 9.90625ZM134.594 9.90625C134.586 11.0938 135.305 11.8906 136.312 11.8906C137.32 11.8906 138.047 11.0938 138.047 9.90625C138.047 8.74219 137.32 7.92969 136.312 7.92188C135.305 7.92969 134.586 8.74219 134.594 9.90625ZM140.422 15.6719V2.64062H141.828V8.15625H143.438V2.32812H144.844V16.3281H143.438V9.375H141.828V15.6719H140.422Z" fill="#18181B"/>
<path d="M3.744 52.288C2.976 52.288 2.42133 52.1707 2.08 51.936C1.76 51.7013 1.55733 51.4027 1.472 51.04C1.38667 50.656 1.344 50.2507 1.344 49.824V32.32C1.344 31.9147 1.38667 31.5413 1.472 31.2C1.55733 30.8373 1.77067 30.5387 2.112 30.304C2.45333 30.0693 3.01867 29.952 3.808 29.952C4.34133 29.952 4.74667 29.984 5.024 30.048C5.30133 30.112 5.504 30.208 5.632 30.336C5.76 30.4427 5.89867 30.5707 6.048 30.72L13.248 40.448H12.768L20 30.72C20.1707 30.5067 20.3413 30.3467 20.512 30.24C20.6827 30.1333 20.896 30.0587 21.152 30.016C21.4293 29.9733 21.8133 29.952 22.304 29.952C23.072 29.952 23.6267 30.0693 23.968 30.304C24.3093 30.5387 24.5227 30.848 24.608 31.232C24.6933 31.5947 24.736 31.9787 24.736 32.384V49.888C24.736 50.2933 24.6933 50.6773 24.608 51.04C24.5227 51.4027 24.3093 51.7013 23.968 51.936C23.6267 52.1707 23.0613 52.288 22.272 52.288C21.504 52.288 20.9493 52.1707 20.608 51.936C20.2667 51.7013 20.0533 51.392 19.968 51.008C19.8827 50.624 19.84 50.2293 19.84 49.824V38.4L15.072 45.152C14.9867 45.2587 14.8693 45.408 14.72 45.6C14.5707 45.7707 14.3573 45.92 14.08 46.048C13.824 46.176 13.472 46.24 13.024 46.24C12.5547 46.24 12.1813 46.176 11.904 46.048C11.648 45.92 11.4453 45.7707 11.296 45.6C11.1467 45.4293 11.0187 45.28 10.912 45.152L6.176 38.432V49.888C6.176 50.2933 6.13333 50.6773 6.048 51.04C5.96267 51.4027 5.74933 51.7013 5.408 51.936C5.088 52.1707 4.53333 52.288 3.744 52.288ZM30.7345 52.288C29.9665 52.288 29.4118 52.1813 29.0705 51.968C28.7292 51.7333 28.5158 51.424 28.4305 51.04C28.3665 50.656 28.3345 50.2613 28.3345 49.856V32.352C28.3345 31.4133 28.5158 30.7733 28.8785 30.432C29.2412 30.0907 29.8918 29.92 30.8305 29.92H42.9265C43.3532 29.92 43.7478 29.9627 44.1105 30.048C44.4732 30.112 44.7718 30.3147 45.0065 30.656C45.2412 30.9973 45.3585 31.5733 45.3585 32.384C45.3585 33.152 45.2412 33.7067 45.0065 34.048C44.7718 34.3893 44.4625 34.6027 44.0785 34.688C43.7158 34.752 43.3212 34.784 42.8945 34.784H33.1985V38.912H39.7905C40.2172 38.912 40.5905 38.944 40.9105 39.008C41.2518 39.072 41.5185 39.2533 41.7105 39.552C41.9025 39.8507 41.9985 40.352 41.9985 41.056C41.9985 41.7173 41.9025 42.1973 41.7105 42.496C41.5185 42.7947 41.2518 42.976 40.9105 43.04C40.5692 43.104 40.1745 43.136 39.7265 43.136H33.1985V47.424H42.9265C43.3532 47.424 43.7478 47.4667 44.1105 47.552C44.4732 47.6373 44.7718 47.8507 45.0065 48.192C45.2412 48.512 45.3585 49.0773 45.3585 49.888C45.3585 50.656 45.2412 51.2107 45.0065 51.552C44.7718 51.8933 44.4625 52.096 44.0785 52.16C43.7158 52.2453 43.3212 52.288 42.8945 52.288H30.7345ZM50.5857 52.288C49.8391 52.288 49.2951 52.1707 48.9537 51.936C48.6337 51.7013 48.4204 51.4027 48.3137 51.04C48.2071 50.656 48.1537 50.2507 48.1537 49.824V32.32C48.1537 31.9147 48.1964 31.5307 48.2817 31.168C48.3671 30.784 48.5804 30.4747 48.9217 30.24C49.2631 30.0053 49.8284 29.8987 50.6177 29.92H56.3777C57.9137 29.92 59.3431 30.1973 60.6657 30.752C61.9884 31.3067 63.1511 32.0853 64.1537 33.088C65.1564 34.0907 65.9351 35.264 66.4897 36.608C67.0444 37.952 67.3218 39.4133 67.3218 40.992C67.3218 42.592 67.0444 44.0853 66.4897 45.472C65.9351 46.8373 65.1564 48.032 64.1537 49.056C63.1511 50.0587 61.9777 50.848 60.6337 51.424C59.3111 52 57.8604 52.288 56.2817 52.288H50.5857ZM53.0177 47.392H56.3777C57.5297 47.392 58.5644 47.1253 59.4817 46.592C60.3991 46.0373 61.1244 45.2907 61.6577 44.352C62.1911 43.4133 62.4577 42.336 62.4577 41.12C62.4577 39.904 62.1911 38.816 61.6577 37.856C61.1244 36.896 60.3991 36.1493 59.4817 35.616C58.5644 35.0613 57.5191 34.784 56.3457 34.784H53.0177V47.392ZM72.5375 52.288C71.7695 52.288 71.2148 52.1813 70.8735 51.968C70.5322 51.7333 70.3188 51.424 70.2335 51.04C70.1695 50.656 70.1375 50.2613 70.1375 49.856V32.352C70.1375 31.9253 70.1695 31.5307 70.2335 31.168C70.3188 30.8053 70.5322 30.5067 70.8735 30.272C71.2148 30.0373 71.7802 29.92 72.5695 29.92C73.3802 29.92 73.9455 30.0373 74.2655 30.272C74.6068 30.5067 74.8095 30.8053 74.8735 31.168C74.9588 31.5307 75.0015 31.936 75.0015 32.384V49.888C75.0015 50.2933 74.9588 50.688 74.8735 51.072C74.7882 51.4347 74.5748 51.7333 74.2335 51.968C73.9135 52.1813 73.3482 52.288 72.5375 52.288ZM94.311 52.288C93.5217 52.288 92.9563 52.1707 92.615 51.936C92.295 51.7013 92.0923 51.392 92.007 51.008C91.9217 50.624 91.879 50.2293 91.879 49.824V32.352C91.879 31.9253 91.9217 31.5307 92.007 31.168C92.0923 30.8053 92.3057 30.5067 92.647 30.272C92.9883 30.0373 93.5537 29.92 94.343 29.92C95.1323 29.92 95.687 30.0373 96.007 30.272C96.3483 30.5067 96.551 30.8053 96.615 31.168C96.7003 31.5307 96.743 31.936 96.743 32.384V49.856C96.743 50.2613 96.7003 50.656 96.615 51.04C96.551 51.4027 96.3483 51.7013 96.007 51.936C95.6657 52.1707 95.1003 52.288 94.311 52.288ZM80.743 52.288C79.9537 52.288 79.3883 52.1707 79.047 51.936C78.7057 51.7013 78.4923 51.392 78.407 51.008C78.343 50.624 78.311 50.2293 78.311 49.824V32.352C78.311 31.9253 78.3537 31.5307 78.439 31.168C78.5243 30.8053 78.727 30.5067 79.047 30.272C79.3883 30.0373 79.9643 29.92 80.775 29.92C81.5643 29.92 82.119 30.0373 82.439 30.272C82.7803 30.5067 82.983 30.8053 83.047 31.168C83.1323 31.5307 83.175 31.936 83.175 32.384V49.856C83.175 50.2613 83.1323 50.656 83.047 51.04C82.983 51.4027 82.7803 51.7013 82.439 51.936C82.0977 52.1707 81.5323 52.288 80.743 52.288ZM82.407 43.136V38.912H92.391V43.136H82.407ZM102.794 52.288C102.026 52.288 101.472 52.1813 101.13 51.968C100.789 51.7333 100.576 51.424 100.49 51.04C100.426 50.656 100.394 50.2613 100.394 49.856V32.352C100.394 31.4133 100.576 30.7733 100.938 30.432C101.301 30.0907 101.952 29.92 102.89 29.92H114.986C115.413 29.92 115.808 29.9627 116.17 30.048C116.533 30.112 116.832 30.3147 117.066 30.656C117.301 30.9973 117.418 31.5733 117.418 32.384C117.418 33.152 117.301 33.7067 117.066 34.048C116.832 34.3893 116.522 34.6027 116.138 34.688C115.776 34.752 115.381 34.784 114.954 34.784H105.258V38.912H111.85C112.277 38.912 112.65 38.944 112.97 39.008C113.312 39.072 113.578 39.2533 113.77 39.552C113.962 39.8507 114.058 40.352 114.058 41.056C114.058 41.7173 113.962 42.1973 113.77 42.496C113.578 42.7947 113.312 42.976 112.97 43.04C112.629 43.104 112.234 43.136 111.786 43.136H105.258V47.424H114.986C115.413 47.424 115.808 47.4667 116.17 47.552C116.533 47.6373 116.832 47.8507 117.066 48.192C117.301 48.512 117.418 49.0773 117.418 49.888C117.418 50.656 117.301 51.2107 117.066 51.552C116.832 51.8933 116.522 52.096 116.138 52.16C115.776 52.2453 115.381 52.288 114.954 52.288H102.794ZM123.126 52.288C122.358 52.288 121.803 52.1813 121.462 51.968C121.12 51.7333 120.907 51.424 120.822 51.04C120.736 50.656 120.694 50.2613 120.694 49.856V32.352C120.694 31.9253 120.726 31.5307 120.79 31.168C120.875 30.8053 121.088 30.5067 121.43 30.272C121.771 30.0373 122.336 29.92 123.126 29.92C123.936 29.92 124.502 30.0373 124.822 30.272C125.163 30.5067 125.366 30.8053 125.43 31.168C125.515 31.5307 125.558 31.9253 125.558 32.352V48.064H134.326C134.688 48.064 135.03 48.096 135.35 48.16C135.67 48.224 135.926 48.4053 136.118 48.704C136.331 49.0027 136.438 49.4933 136.438 50.176C136.438 50.8373 136.331 51.328 136.118 51.648C135.904 51.9467 135.638 52.128 135.318 52.192C135.019 52.256 134.688 52.288 134.326 52.288H123.126ZM141.571 52.288C140.782 52.288 140.217 52.1707 139.875 51.936C139.555 51.7013 139.353 51.392 139.267 51.008C139.182 50.624 139.139 50.2293 139.139 49.824V32.352C139.139 31.9467 139.182 31.5627 139.267 31.2C139.353 30.816 139.566 30.5067 139.907 30.272C140.249 30.0373 140.814 29.92 141.603 29.92H148.163C149.059 29.92 149.955 30.08 150.851 30.4C151.769 30.72 152.611 31.2213 153.379 31.904C154.169 32.5653 154.798 33.3867 155.267 34.368C155.758 35.3493 156.003 36.5013 156.003 37.824C156.003 39.1253 155.758 40.2667 155.267 41.248C154.798 42.2293 154.169 43.0507 153.379 43.712C152.611 44.352 151.769 44.8427 150.851 45.184C149.934 45.504 149.027 45.664 148.131 45.664H144.035V49.856C144.035 50.2613 143.993 50.656 143.907 51.04C143.822 51.4027 143.609 51.7013 143.267 51.936C142.926 52.1707 142.361 52.288 141.571 52.288ZM144.035 40.8H148.163C148.633 40.8 149.091 40.704 149.539 40.512C150.009 40.2987 150.393 39.968 150.691 39.52C151.011 39.072 151.171 38.496 151.171 37.792C151.171 37.1947 151.043 36.672 150.787 36.224C150.531 35.776 150.169 35.424 149.699 35.168C149.251 34.912 148.729 34.784 148.131 34.784H144.035V40.8Z" fill="#18181B"/>
</svg>
