<svg width="18" height="18" viewBox="0 0 18 18" fill="none" xmlns="http://www.w3.org/2000/svg">
<path d="M2.03456 17.216C1.45856 17.216 1.04256 17.128 0.786563 16.952C0.546563 16.776 0.394563 16.552 0.330563 16.28C0.266563 15.992 0.234563 15.688 0.234563 15.368V2.24C0.234563 1.936 0.266563 1.656 0.330563 1.4C0.394563 1.128 0.554563 0.903999 0.810562 0.727999C1.06656 0.552 1.49056 0.464 2.08256 0.464C2.48256 0.464 2.78656 0.487999 2.99456 0.535999C3.20256 0.583999 3.35456 0.655999 3.45056 0.751999C3.54656 0.831999 3.65056 0.927999 3.76256 1.04L9.16256 8.336H8.80256L14.2266 1.04C14.3546 0.88 14.4826 0.76 14.6106 0.68C14.7386 0.599999 14.8986 0.543999 15.0906 0.511999C15.2986 0.48 15.5866 0.464 15.9546 0.464C16.5306 0.464 16.9466 0.552 17.2026 0.727999C17.4586 0.903999 17.6186 1.136 17.6826 1.424C17.7466 1.696 17.7786 1.984 17.7786 2.288V15.416C17.7786 15.72 17.7466 16.008 17.6826 16.28C17.6186 16.552 17.4586 16.776 17.2026 16.952C16.9466 17.128 16.5226 17.216 15.9306 17.216C15.3546 17.216 14.9386 17.128 14.6826 16.952C14.4266 16.776 14.2666 16.544 14.2026 16.256C14.1386 15.968 14.1066 15.672 14.1066 15.368V6.8L10.5306 11.864C10.4666 11.944 10.3786 12.056 10.2666 12.2C10.1546 12.328 9.99456 12.44 9.78656 12.536C9.59456 12.632 9.33056 12.68 8.99456 12.68C8.64256 12.68 8.36256 12.632 8.15456 12.536C7.96256 12.44 7.81056 12.328 7.69856 12.2C7.58656 12.072 7.49056 11.96 7.41056 11.864L3.85856 6.824V15.416C3.85856 15.72 3.82656 16.008 3.76256 16.28C3.69856 16.552 3.53856 16.776 3.28256 16.952C3.04256 17.128 2.62656 17.216 2.03456 17.216Z" fill="#18181B"/>
</svg>
