<svg width="100%" height="645" viewBox="0 0 1280 645" fill="none" xmlns="http://www.w3.org/2000/svg">
<rect width="1280" height="645" fill="#279EF9"/>
<path d="M191.625 93.9375V135.5H183.688V116.938H173.5V110.375H183.688V93.9375H191.625ZM144.438 123.5C156.219 119.812 163.844 113 165.312 104.625H147.375V98.125H174C174 113.375 164.312 124.656 147.688 129.812L144.438 123.5ZM154.125 149.75V131.312H162.25V143.375H193.062V149.75H154.125ZM244.125 93.875V107.25H251.812V113.75H244.125V126.875H236.125V93.875H244.125ZM198.625 121.688C211.156 118.375 218.312 111.875 219.562 104H201.312V97.625H228.25C228.281 112.781 218.75 123.406 201.812 128.125L198.625 121.688ZM206.312 139.188C206.25 132.062 214 127.562 225.562 127.562C237.156 127.562 244.719 132.062 244.75 139.188C244.719 146.375 237.156 150.812 225.562 150.812C214 150.812 206.25 146.375 206.312 139.188ZM214.188 139.188C214.156 142.625 218.406 144.594 225.562 144.562C232.625 144.594 236.875 142.625 236.875 139.188C236.875 135.688 232.625 133.75 225.562 133.75C218.406 133.75 214.156 135.688 214.188 139.188ZM299.438 93.9375V111.375H307.125V117.875H299.438V136.375H291.438V93.9375H299.438ZM254.312 106.188V99.875H267.25V93.8125H275.188V99.875H288.062V106.188H254.312ZM257.062 119.188C257.062 112.594 262.906 108.188 271.188 108.188C279.438 108.188 285.188 112.594 285.188 119.188C285.188 125.75 279.438 130.062 271.188 130.062C262.906 130.062 257.062 125.75 257.062 119.188ZM262.562 149.75V133.125H270.5V143.375H301.5V149.75H262.562ZM264.875 119.188C264.844 122.312 267.375 124 271.188 124C275.031 124 277.625 122.312 277.625 119.188C277.625 116.031 275.031 114.281 271.188 114.25C267.375 114.281 264.844 116.031 264.875 119.188ZM376.25 122.062V128.5H324.375V122.062H346.25V117.25H331V95.25H338.875V100.438H361.688V95.25H369.625V117.25H354.25V122.062H376.25ZM330.125 138.688V132.375H369.938V150.75H362V138.688H330.125ZM338.875 111H361.688V106.312H338.875V111ZM432.188 101.375V107.812H424.812V113.625H432.188V120.25H424.812V127.438H416.812V93.875H424.812V101.375H432.188ZM380.062 110.812C380.031 102.781 386.781 96.9688 395.688 97C404.5 96.9688 411.188 102.781 411.188 110.812C411.188 119.031 404.5 124.781 395.688 124.75C386.781 124.781 380.031 119.031 380.062 110.812ZM386.5 136.125V129.688H424.812V150.75H416.812V136.125H386.5ZM387.938 110.812C387.875 115.406 391.219 118.031 395.688 118C400.062 118.031 403.406 115.406 403.438 110.812C403.406 106.375 400.062 103.781 395.688 103.812C391.219 103.781 387.875 106.375 387.938 110.812ZM195.688 208.688V215.188H173.438V233.812H165.562V215.188H143.625V208.688H195.688ZM148.875 191.688C148.844 183.781 157.281 178.781 169.5 178.75C181.719 178.781 190.25 183.781 190.25 191.688C190.25 199.406 181.719 204.375 169.5 204.375C157.281 204.375 148.844 199.406 148.875 191.688ZM157.062 191.688C157.031 195.75 161.875 198.031 169.5 198.062C177.188 198.031 182 195.75 182 191.688C182 187.469 177.188 185.156 169.5 185.125C161.875 185.156 157.031 187.469 157.062 191.688ZM246.688 176.875V233.875H238.75V176.875H246.688ZM202 188.062V181.625H229.062V203.562H210.312V214C219 213.938 226.344 213.5 234.688 212.125L235.375 218.562C226.031 220.219 217.562 220.562 207.188 220.562H202.062V197.25H220.938V188.062H202ZM271.25 180.25C280.031 180.281 286.812 186.031 286.875 194.188C286.812 201.062 282.031 206.219 275.312 207.688V215.469C279.781 215.25 284.281 214.875 288.5 214.312L289.062 220.188C277.156 222.469 264.344 222.438 254.688 222.312L253.625 215.875C257.75 215.875 262.438 215.875 267.375 215.75V207.75C260.438 206.344 255.625 201.156 255.625 194.188C255.625 186.031 262.281 180.281 271.25 180.25ZM263.438 194.188C263.406 198.656 266.75 201.375 271.25 201.375C275.656 201.375 279 198.656 279 194.188C279 189.656 275.656 187.031 271.25 187C266.75 187.031 263.406 189.656 263.438 194.188ZM291.5 233.75V176.875H299.5V199.188H307.25V205.875H299.5V233.75H291.5ZM369.5 176.875V190.875H377.188V197.562H369.5V211.188H361.5V176.875H369.5ZM324.375 188.312V182H337.312V176.562H345.25V182H358.125V188.312H324.375ZM327.125 200.25C327.125 194.25 332.875 190.062 341.25 190.062C349.531 190.062 355.25 194.25 355.25 200.25C355.25 206.406 349.531 210.531 341.25 210.562C332.875 210.531 327.125 206.406 327.125 200.25ZM332.312 233.125V213.688H369.5V233.125H332.312ZM334.938 200.25C334.906 203.156 337.438 204.656 341.25 204.688C345.094 204.656 347.688 203.156 347.688 200.25C347.688 197.531 345.094 196.031 341.25 196.062C337.438 196.031 334.906 197.531 334.938 200.25ZM340.188 226.75H361.625V219.938H340.188V226.75ZM393.688 183.375C393.625 197.594 392.25 210.312 385 221.562L378.812 218.312C384.656 209.469 386.406 200.812 386.781 189.812H380.688V183.375H393.688ZM391.688 221.062C398.062 211.375 399.344 201.344 399.625 189.812H395.312V183.375H406.438C406.438 188.375 406.312 193.344 405.875 198.188H410.75V178.125H418.25V231.25H410.75V204.625H405.062C403.875 211.594 401.719 218.281 397.75 224.438L391.688 221.062ZM421.812 233.75V176.875H429.438V233.75H421.812ZM462.438 185.562V191.875H434.938V185.562H444.812V178.438H452.688V185.562H462.438ZM436.25 207.938C436.25 200.031 441.562 194.469 448.812 194.438C456.094 194.469 461.281 200.031 461.312 207.938C461.281 215.875 456.094 221.5 448.812 221.5C441.562 221.5 436.25 215.875 436.25 207.938ZM443.25 207.938C443.25 212.281 445.5 214.75 448.812 214.75C452 214.75 454.281 212.281 454.312 207.938C454.281 203.656 452 201.062 448.812 201.062C445.5 201.062 443.25 203.656 443.25 207.938ZM464.562 231.312V178H472V200H476.625V176.875H484.188V233.75H476.625V206.375H472V231.312H464.562ZM542.375 220.562V227.125H490.312V220.562H501.938V206.625C497.531 203.969 494.875 199.938 494.875 194.938C494.875 185.719 503.875 179.656 516.25 179.625C528.562 179.656 537.656 185.719 537.688 194.938C537.656 199.844 535.094 203.812 530.812 206.469V220.562H542.375ZM502.75 194.938C502.75 200.5 508.094 203.938 516.25 203.938C524.281 203.938 529.781 200.5 529.812 194.938C529.781 189.219 524.281 185.906 516.25 185.938C508.094 185.906 502.75 189.219 502.75 194.938ZM509.812 220.562H522.75V209.5C520.719 209.906 518.531 210.125 516.25 210.125C513.969 210.125 511.812 209.906 509.812 209.531V220.562Z" fill="#F5F6F7"/>
<path d="M1206.68 161.866C1206.68 161.867 1206.67 161.872 1206.65 161.882C1206.67 161.871 1206.68 161.866 1206.68 161.866ZM1205.58 160.426C1205.94 161.195 1206.11 161.732 1206.18 162.082C1205.84 162.19 1205.29 162.315 1204.45 162.393C1202.02 162.617 1198.4 162.295 1193.66 161.172C1184.26 158.945 1171.96 153.927 1159.13 146.518C1146.3 139.109 1135.8 130.963 1129.17 123.943C1125.83 120.401 1123.74 117.421 1122.72 115.206C1122.37 114.437 1122.2 113.9 1122.12 113.55C1122.46 113.442 1123.01 113.318 1123.86 113.24C1126.28 113.015 1129.91 113.338 1134.65 114.461C1144.04 116.687 1156.34 121.706 1169.18 129.114C1182.01 136.523 1192.51 144.669 1199.13 151.69C1202.47 155.232 1204.57 158.211 1205.58 160.426ZM1122.06 113.015C1122.06 113.015 1122.06 113.024 1122.06 113.041C1122.06 113.023 1122.06 113.015 1122.06 113.015ZM1121.63 113.766C1121.63 113.766 1121.64 113.76 1121.65 113.75C1121.64 113.761 1121.63 113.766 1121.63 113.766ZM1206.25 162.591C1206.24 162.609 1206.24 162.618 1206.24 162.618C1206.24 162.617 1206.24 162.608 1206.25 162.591Z" stroke="#2390E3" stroke-width="13"/>
<rect x="1165.33" y="73.3525" width="61.6793" height="112.828" rx="30.8396" transform="rotate(30 1165.33 73.3525)" fill="#52B1FA"/>
<rect x="761.364" y="44.6509" width="31.2567" height="29.5014" rx="14.7507" transform="rotate(-16.0679 761.364 44.6509)" fill="#52B1FA"/>
<path d="M1208.42 162.11C1201.65 167.752 1183.57 161.383 1158.77 147.067C1133.98 132.751 1120.79 123.373 1120.79 112.466" stroke="#2390E3" stroke-width="13" stroke-linecap="round"/>
<path d="M795.992 47.2681C796.158 51.5821 790.489 55.0729 781.124 57.7704C771.758 60.4679 766.274 61.2424 763.166 57.1565" stroke="#2390E3" stroke-width="5" stroke-linecap="round"/>
<circle cx="570.002" cy="81.002" r="6.40163" transform="rotate(51.1034 570.002 81.002)" fill="url(#paint0_radial_1277_15375)"/>
<rect x="574.575" y="76.4741" width="1.30645" height="12.8033" transform="rotate(51.1034 574.575 76.4741)" fill="#EC8D64"/>
<circle cx="1177" cy="269.002" r="6.40163" transform="rotate(-173.897 1177 269.002)" fill="url(#paint1_radial_1277_15375)"/>
<rect x="1176.97" y="275.437" width="1.30645" height="12.8033" transform="rotate(-173.897 1176.97 275.437)" fill="#EC8D64"/>
<path d="M794.1 221.671C795.173 221.724 796.246 221.565 797.257 221.203C798.269 220.841 799.199 220.284 799.995 219.562C800.79 218.841 801.436 217.97 801.896 216.999C802.355 216.028 802.618 214.976 802.671 213.903C802.724 212.83 802.565 211.757 802.203 210.746C801.841 209.735 801.283 208.805 800.562 208.009C799.841 207.213 798.97 206.567 797.998 206.108C797.027 205.648 795.975 205.385 794.903 205.332L794.501 213.502L794.1 221.671Z" fill="url(#paint2_radial_1277_15375)"/>
<path d="M421.354 424.788C420.595 424.028 419.693 423.425 418.701 423.014C417.708 422.603 416.645 422.392 415.571 422.392C414.497 422.392 413.433 422.603 412.441 423.014C411.448 423.425 410.546 424.028 409.787 424.788C409.027 425.547 408.425 426.449 408.014 427.441C407.603 428.434 407.391 429.497 407.391 430.571C407.391 431.645 407.603 432.709 408.014 433.701C408.425 434.694 409.027 435.596 409.787 436.355L415.571 430.571L421.354 424.788Z" fill="url(#paint3_radial_1277_15375)"/>
<rect x="940.53" y="111.374" width="6.28571" height="11" rx="3.14286" transform="rotate(15 940.53 111.374)" fill="#FFE03D"/>
<rect x="939.31" y="115.928" width="6.28571" height="1.04762" transform="rotate(15 939.31 115.928)" fill="#FF9F5A"/>
<rect x="612" y="195.143" width="6.28571" height="11" rx="3.14286" transform="rotate(-30 612 195.143)" fill="#FFE03D"/>
<rect x="614.357" y="199.226" width="6.28571" height="1.04762" transform="rotate(-30 614.357 199.226)" fill="#FF9F5A"/>
<rect x="273" y="369.144" width="6.28571" height="11" rx="3.14286" transform="rotate(-30 273 369.144)" fill="#FFE03D"/>
<rect x="275.357" y="373.226" width="6.28571" height="1.04762" transform="rotate(-30 275.357 373.226)" fill="#FF9F5A"/>
<defs>
<radialGradient id="paint0_radial_1277_15375" cx="0" cy="0" r="1" gradientUnits="userSpaceOnUse" gradientTransform="translate(570.002 81.002) rotate(90) scale(6.40163)">
<stop stop-color="#FFCA43"/>
<stop offset="1" stop-color="#FFAF65"/>
</radialGradient>
<radialGradient id="paint1_radial_1277_15375" cx="0" cy="0" r="1" gradientUnits="userSpaceOnUse" gradientTransform="translate(1177 269.002) rotate(90) scale(6.40163)">
<stop stop-color="#FFCA43"/>
<stop offset="1" stop-color="#FFAF65"/>
</radialGradient>
<radialGradient id="paint2_radial_1277_15375" cx="0" cy="0" r="1" gradientUnits="userSpaceOnUse" gradientTransform="translate(794.501 213.502) rotate(-177.189) scale(8.17947)">
<stop stop-color="#FFF1CD"/>
<stop offset="1" stop-color="#78FFA6"/>
</radialGradient>
<radialGradient id="paint3_radial_1277_15375" cx="0" cy="0" r="1" gradientUnits="userSpaceOnUse" gradientTransform="translate(415.571 430.571) rotate(45) scale(8.17947)">
<stop stop-color="#FFF1CD"/>
<stop offset="1" stop-color="#78FFA6"/>
</radialGradient>
</defs>
</svg>
