<svg width="115" height="18" viewBox="0 0 115 18" fill="none" xmlns="http://www.w3.org/2000/svg">
<path d="M1.808 17.716C1.232 17.716 0.816 17.628 0.56 17.452C0.32 17.276 0.168 17.052 0.104 16.78C0.0400001 16.492 0.00800008 16.188 0.00800008 15.868V2.74C0.00800008 2.436 0.0400001 2.156 0.104 1.9C0.168 1.628 0.328 1.404 0.584 1.228C0.84 1.052 1.264 0.964 1.856 0.964C2.256 0.964 2.56 0.987999 2.768 1.036C2.976 1.084 3.128 1.156 3.224 1.252C3.32 1.332 3.424 1.428 3.536 1.54L8.936 8.836H8.576L14 1.54C14.128 1.38 14.256 1.26 14.384 1.18C14.512 1.1 14.672 1.044 14.864 1.012C15.072 0.98 15.36 0.964 15.728 0.964C16.304 0.964 16.72 1.052 16.976 1.228C17.232 1.404 17.392 1.636 17.456 1.924C17.52 2.196 17.552 2.484 17.552 2.788V15.916C17.552 16.22 17.52 16.508 17.456 16.78C17.392 17.052 17.232 17.276 16.976 17.452C16.72 17.628 16.296 17.716 15.704 17.716C15.128 17.716 14.712 17.628 14.456 17.452C14.2 17.276 14.04 17.044 13.976 16.756C13.912 16.468 13.88 16.172 13.88 15.868V7.3L10.304 12.364C10.24 12.444 10.152 12.556 10.04 12.7C9.928 12.828 9.768 12.94 9.56 13.036C9.368 13.132 9.104 13.18 8.768 13.18C8.416 13.18 8.136 13.132 7.928 13.036C7.736 12.94 7.584 12.828 7.472 12.7C7.36 12.572 7.264 12.46 7.184 12.364L3.632 7.324V15.916C3.632 16.22 3.6 16.508 3.536 16.78C3.472 17.052 3.312 17.276 3.056 17.452C2.816 17.628 2.4 17.716 1.808 17.716ZM21.8109 17.716C21.2349 17.716 20.8189 17.636 20.5629 17.476C20.3069 17.3 20.1469 17.068 20.0829 16.78C20.0349 16.492 20.0109 16.196 20.0109 15.892V2.764C20.0109 2.06 20.1469 1.58 20.4189 1.324C20.6909 1.068 21.1789 0.939999 21.8829 0.939999H30.9549C31.2749 0.939999 31.5709 0.971999 31.8429 1.036C32.1149 1.084 32.3389 1.236 32.5149 1.492C32.6909 1.748 32.7789 2.18 32.7789 2.788C32.7789 3.364 32.6909 3.78 32.5149 4.036C32.3389 4.292 32.1069 4.452 31.8189 4.516C31.5469 4.564 31.2509 4.588 30.9309 4.588H23.6589V7.684H28.6029C28.9229 7.684 29.2029 7.708 29.4429 7.756C29.6989 7.804 29.8989 7.94 30.0429 8.164C30.1869 8.388 30.2589 8.764 30.2589 9.292C30.2589 9.788 30.1869 10.148 30.0429 10.372C29.8989 10.596 29.6989 10.732 29.4429 10.78C29.1869 10.828 28.8909 10.852 28.5549 10.852H23.6589V14.068H30.9549C31.2749 14.068 31.5709 14.1 31.8429 14.164C32.1149 14.228 32.3389 14.388 32.5149 14.644C32.6909 14.884 32.7789 15.308 32.7789 15.916C32.7789 16.492 32.6909 16.908 32.5149 17.164C32.3389 17.42 32.1069 17.572 31.8189 17.62C31.5469 17.684 31.2509 17.716 30.9309 17.716H21.8109ZM36.4593 17.716C35.8993 17.716 35.4913 17.628 35.2353 17.452C34.9953 17.276 34.8353 17.052 34.7553 16.78C34.6753 16.492 34.6353 16.188 34.6353 15.868V2.74C34.6353 2.436 34.6673 2.148 34.7313 1.876C34.7953 1.588 34.9553 1.356 35.2113 1.18C35.4673 1.004 35.8913 0.923999 36.4833 0.939999H40.8033C41.9553 0.939999 43.0273 1.148 44.0193 1.564C45.0113 1.98 45.8833 2.564 46.6353 3.316C47.3873 4.068 47.9713 4.948 48.3873 5.956C48.8033 6.964 49.0113 8.06 49.0113 9.244C49.0113 10.444 48.8033 11.564 48.3873 12.604C47.9713 13.628 47.3873 14.524 46.6353 15.292C45.8833 16.044 45.0033 16.636 43.9953 17.068C43.0033 17.5 41.9153 17.716 40.7313 17.716H36.4593ZM38.2833 14.044H40.8033C41.6673 14.044 42.4433 13.844 43.1313 13.444C43.8193 13.028 44.3633 12.468 44.7633 11.764C45.1633 11.06 45.3633 10.252 45.3633 9.34C45.3633 8.428 45.1633 7.612 44.7633 6.892C44.3633 6.172 43.8193 5.612 43.1313 5.212C42.4433 4.796 41.6593 4.588 40.7793 4.588H38.2833V14.044ZM52.6831 17.716C52.1071 17.716 51.6911 17.636 51.4351 17.476C51.1791 17.3 51.0191 17.068 50.9551 16.78C50.9071 16.492 50.8831 16.196 50.8831 15.892V2.764C50.8831 2.444 50.9071 2.148 50.9551 1.876C51.0191 1.604 51.1791 1.38 51.4351 1.204C51.6911 1.028 52.1151 0.939999 52.7071 0.939999C53.3151 0.939999 53.7391 1.028 53.9791 1.204C54.2351 1.38 54.3871 1.604 54.4351 1.876C54.4991 2.148 54.5311 2.452 54.5311 2.788V15.916C54.5311 16.22 54.4991 16.516 54.4351 16.804C54.3711 17.076 54.2111 17.3 53.9551 17.476C53.7151 17.636 53.2911 17.716 52.6831 17.716ZM68.7733 17.716C68.1813 17.716 67.7572 17.628 67.5012 17.452C67.2612 17.276 67.1092 17.044 67.0452 16.756C66.9812 16.468 66.9492 16.172 66.9492 15.868V2.764C66.9492 2.444 66.9812 2.148 67.0452 1.876C67.1092 1.604 67.2692 1.38 67.5252 1.204C67.7812 1.028 68.2052 0.939999 68.7972 0.939999C69.3892 0.939999 69.8052 1.028 70.0452 1.204C70.3012 1.38 70.4532 1.604 70.5012 1.876C70.5652 2.148 70.5972 2.452 70.5972 2.788V15.892C70.5972 16.196 70.5652 16.492 70.5012 16.78C70.4532 17.052 70.3012 17.276 70.0452 17.452C69.7892 17.628 69.3653 17.716 68.7733 17.716ZM58.5972 17.716C58.0052 17.716 57.5812 17.628 57.3252 17.452C57.0692 17.276 56.9092 17.044 56.8452 16.756C56.7972 16.468 56.7732 16.172 56.7732 15.868V2.764C56.7732 2.444 56.8052 2.148 56.8692 1.876C56.9332 1.604 57.0852 1.38 57.3252 1.204C57.5812 1.028 58.0132 0.939999 58.6212 0.939999C59.2132 0.939999 59.6292 1.028 59.8692 1.204C60.1252 1.38 60.2772 1.604 60.3252 1.876C60.3892 2.148 60.4212 2.452 60.4212 2.788V15.892C60.4212 16.196 60.3892 16.492 60.3252 16.78C60.2772 17.052 60.1252 17.276 59.8692 17.452C59.6132 17.628 59.1892 17.716 58.5972 17.716ZM59.8452 10.852V7.684H67.3332V10.852H59.8452ZM74.8959 17.716C74.3199 17.716 73.9039 17.636 73.6479 17.476C73.3919 17.3 73.2319 17.068 73.1679 16.78C73.1199 16.492 73.0959 16.196 73.0959 15.892V2.764C73.0959 2.06 73.2319 1.58 73.5039 1.324C73.7759 1.068 74.2639 0.939999 74.9679 0.939999H84.0399C84.3599 0.939999 84.6559 0.971999 84.9279 1.036C85.1999 1.084 85.4239 1.236 85.5999 1.492C85.7759 1.748 85.8639 2.18 85.8639 2.788C85.8639 3.364 85.7759 3.78 85.5999 4.036C85.4239 4.292 85.1919 4.452 84.9039 4.516C84.6319 4.564 84.3359 4.588 84.0159 4.588H76.7439V7.684H81.6879C82.0079 7.684 82.2879 7.708 82.5279 7.756C82.7839 7.804 82.9839 7.94 83.1279 8.164C83.2719 8.388 83.3439 8.764 83.3439 9.292C83.3439 9.788 83.2719 10.148 83.1279 10.372C82.9839 10.596 82.7839 10.732 82.5279 10.78C82.2719 10.828 81.9759 10.852 81.6399 10.852H76.7439V14.068H84.0399C84.3599 14.068 84.6559 14.1 84.9279 14.164C85.1999 14.228 85.4239 14.388 85.5999 14.644C85.7759 14.884 85.8639 15.308 85.8639 15.916C85.8639 16.492 85.7759 16.908 85.5999 17.164C85.4239 17.42 85.1919 17.572 84.9039 17.62C84.6319 17.684 84.3359 17.716 84.0159 17.716H74.8959ZM89.9043 17.716C89.3283 17.716 88.9123 17.636 88.6563 17.476C88.4003 17.3 88.2403 17.068 88.1763 16.78C88.1123 16.492 88.0803 16.196 88.0803 15.892V2.764C88.0803 2.444 88.1043 2.148 88.1523 1.876C88.2163 1.604 88.3763 1.38 88.6323 1.204C88.8883 1.028 89.3123 0.939999 89.9043 0.939999C90.5123 0.939999 90.9363 1.028 91.1763 1.204C91.4323 1.38 91.5843 1.604 91.6323 1.876C91.6963 2.148 91.7283 2.444 91.7283 2.764V14.548H98.3043C98.5763 14.548 98.8323 14.572 99.0723 14.62C99.3123 14.668 99.5043 14.804 99.6483 15.028C99.8083 15.252 99.8883 15.62 99.8883 16.132C99.8883 16.628 99.8083 16.996 99.6483 17.236C99.4883 17.46 99.2883 17.596 99.0483 17.644C98.8243 17.692 98.5763 17.716 98.3043 17.716H89.9043ZM103.499 17.716C102.907 17.716 102.483 17.628 102.227 17.452C101.987 17.276 101.835 17.044 101.771 16.756C101.707 16.468 101.675 16.172 101.675 15.868V2.764C101.675 2.46 101.707 2.172 101.771 1.9C101.835 1.612 101.995 1.38 102.251 1.204C102.507 1.028 102.931 0.939999 103.523 0.939999H108.443C109.115 0.939999 109.787 1.06 110.459 1.3C111.147 1.54 111.779 1.916 112.355 2.428C112.947 2.924 113.419 3.54 113.771 4.276C114.139 5.012 114.323 5.876 114.323 6.868C114.323 7.844 114.139 8.7 113.771 9.436C113.419 10.172 112.947 10.788 112.355 11.284C111.779 11.764 111.147 12.132 110.459 12.388C109.771 12.628 109.091 12.748 108.419 12.748H105.347V15.892C105.347 16.196 105.315 16.492 105.251 16.78C105.187 17.052 105.027 17.276 104.771 17.452C104.515 17.628 104.091 17.716 103.499 17.716ZM105.347 9.1H108.443C108.795 9.1 109.139 9.028 109.475 8.884C109.827 8.724 110.115 8.476 110.339 8.14C110.579 7.804 110.699 7.372 110.699 6.844C110.699 6.396 110.603 6.004 110.411 5.668C110.219 5.332 109.947 5.068 109.595 4.876C109.259 4.684 108.867 4.588 108.419 4.588H105.347V9.1Z" fill="#279EF9"/>
</svg>
