<svg width="937" height="143" viewBox="0 0 937 143" fill="none" xmlns="http://www.w3.org/2000/svg">
<path d="M15.2615 140.561C10.4722 140.561 7.02985 139.813 4.88465 138.365C2.73945 136.918 1.44235 135.021 0.993357 132.675C0.544361 130.329 0.294922 127.833 0.294922 125.188V16.1765C0.294922 13.6309 0.544361 11.235 0.993357 8.98892C1.44235 6.7428 2.73945 4.8461 4.88465 3.39861C7.02985 1.95111 10.6218 1.20239 15.6606 1.20239C19.0031 1.20239 21.4975 1.40206 23.2436 1.80137C24.9897 2.20068 26.2369 2.74971 27.0351 3.49842C27.8333 4.24712 28.6814 5.04574 29.6293 5.9941L74.5289 66.6892H71.5356L116.635 5.9941C117.682 4.79617 118.78 3.84783 119.828 3.19895C120.875 2.55007 122.272 2.05092 123.918 1.70152C125.565 1.35213 127.959 1.20239 131.003 1.20239C135.792 1.20239 139.234 1.95111 141.379 3.39861C143.525 4.8461 144.822 6.74282 145.371 9.08877C145.919 11.4347 146.169 13.9304 146.169 16.5758V125.587C146.169 128.133 145.919 130.529 145.371 132.775C144.822 135.021 143.525 136.918 141.379 138.365C139.234 139.813 135.742 140.561 130.803 140.561C125.864 140.561 122.572 139.813 120.426 138.365C118.281 136.918 116.984 134.971 116.435 132.575C115.886 130.179 115.637 127.734 115.637 125.188V54.1109L85.9035 96.2381C85.3547 96.7871 84.6563 97.5857 83.7084 98.7337C82.7605 99.8818 81.4634 100.88 79.8171 101.729C78.1708 102.577 75.8759 103.026 72.9325 103.026C69.9891 103.026 67.8938 102.577 66.1477 101.729C64.4016 100.88 63.1045 99.8818 62.2564 98.8336C61.4083 97.7854 60.6101 96.837 59.9615 96.0384L30.4275 54.1109V125.587C30.4275 128.133 30.1781 130.529 29.6293 132.775C29.0805 135.021 27.7834 136.918 25.738 138.365C23.6926 139.813 20.2004 140.561 15.2615 140.561Z" fill="#279EF9"/>
<path d="M257.569 83.4103H175.154C169.267 83.4103 164.527 78.6685 164.527 72.7787V67.6875C164.527 61.7977 169.267 57.0559 175.154 57.0559H257.569C263.456 57.0559 268.196 61.7977 268.196 67.6875V72.7787C268.196 78.6685 263.456 83.4103 257.569 83.4103ZM257.569 140.512H175.154C169.267 140.512 164.527 135.77 164.527 129.88V124.789C164.527 118.899 169.267 114.157 175.154 114.157H257.569C263.456 114.157 268.196 118.899 268.196 124.789V129.88C268.196 135.77 263.456 140.512 257.569 140.512ZM257.569 27.7565H175.154C169.267 27.7565 164.527 23.0147 164.527 17.1249V12.0337C164.527 6.14389 169.267 1.4021 175.154 1.4021H257.569C263.456 1.4021 268.196 6.14389 268.196 12.0337V17.1249C268.196 23.0147 263.456 27.7565 257.569 27.7565Z" fill="#279EF9"/>
<path d="M299.226 140.561C294.586 140.561 291.194 139.813 289.048 138.365C286.903 136.918 285.556 135.021 284.958 132.675C284.359 130.329 284.06 127.834 284.06 125.188V15.9769C284.06 13.4313 284.309 11.0355 284.858 8.68951C285.407 6.34357 286.704 4.44685 288.849 2.99935C290.994 1.55186 294.486 0.853057 299.425 1.0028H335.345C344.923 1.0028 353.854 2.74978 362.085 6.19383C370.317 9.63787 377.6 14.5294 383.836 20.7686C390.073 27.0078 394.962 34.3451 398.404 42.7306C401.846 51.1161 403.592 60.2504 403.592 70.0834C403.592 79.9164 401.846 89.35 398.304 97.9352C394.762 106.52 389.923 113.957 383.737 120.297C377.55 126.636 370.317 131.577 361.985 135.171C353.654 138.765 344.574 140.561 334.746 140.561H299.226ZM314.392 110.014H335.345C342.529 110.014 348.964 108.317 354.702 104.923C360.439 101.529 364.929 96.887 368.171 91.0471C371.414 85.2072 373.061 78.4688 373.061 70.882C373.061 63.2951 371.414 56.5068 368.171 50.5172C364.929 44.5275 360.439 39.8356 354.702 36.4415C348.964 33.0474 342.479 31.3503 335.145 31.3503H314.392V110.014Z" fill="#279EF9"/>
<path d="M432.129 140.561C427.339 140.561 423.897 139.863 421.752 138.465C419.607 137.067 418.31 135.171 417.861 132.775C417.412 130.379 417.162 127.933 417.162 125.388V16.1765C417.162 13.6309 417.412 11.235 417.861 8.88906C418.31 6.54311 419.607 4.6464 421.752 3.1989C423.897 1.7514 427.389 1.00269 432.328 1.00269C437.267 1.00269 440.959 1.7514 443.004 3.1989C445.05 4.6464 446.347 6.54311 446.796 8.88906C447.245 11.235 447.494 13.7307 447.494 16.3761V125.587C447.494 128.133 447.245 130.529 446.696 132.875C446.147 135.221 444.85 137.067 442.805 138.465C440.759 139.863 437.167 140.561 432.129 140.561Z" fill="#279EF9"/>
<path d="M479.224 140.561C474.285 140.561 470.793 139.813 468.647 138.365C466.502 136.918 465.205 134.971 464.756 132.575C464.307 130.179 464.058 127.734 464.058 125.188V16.1765C464.058 13.6309 464.307 11.235 464.756 8.88906C465.205 6.54311 466.502 4.6464 468.647 3.1989C470.793 1.7514 474.385 1.00269 479.423 1.00269C484.462 1.00269 487.854 1.7514 489.9 3.1989C491.945 4.6464 493.242 6.54311 493.691 8.88906C494.14 11.235 494.39 13.7307 494.39 16.3761V125.388C494.39 127.933 494.14 130.329 493.691 132.675C493.242 135.021 491.945 136.918 489.8 138.365C487.655 139.813 484.163 140.561 479.224 140.561ZM489.6 83.4601V57.1057H551.861V83.4601H489.6ZM563.835 140.561C558.896 140.561 555.403 139.813 553.258 138.365C551.113 136.918 549.816 134.971 549.367 132.575C548.918 130.179 548.668 127.734 548.668 125.188V16.1765C548.668 13.6309 548.918 11.235 549.467 8.88906C550.015 6.54311 551.312 4.6464 553.358 3.1989C555.403 1.7514 558.995 1.00269 564.034 1.00269C569.073 1.00269 572.465 1.7514 574.511 3.1989C576.556 4.6464 577.853 6.54311 578.302 8.88906C578.751 11.235 579.001 13.7307 579.001 16.3761V125.388C579.001 127.933 578.751 130.329 578.302 132.675C577.853 135.021 576.556 136.918 574.411 138.365C572.266 139.813 568.773 140.561 563.835 140.561Z" fill="#279EF9"/>
<path d="M735.451 140.561C730.662 140.561 727.17 139.863 724.975 138.465C722.78 137.067 721.433 135.171 720.984 132.775C720.535 130.379 720.285 127.933 720.285 125.388V16.1765C720.285 13.6309 720.535 11.235 720.984 8.88906C721.433 6.54311 722.73 4.6464 724.875 3.1989C727.02 1.7514 730.512 1.00269 735.451 1.00269C740.39 1.00269 744.082 1.7514 746.127 3.1989C748.173 4.6464 749.47 6.54311 749.919 8.88906C750.368 11.235 750.617 13.7307 750.617 16.3761V114.207H805.295C807.54 114.207 809.685 114.407 811.681 114.806C813.676 115.205 815.323 116.353 816.57 118.2C817.817 120.047 818.466 123.141 818.466 127.384C818.466 131.627 817.817 134.522 816.47 136.468C815.123 138.415 813.527 139.563 811.581 139.962C809.635 140.362 807.54 140.561 805.295 140.561H735.451Z" fill="#279EF9"/>
<path d="M861.768 68.8853H887.511C890.454 68.8853 893.348 68.2364 896.192 66.9886C899.035 65.7407 901.43 63.6943 903.375 60.8991C905.321 58.1039 906.269 54.5102 906.269 50.1178C906.269 46.3742 905.421 43.1299 903.775 40.3347C902.128 37.5395 899.883 35.3433 897.089 33.7461C894.296 32.1488 891.053 31.3502 887.311 31.3502H861.768V68.8853ZM861.27 128.083C861.27 136.119 854.734 142.608 846.752 142.608C838.77 142.608 832.235 136.069 832.235 128.083C832.235 120.097 838.77 113.558 846.752 113.558C854.734 113.558 861.27 120.097 861.27 128.083ZM887.96 98.584H839.069C834.928 98.584 831.586 95.2397 831.586 91.0969V7.94067C831.586 3.79783 834.928 0.453613 839.069 0.453613H887.96C915.049 0.453613 937 22.4156 937 49.5188C937 76.6219 915.049 98.584 887.96 98.584Z" fill="#279EF9"/>
<path d="M690.601 82.6617H608.185C602.298 82.6617 597.559 77.9199 597.559 72.03V66.9388C597.559 61.049 602.298 56.3072 608.185 56.3072H690.601C696.487 56.3072 701.227 61.049 701.227 66.9388V72.03C701.227 77.9199 696.487 82.6617 690.601 82.6617ZM690.601 139.813H608.185C602.298 139.813 597.559 135.071 597.559 129.181V124.09C597.559 118.2 602.298 113.458 608.185 113.458H690.601C696.487 113.458 701.227 118.2 701.227 124.09V129.181C701.227 135.071 696.487 139.813 690.601 139.813ZM690.601 27.0578H608.185C602.298 27.0578 597.559 22.316 597.559 16.4262V11.335C597.559 5.44516 602.298 0.703369 608.185 0.703369H690.601C696.487 0.703369 701.227 5.44516 701.227 11.335V16.4262C701.227 22.316 696.487 27.0578 690.601 27.0578Z" fill="#279EF9"/>
<path d="M357.146 61.7976H323.222C320.494 61.7976 318.283 64.01 318.283 66.7391V71.5807C318.283 74.3098 320.494 76.5222 323.222 76.5222H357.146C359.874 76.5222 362.085 74.3098 362.085 71.5807V66.7391C362.085 64.01 359.874 61.7976 357.146 61.7976Z" fill="#279EF9"/>
<path d="M347.519 86.1056V52.1644C347.519 49.4353 345.307 47.2229 342.58 47.2229H337.74C335.013 47.2229 332.801 49.4353 332.801 52.1644V86.1056C332.801 88.8347 335.013 91.0471 337.74 91.0471H342.58C345.307 91.0471 347.519 88.8347 347.519 86.1056Z" fill="#279EF9"/>
</svg>
