<svg width="18" height="18" viewBox="0 0 18 18" fill="none" xmlns="http://www.w3.org/2000/svg">
<path d="M8.25 3L3 8.25M8.25 3L8.25 7.5C8.25 7.69891 8.17098 7.88968 8.03033 8.03033C7.88968 8.17098 7.69891 8.25 7.5 8.25L3 8.25M8.25 3L13.5 3C13.8978 3 14.2794 3.15803 14.5607 3.43934C14.842 3.72064 15 4.10217 15 4.5L15 13.5C15 13.8978 14.842 14.2794 14.5607 14.5607C14.2794 14.842 13.8978 15 13.5 15L4.5 15C4.10217 15 3.72064 14.842 3.43934 14.5607C3.15803 14.2794 3 13.8978 3 13.5L3 8.25" stroke="#BCBFC1" stroke-width="2" stroke-linecap="round" stroke-linejoin="round"/>
</svg>
