<svg width="24" height="24" viewBox="0 0 24 24" fill="none" xmlns="http://www.w3.org/2000/svg">
<path d="M8.5 8.5L15.5 15.5M4.50004 12.5L12.5 4.50004C13.4283 3.57178 14.6873 3.05029 16 3.05029C17.3128 3.05029 18.5718 3.57178 19.5 4.50004C20.4283 5.4283 20.9498 6.68729 20.9498 8.00004C20.9498 9.3128 20.4283 10.5718 19.5 11.5L11.5 19.5C10.5718 20.4283 9.3128 20.9498 8.00004 20.9498C6.68729 20.9498 5.4283 20.4283 4.50004 19.5C3.57178 18.5718 3.05029 17.3128 3.05029 16C3.05029 14.6873 3.57178 13.4283 4.50004 12.5Z" stroke="#E0E2E4" stroke-linecap="round" stroke-linejoin="round" stroke-dasharray="2 2"/>
</svg>
