<svg width="32" height="32" viewBox="0 0 32 32" fill="none" xmlns="http://www.w3.org/2000/svg">
<path d="M8 10.6668L6.66667 10.6668C5.95942 10.6668 5.28115 10.9478 4.78105 11.4479C4.28095 11.948 4 12.6263 4 13.3335L4 25.3335C4 26.0407 4.28095 26.719 4.78105 27.2191C5.28115 27.7192 5.95942 28.0002 6.66667 28.0002L18.6667 28.0002C19.3739 28.0002 20.0522 27.7192 20.5523 27.2191C21.0524 26.719 21.3333 26.0407 21.3333 25.3335L21.3333 24.0002M20 8.00016L24 12.0002M25.8467 10.1136C26.3718 9.58851 26.6668 8.87628 26.6668 8.13364C26.6668 7.39099 26.3718 6.67877 25.8467 6.15364C25.3215 5.62851 24.6093 5.33349 23.8667 5.33349C23.124 5.33349 22.4118 5.62851 21.8867 6.15364L10.6667 17.3336L10.6667 21.3336L14.6667 21.3336L25.8467 10.1136Z" stroke="white" stroke-width="2" stroke-linecap="round" stroke-linejoin="round"/>
</svg>
