<svg width="25" height="24" viewBox="0 0 25 24" fill="none" xmlns="http://www.w3.org/2000/svg">
<path d="M21.476 21L15.476 15M3.47595 10C3.47595 10.9193 3.65701 11.8295 4.0088 12.6788C4.36058 13.5281 4.87619 14.2997 5.5262 14.9497C6.17621 15.5998 6.94789 16.1154 7.79717 16.4672C8.64645 16.8189 9.5567 17 10.476 17C11.3952 17 12.3055 16.8189 13.1547 16.4672C14.004 16.1154 14.7757 15.5998 15.4257 14.9497C16.0757 14.2997 16.5913 13.5281 16.9431 12.6788C17.2949 11.8295 17.476 10.9193 17.476 10C17.476 9.08075 17.2949 8.1705 16.9431 7.32122C16.5913 6.47194 16.0757 5.70026 15.4257 5.05025C14.7757 4.40024 14.004 3.88463 13.1547 3.53284C12.3055 3.18106 11.3952 3 10.476 3C9.5567 3 8.64645 3.18106 7.79717 3.53284C6.94789 3.88463 6.17621 4.40024 5.5262 5.05025C4.87619 5.70026 4.36058 6.47194 4.0088 7.32122C3.65701 8.1705 3.47595 9.08075 3.47595 10Z" stroke="#279EF9" stroke-width="2" stroke-linecap="round" stroke-linejoin="round"/>
</svg>
