<svg width="48" height="48" viewBox="0 0 48 48" fill="none" xmlns="http://www.w3.org/2000/svg">
<g filter="url(#filter0_i_1348_23335)">
<rect width="48" height="48" rx="4" fill="#E9F5FE"/>
<path d="M34.6246 16.5991C35.0801 17.6987 35.3613 18.8605 35.4601 20.0428C35.4794 20.2738 35.2884 20.5 35 20.5H24L13 20.5C12.7116 20.5 12.5206 20.2738 12.5399 20.0428C12.6387 18.8605 12.9199 17.6987 13.3754 16.5991C13.9533 15.2039 14.8004 13.9361 15.8683 12.8683C16.9361 11.8004 18.2039 10.9533 19.5991 10.3754C20.9944 9.79746 22.4898 9.5 24 9.5C25.5102 9.5 27.0056 9.79746 28.4009 10.3754C29.7961 10.9533 31.0639 11.8004 32.1317 12.8683C33.1996 13.9361 34.0467 15.2039 34.6246 16.5991Z" fill="#F5F6F7" stroke="#2390E3" stroke-linejoin="round"/>
<path d="M17.4007 34.4258V37.4258H18.8421V38.6562H17.4007V42.2773H15.9007V34.4258H17.4007ZM9.25617 40.5781V35.1758H10.7445V36.7227H12.9241V35.1758H14.4241V40.5781H9.25617ZM10.4866 44.8906V41.4688H11.9749V43.6953H17.7874V44.8906H10.4866ZM10.7445 39.4062H12.9241V37.8711H10.7445V39.4062ZM28.166 34.4258V42.4766H26.666V41.6328H24.627V40.6133H26.666V34.4258H28.166ZM19.0957 39.1484C21.0469 39.1367 23.6836 39.1074 25.9395 38.832L26.0215 39.8984C25.1777 40.0391 24.3047 40.1387 23.4434 40.2031V42.2305H21.9434V43.6953H28.4004V44.8906H20.4551V41.7031H21.9434V40.291C20.9883 40.3262 20.0801 40.332 19.2715 40.332L19.0957 39.1484ZM19.8809 36.6992C19.8809 35.5625 20.9766 34.7832 22.5645 34.7891C24.1113 34.7832 25.2188 35.5625 25.2246 36.6992C25.2188 37.8418 24.1113 38.5801 22.5645 38.5742C20.9766 38.5801 19.8809 37.8418 19.8809 36.6992ZM21.2988 36.6992C21.293 37.2148 21.8027 37.502 22.5645 37.4961C23.2793 37.502 23.7949 37.2148 23.8066 36.6992C23.7949 36.1719 23.2793 35.8789 22.5645 35.8789C21.8027 35.8789 21.293 36.1719 21.2988 36.6992ZM35.2751 35.3984V36.582H29.3454V35.3984H31.6423V34.3203H33.1305V35.3984H35.2751ZM29.8727 38.9375C29.861 37.7539 30.8981 36.9395 32.3688 36.9336C33.8337 36.9395 34.8884 37.7539 34.9001 38.9375C34.8884 40.1328 33.8337 40.9238 32.3688 40.918C30.8981 40.9238 29.861 40.1328 29.8727 38.9375ZM31.0095 43.2148C31.0036 42.0312 32.4098 41.334 34.6891 41.3398C36.9567 41.334 38.363 42.0312 38.3688 43.2148C38.363 44.375 36.9567 45.084 34.6891 45.0781C32.4098 45.084 31.0036 44.375 31.0095 43.2148ZM31.2673 38.9375C31.2614 39.5117 31.695 39.8164 32.3688 39.8164C33.0368 39.8164 33.5055 39.5117 33.5055 38.9375C33.5055 38.3691 33.0368 38.0527 32.3688 38.0469C31.695 38.0527 31.2614 38.3691 31.2673 38.9375ZM32.5798 43.2148C32.5798 43.7012 33.3239 43.9531 34.6891 43.9531C36.0251 43.9531 36.7634 43.7012 36.7634 43.2148C36.7634 42.7051 36.0251 42.4766 34.6891 42.4648C33.3239 42.4766 32.5798 42.7051 32.5798 43.2148ZM35.3688 40.0859V38.8906H36.822V37.9531H35.3923V36.7578H36.822V34.4141H38.3102V41.2109H36.822V40.0859H35.3688Z" fill="#279EF9"/>
</g>
<defs>
<filter id="filter0_i_1348_23335" x="0" y="0" width="48" height="52" filterUnits="userSpaceOnUse" color-interpolation-filters="sRGB">
<feFlood flood-opacity="0" result="BackgroundImageFix"/>
<feBlend mode="normal" in="SourceGraphic" in2="BackgroundImageFix" result="shape"/>
<feColorMatrix in="SourceAlpha" type="matrix" values="0 0 0 0 0 0 0 0 0 0 0 0 0 0 0 0 0 0 127 0" result="hardAlpha"/>
<feOffset dy="4"/>
<feGaussianBlur stdDeviation="6"/>
<feComposite in2="hardAlpha" operator="arithmetic" k2="-1" k3="1"/>
<feColorMatrix type="matrix" values="0 0 0 0 1 0 0 0 0 1 0 0 0 0 1 0 0 0 0.2 0"/>
<feBlend mode="normal" in2="shape" result="effect1_innerShadow_1348_23335"/>
</filter>
</defs>
</svg>
