<svg width="48" height="48" viewBox="0 0 48 48" fill="none" xmlns="http://www.w3.org/2000/svg">
<circle cx="24" cy="15" r="9.5" fill="#F5F6F7" stroke="#BCBFC1"/>
<path d="M22.7306 34.543V42.4531H21.8048V41.375H19.6486V40.707H21.8048V34.543H22.7306ZM14.0822 39.3711C16.0216 39.3594 18.6349 39.3418 20.8673 39.0664L20.9259 39.7344C20.0002 39.8809 19.0216 39.9746 18.0666 40.0332V42.0898H17.1408V40.0801C16.0861 40.1211 15.0841 40.1211 14.2111 40.1211L14.0822 39.3711ZM14.9259 36.7812C14.9201 35.6855 15.963 34.9648 17.5041 34.9648C19.0334 34.9648 20.0763 35.6855 20.0822 36.7812C20.0763 37.8945 19.0334 38.5859 17.5041 38.5859C15.963 38.5859 14.9201 37.8945 14.9259 36.7812ZM15.5822 44.7266V41.6797H16.508V43.9531H22.9884V44.7266H15.5822ZM15.8048 36.7812C15.7931 37.4609 16.4845 37.9004 17.5041 37.9062C18.4943 37.9004 19.1974 37.4609 19.2033 36.7812C19.1974 36.1133 18.4943 35.6562 17.5041 35.668C16.4845 35.6562 15.7931 36.1133 15.8048 36.7812ZM30.2381 35.7031V36.4531H24.3436V35.7031H26.8748V34.4492H27.7889V35.7031H30.2381ZM24.9647 38.9141C24.953 37.7539 25.9139 36.9863 27.3202 36.9922C28.7147 36.9863 29.6932 37.7539 29.6991 38.9141C29.6932 40.0801 28.7147 40.8418 27.3202 40.8477C25.9139 40.8418 24.953 40.0801 24.9647 38.9141ZM25.8202 38.9141C25.8143 39.6465 26.412 40.1387 27.3202 40.1328C28.2166 40.1387 28.8319 39.6465 28.8436 38.9141C28.8319 38.1816 28.2166 37.6953 27.3202 37.6836C26.412 37.6953 25.8143 38.1816 25.8202 38.9141ZM26.0311 43.1562C26.0311 42.0195 27.3495 41.375 29.535 41.375C31.7088 41.375 33.0272 42.0195 33.0272 43.1562C33.0272 44.2754 31.7088 44.9258 29.535 44.9258C27.3495 44.9258 26.0311 44.2754 26.0311 43.1562ZM26.9803 43.1562C26.9862 43.8184 27.953 44.2168 29.535 44.2109C31.0936 44.2168 32.0545 43.8184 32.0545 43.1562C32.0545 42.4766 31.0936 42.0957 29.535 42.0898C27.953 42.0957 26.9862 42.4766 26.9803 43.1562ZM30.2264 39.8281V39.0664H32.0428V37.8008H30.2381V37.0391H32.0428V34.5312H32.9686V41.2695H32.0428V39.8281H30.2264Z" fill="#18181B"/>
</svg>
