<svg width="48" height="48" viewBox="0 0 48 48" fill="none" xmlns="http://www.w3.org/2000/svg">
<rect x="12.5" y="9.5" width="23" height="11" rx="5.5" fill="#F5F6F7" stroke="#BCBFC1"/>
<path d="M10.8854 35.252H11.7014V36.128C11.7014 38.12 10.5014 39.788 8.67741 40.448L8.17341 39.656C9.80541 39.08 10.8854 37.676 10.8854 36.128V35.252ZM11.0654 35.252H11.8814V36.116C11.8814 37.532 12.9134 38.804 14.5094 39.332L14.0294 40.112C12.2174 39.512 11.0654 37.964 11.0654 36.116V35.252ZM8.47341 34.892H14.2694V35.708H8.47341V34.892ZM15.6374 34.088H16.6334V40.628H15.6374V34.088ZM16.3574 36.836H18.2414V37.676H16.3574V36.836ZM13.1774 40.916C15.3854 40.916 16.7414 41.648 16.7414 42.908C16.7414 44.18 15.3854 44.912 13.1774 44.912C10.9694 44.912 9.61341 44.18 9.61341 42.908C9.61341 41.648 10.9694 40.916 13.1774 40.916ZM13.1774 41.72C11.5694 41.72 10.5854 42.152 10.5854 42.908C10.5854 43.676 11.5694 44.132 13.1774 44.132C14.7854 44.132 15.7694 43.676 15.7694 42.908C15.7694 42.152 14.7854 41.72 13.1774 41.72ZM24.0365 40.892C26.2445 40.892 27.6005 41.636 27.6005 42.908C27.6005 44.18 26.2445 44.924 24.0365 44.924C21.8285 44.924 20.4725 44.18 20.4725 42.908C20.4725 41.636 21.8285 40.892 24.0365 40.892ZM24.0365 41.696C22.4285 41.696 21.4445 42.14 21.4445 42.908C21.4445 43.688 22.4285 44.132 24.0365 44.132C25.6445 44.132 26.6285 43.688 26.6285 42.908C26.6285 42.14 25.6445 41.696 24.0365 41.696ZM26.4965 34.088H27.4925V40.604H26.4965V34.088ZM27.2165 36.812H29.1005V37.652H27.2165V36.812ZM19.5245 34.772H20.5085V36.392H23.5685V34.772H24.5405V39.776H19.5245V34.772ZM20.5085 37.184V38.972H23.5685V37.184H20.5085ZM36.0355 36.692H38.2435V37.508H36.0355V36.692ZM36.0235 38.804H38.2315V39.62H36.0235V38.804ZM29.9515 35.276H36.0235V36.08H29.9515V35.276ZM33.0235 36.644C34.4755 36.644 35.4715 37.436 35.4715 38.648C35.4715 39.86 34.4755 40.664 33.0235 40.664C31.5715 40.664 30.5635 39.86 30.5635 38.648C30.5635 37.436 31.5715 36.644 33.0235 36.644ZM33.0235 37.412C32.1115 37.412 31.4995 37.892 31.4995 38.648C31.4995 39.404 32.1115 39.896 33.0235 39.896C33.9235 39.896 34.5475 39.404 34.5475 38.648C34.5475 37.892 33.9235 37.412 33.0235 37.412ZM32.5315 33.992H33.5275V35.84H32.5315V33.992ZM37.8595 34.088H38.8555V41.096H37.8595V34.088ZM35.3035 41.204C37.5475 41.204 38.9155 41.888 38.9155 43.064C38.9155 44.24 37.5475 44.912 35.3035 44.912C33.0475 44.912 31.6915 44.24 31.6915 43.064C31.6915 41.888 33.0475 41.204 35.3035 41.204ZM35.3035 41.996C33.7075 41.996 32.7235 42.368 32.7235 43.064C32.7235 43.748 33.7075 44.144 35.3035 44.144C36.8995 44.144 37.8835 43.748 37.8835 43.064C37.8835 42.368 36.8995 41.996 35.3035 41.996Z" fill="#18181B"/>
</svg>
