<svg width="48" height="48" viewBox="0 0 48 48" fill="none" xmlns="http://www.w3.org/2000/svg">
<path d="M23.567 4.75C23.7594 4.41667 24.2406 4.41667 24.433 4.75L33.0933 19.75C33.2857 20.0833 33.0452 20.5 32.6603 20.5H15.3397C14.9548 20.5 14.7143 20.0833 14.9067 19.75L23.567 4.75Z" fill="#F5F6F7" stroke="#BCBFC1" stroke-linejoin="round"/>
<path d="M12.5491 36.0898C12.5433 37.5254 13.6214 38.8613 15.1507 39.3828L14.6351 40.1094C13.5042 39.6816 12.596 38.8145 12.139 37.7246C11.6937 38.9668 10.7503 39.9336 9.50227 40.4141L9.01008 39.6875C10.5863 39.1016 11.6409 37.707 11.6468 36.1133V35.0703H12.5491V36.0898ZM10.6155 44.8086V41.1172H17.1898V44.8086H10.6155ZM11.5179 44.0586H16.2757V41.8672H11.5179V44.0586ZM16.2757 40.6367V34.5312H17.1898V37.1328H18.7601V37.9062H17.1898V40.6367H16.2757ZM27.3809 34.5312V37.1797H28.9512V37.9648H27.3809V40.6484H26.4668V34.5312H27.3809ZM19.2246 39.8164C21.7793 39.125 23.3555 37.7305 23.543 35.9609H19.6934V35.1992H24.5215C24.5156 37.8359 22.6758 39.7168 19.5996 40.5312L19.2246 39.8164ZM20.5605 41.8789V41.1289H27.3809V44.9492H26.4668V41.8789H20.5605ZM35.3337 35.7031V36.4531H29.4391V35.7031H31.9704V34.4492H32.8845V35.7031H35.3337ZM30.0602 38.9141C30.0485 37.7539 31.0095 36.9863 32.4157 36.9922C33.8102 36.9863 34.7887 37.7539 34.7946 38.9141C34.7887 40.0801 33.8102 40.8418 32.4157 40.8477C31.0095 40.8418 30.0485 40.0801 30.0602 38.9141ZM30.9157 38.9141C30.9098 39.6465 31.5075 40.1387 32.4157 40.1328C33.3122 40.1387 33.9274 39.6465 33.9391 38.9141C33.9274 38.1816 33.3122 37.6953 32.4157 37.6836C31.5075 37.6953 30.9098 38.1816 30.9157 38.9141ZM31.1266 43.1562C31.1266 42.0195 32.445 41.375 34.6305 41.375C36.8044 41.375 38.1227 42.0195 38.1227 43.1562C38.1227 44.2754 36.8044 44.9258 34.6305 44.9258C32.445 44.9258 31.1266 44.2754 31.1266 43.1562ZM32.0759 43.1562C32.0817 43.8184 33.0485 44.2168 34.6305 44.2109C36.1891 44.2168 37.1501 43.8184 37.1501 43.1562C37.1501 42.4766 36.1891 42.0957 34.6305 42.0898C33.0485 42.0957 32.0817 42.4766 32.0759 43.1562ZM35.322 39.8281V39.0664H37.1384V37.8008H35.3337V37.0391H37.1384V34.5312H38.0641V41.2695H37.1384V39.8281H35.322Z" fill="#18181B"/>
</svg>
