<svg width="48" height="48" viewBox="0 0 48 48" fill="none" xmlns="http://www.w3.org/2000/svg">
<g filter="url(#filter0_i_1348_23336)">
<rect width="48" height="48" rx="4" fill="#E9F5FE"/>
<path d="M24.433 4.75L33.0933 19.75C33.2857 20.0833 33.0452 20.5 32.6603 20.5H15.3397C14.9548 20.5 14.7143 20.0833 14.9067 19.75L23.567 4.75C23.7594 4.41667 24.2406 4.41667 24.433 4.75Z" fill="#F5F6F7" stroke="#2390E3" stroke-linejoin="round"/>
<path d="M12.8773 35.832C12.8714 37.1855 13.6214 38.5215 15.3265 39.0664L14.5296 40.2266C13.4163 39.834 12.6312 39.0957 12.1683 38.1523C11.6995 39.2363 10.8499 40.1035 9.59602 40.543L8.79914 39.3594C10.5863 38.7617 11.3655 37.332 11.3773 35.8789V34.9648H12.8773V35.832ZM10.428 44.9609V41H17.4007V44.9609H10.428ZM11.9046 43.7656H15.9241V42.1836H11.9046V43.7656ZM15.9007 40.5781V34.4141H17.4007V36.8516H18.8421V38.0586H17.4007V40.5781H15.9007ZM27.5918 34.4141V36.9102H29.0332V38.1523H27.5918V40.6133H26.0918V34.4141H27.5918ZM18.9785 39.4531C21.4102 38.8379 22.7461 37.6309 22.9746 36.1953H19.541V35.0117H24.5918C24.5859 37.8594 22.7988 39.7871 19.5996 40.5898L18.9785 39.4531ZM20.4082 42.2305V41.0352H27.5918V45.0781H26.0918V42.2305H20.4082ZM35.2751 35.3984V36.582H29.3454V35.3984H31.6423V34.3203H33.1305V35.3984H35.2751ZM29.8727 38.9375C29.861 37.7539 30.8981 36.9395 32.3688 36.9336C33.8337 36.9395 34.8884 37.7539 34.9001 38.9375C34.8884 40.1328 33.8337 40.9238 32.3688 40.918C30.8981 40.9238 29.861 40.1328 29.8727 38.9375ZM31.0095 43.2148C31.0036 42.0312 32.4098 41.334 34.6891 41.3398C36.9567 41.334 38.363 42.0312 38.3688 43.2148C38.363 44.375 36.9567 45.084 34.6891 45.0781C32.4098 45.084 31.0036 44.375 31.0095 43.2148ZM31.2673 38.9375C31.2614 39.5117 31.695 39.8164 32.3688 39.8164C33.0368 39.8164 33.5055 39.5117 33.5055 38.9375C33.5055 38.3691 33.0368 38.0527 32.3688 38.0469C31.695 38.0527 31.2614 38.3691 31.2673 38.9375ZM32.5798 43.2148C32.5798 43.7012 33.3239 43.9531 34.6891 43.9531C36.0251 43.9531 36.7634 43.7012 36.7634 43.2148C36.7634 42.7051 36.0251 42.4766 34.6891 42.4648C33.3239 42.4766 32.5798 42.7051 32.5798 43.2148ZM35.3688 40.0859V38.8906H36.822V37.9531H35.3923V36.7578H36.822V34.4141H38.3102V41.2109H36.822V40.0859H35.3688Z" fill="#279EF9"/>
</g>
<defs>
<filter id="filter0_i_1348_23336" x="0" y="0" width="48" height="52" filterUnits="userSpaceOnUse" color-interpolation-filters="sRGB">
<feFlood flood-opacity="0" result="BackgroundImageFix"/>
<feBlend mode="normal" in="SourceGraphic" in2="BackgroundImageFix" result="shape"/>
<feColorMatrix in="SourceAlpha" type="matrix" values="0 0 0 0 0 0 0 0 0 0 0 0 0 0 0 0 0 0 127 0" result="hardAlpha"/>
<feOffset dy="4"/>
<feGaussianBlur stdDeviation="6"/>
<feComposite in2="hardAlpha" operator="arithmetic" k2="-1" k3="1"/>
<feColorMatrix type="matrix" values="0 0 0 0 1 0 0 0 0 1 0 0 0 0 1 0 0 0 0.2 0"/>
<feBlend mode="normal" in2="shape" result="effect1_innerShadow_1348_23336"/>
</filter>
</defs>
</svg>
