<svg width="48" height="48" viewBox="0 0 48 48" fill="none" xmlns="http://www.w3.org/2000/svg">
<g filter="url(#filter0_i_1348_23344)">
<rect width="48" height="48" rx="4" fill="#E9F5FE"/>
<path d="M25.2243 5.59486L27.5032 8.81418C27.8204 9.26227 28.2763 9.59349 28.8005 9.7567L32.5665 10.9293C33.5543 11.2369 33.9415 12.4286 33.3231 13.258L30.9656 16.4202C30.6375 16.8604 30.4634 17.3963 30.4701 17.9453L30.5187 21.8893C30.5314 22.9238 29.5177 23.6603 28.5377 23.3285L24.8018 22.0636C24.2818 21.8875 23.7182 21.8875 23.1982 22.0636L19.4623 23.3285C18.4823 23.6603 17.4686 22.9238 17.4813 21.8893L17.5299 17.9453C17.5367 17.3963 17.3625 16.8604 17.0344 16.4202L14.6769 13.258C14.0585 12.4286 14.4457 11.2369 15.4335 10.9293L19.1995 9.7567C19.7237 9.59349 20.1796 9.26227 20.4968 8.81418L22.7757 5.59486C23.3735 4.75042 24.6265 4.75042 25.2243 5.59486Z" fill="#F5F6F7" stroke="#2390E3"/>
<path d="M23.0002 34.4141V45.0781H21.4884V34.4141H23.0002ZM14.0705 42.0547C16.8244 40.7539 18.0373 39.0664 18.2775 36.6992H14.6447V35.5273H19.8009C19.7951 38.7617 18.6642 41.4512 14.8556 43.25L14.0705 42.0547ZM29.6991 35.293V36.5117H26.16V38.2695H29.5467V39.4414H26.16V41.457C27.6834 41.4395 28.9315 41.375 30.3553 41.1523L30.4959 42.3594C28.867 42.6055 27.4139 42.6523 25.5506 42.6523H24.6483V35.293H29.6991ZM31.1405 45.0781V34.4141H32.6405V38.457H34.2108V39.7109H32.6405V45.0781H31.1405Z" fill="#279EF9"/>
</g>
<defs>
<filter id="filter0_i_1348_23344" x="0" y="0" width="48" height="52" filterUnits="userSpaceOnUse" color-interpolation-filters="sRGB">
<feFlood flood-opacity="0" result="BackgroundImageFix"/>
<feBlend mode="normal" in="SourceGraphic" in2="BackgroundImageFix" result="shape"/>
<feColorMatrix in="SourceAlpha" type="matrix" values="0 0 0 0 0 0 0 0 0 0 0 0 0 0 0 0 0 0 127 0" result="hardAlpha"/>
<feOffset dy="4"/>
<feGaussianBlur stdDeviation="6"/>
<feComposite in2="hardAlpha" operator="arithmetic" k2="-1" k3="1"/>
<feColorMatrix type="matrix" values="0 0 0 0 1 0 0 0 0 1 0 0 0 0 1 0 0 0 0.2 0"/>
<feBlend mode="normal" in2="shape" result="effect1_innerShadow_1348_23344"/>
</filter>
</defs>
</svg>
