<svg width="48" height="48" viewBox="0 0 48 48" fill="none" xmlns="http://www.w3.org/2000/svg">
<path d="M35.4601 20.0428C35.4794 20.2738 35.2884 20.5 35 20.5H24L13 20.5C12.7116 20.5 12.5206 20.2738 12.5399 20.0428C12.6387 18.8605 12.9199 17.6987 13.3754 16.5991C13.9533 15.2039 14.8004 13.9361 15.8683 12.8683C16.9361 11.8004 18.2039 10.9533 19.5991 10.3754C20.9944 9.79746 22.4898 9.5 24 9.5C25.5102 9.5 27.0056 9.79746 28.4009 10.3754C29.7961 10.9533 31.0639 11.8004 32.1317 12.8683C33.1996 13.9361 34.0467 15.2039 34.6246 16.5991C35.0801 17.6987 35.3613 18.8605 35.4601 20.0428Z" fill="#F5F6F7" stroke="#BCBFC1" stroke-linejoin="round"/>
<path d="M15.6374 34.1H16.6334V42.056H15.6374V34.1ZM16.3214 37.376H18.2414V38.204H16.3214V37.376ZM9.87741 43.88H17.1254V44.696H9.87741V43.88ZM9.87741 41.288H10.8734V44.072H9.87741V41.288ZM8.66541 34.868H9.64941V36.68H12.7094V34.868H13.6814V40.244H8.66541V34.868ZM9.64941 37.46V39.44H12.7094V37.46H9.64941ZM22.1525 39.548H23.1485V41.96H22.1525V39.548ZM26.9645 34.088H27.9605V42.344H26.9645V34.088ZM20.5565 43.88H28.2245V44.696H20.5565V43.88ZM20.5565 41.54H21.5525V44.108H20.5565V41.54ZM19.1525 39.92L19.0205 39.104C21.0245 39.104 23.7125 39.08 26.0165 38.78L26.0885 39.512C23.7485 39.884 21.1205 39.92 19.1525 39.92ZM24.7565 40.496H27.2165V41.228H24.7565V40.496ZM22.5485 34.532C24.1325 34.532 25.2125 35.276 25.2125 36.416C25.2125 37.568 24.1325 38.312 22.5485 38.312C20.9525 38.312 19.8725 37.568 19.8725 36.416C19.8725 35.276 20.9525 34.532 22.5485 34.532ZM22.5485 35.276C21.5285 35.276 20.8205 35.72 20.8205 36.416C20.8205 37.112 21.5285 37.556 22.5485 37.556C23.5565 37.556 24.2645 37.112 24.2645 36.416C24.2645 35.72 23.5565 35.276 22.5485 35.276ZM36.0355 36.692H38.2435V37.508H36.0355V36.692ZM36.0235 38.804H38.2315V39.62H36.0235V38.804ZM29.9515 35.276H36.0235V36.08H29.9515V35.276ZM33.0235 36.644C34.4755 36.644 35.4715 37.436 35.4715 38.648C35.4715 39.86 34.4755 40.664 33.0235 40.664C31.5715 40.664 30.5635 39.86 30.5635 38.648C30.5635 37.436 31.5715 36.644 33.0235 36.644ZM33.0235 37.412C32.1115 37.412 31.4995 37.892 31.4995 38.648C31.4995 39.404 32.1115 39.896 33.0235 39.896C33.9235 39.896 34.5475 39.404 34.5475 38.648C34.5475 37.892 33.9235 37.412 33.0235 37.412ZM32.5315 33.992H33.5275V35.84H32.5315V33.992ZM37.8595 34.088H38.8555V41.096H37.8595V34.088ZM35.3035 41.204C37.5475 41.204 38.9155 41.888 38.9155 43.064C38.9155 44.24 37.5475 44.912 35.3035 44.912C33.0475 44.912 31.6915 44.24 31.6915 43.064C31.6915 41.888 33.0475 41.204 35.3035 41.204ZM35.3035 41.996C33.7075 41.996 32.7235 42.368 32.7235 43.064C32.7235 43.748 33.7075 44.144 35.3035 44.144C36.8995 44.144 37.8835 43.748 37.8835 43.064C37.8835 42.368 36.8995 41.996 35.3035 41.996Z" fill="#18181B"/>
</svg>
