<svg width="48" height="48" viewBox="0 0 48 48" fill="none" xmlns="http://www.w3.org/2000/svg">
<path d="M23.25 4.01036C23.7141 3.74241 24.2859 3.74241 24.75 4.01036L32.2763 8.35566C32.7404 8.62361 33.0263 9.1188 33.0263 9.6547V18.3453C33.0263 18.8812 32.7404 19.3764 32.2763 19.6443L24.75 23.9896C24.2859 24.2576 23.7141 24.2576 23.25 23.9896L15.7237 19.6443C15.2596 19.3764 14.9737 18.8812 14.9737 18.3453V9.6547C14.9737 9.1188 15.2596 8.62361 15.7237 8.35566L23.25 4.01036Z" fill="#F5F6F7" stroke="#BCBFC1"/>
<path d="M18.5374 39.5586V40.3086H16.0062V41.6328H17.3655V44.9492H16.4398V42.3711H10.0999V41.6328H11.5648V40.3086H9.04523V39.5586H18.5374ZM10.0999 36.7695C10.0999 35.5215 11.5238 34.7773 13.7913 34.7891C16.0472 34.7773 17.4652 35.5215 17.471 36.7695C17.4652 38.0234 16.0472 38.7734 13.7913 38.7617C11.5238 38.7734 10.0999 38.0234 10.0999 36.7695ZM11.0491 36.7695C11.0433 37.5605 12.1038 38.041 13.7913 38.0469C15.4613 38.041 16.5277 37.5605 16.5335 36.7695C16.5277 35.9961 15.4613 35.5156 13.7913 35.5273C12.1038 35.5156 11.0433 35.9961 11.0491 36.7695ZM12.4905 41.6328H15.1038V40.3086H12.4905V41.6328ZM27.3809 34.5312V37.1797H28.9512V37.9648H27.3809V40.6484H26.4668V34.5312H27.3809ZM19.2246 39.8164C21.7793 39.125 23.3555 37.7305 23.543 35.9609H19.6934V35.1992H24.5215C24.5156 37.8359 22.6758 39.7168 19.5996 40.5312L19.2246 39.8164ZM20.5605 41.8789V41.1289H27.3809V44.9492H26.4668V41.8789H20.5605ZM35.3337 35.7031V36.4531H29.4391V35.7031H31.9704V34.4492H32.8845V35.7031H35.3337ZM30.0602 38.9141C30.0485 37.7539 31.0095 36.9863 32.4157 36.9922C33.8102 36.9863 34.7887 37.7539 34.7946 38.9141C34.7887 40.0801 33.8102 40.8418 32.4157 40.8477C31.0095 40.8418 30.0485 40.0801 30.0602 38.9141ZM30.9157 38.9141C30.9098 39.6465 31.5075 40.1387 32.4157 40.1328C33.3122 40.1387 33.9274 39.6465 33.9391 38.9141C33.9274 38.1816 33.3122 37.6953 32.4157 37.6836C31.5075 37.6953 30.9098 38.1816 30.9157 38.9141ZM31.1266 43.1562C31.1266 42.0195 32.445 41.375 34.6305 41.375C36.8044 41.375 38.1227 42.0195 38.1227 43.1562C38.1227 44.2754 36.8044 44.9258 34.6305 44.9258C32.445 44.9258 31.1266 44.2754 31.1266 43.1562ZM32.0759 43.1562C32.0817 43.8184 33.0485 44.2168 34.6305 44.2109C36.1891 44.2168 37.1501 43.8184 37.1501 43.1562C37.1501 42.4766 36.1891 42.0957 34.6305 42.0898C33.0485 42.0957 32.0817 42.4766 32.0759 43.1562ZM35.322 39.8281V39.0664H37.1384V37.8008H35.3337V37.0391H37.1384V34.5312H38.0641V41.2695H37.1384V39.8281H35.322Z" fill="#18181B"/>
</svg>
