<svg width="48" height="48" viewBox="0 0 48 48" fill="none" xmlns="http://www.w3.org/2000/svg">
<path d="M34.5 15C34.5 17.0098 33.3809 18.873 31.4841 20.2525C29.5878 21.6316 26.9434 22.5 24 22.5C21.0566 22.5 18.4122 21.6316 16.5159 20.2525C14.6191 18.873 13.5 17.0098 13.5 15C13.5 12.9902 14.6191 11.127 16.5159 9.74751C18.4122 8.36838 21.0566 7.5 24 7.5C26.9434 7.5 29.5878 8.36838 31.4841 9.74751C33.3809 11.127 34.5 12.9902 34.5 15Z" fill="#F5F6F7" stroke="#BCBFC1"/>
<path d="M14.389 35.4805V36.2539H10.428V38.4102H14.1546V39.1602H10.428V41.6797C12.3089 41.6797 13.6273 41.6094 15.1859 41.3398L15.2913 42.1016C13.6624 42.377 12.2972 42.4355 10.3226 42.4414H9.50227V35.4805H14.389ZM16.1937 44.9492V34.5312H17.1077V38.7266H18.8538V39.5117H17.1077V44.9492H16.1937ZM27.8262 34.543V42.4531H26.9004V41.375H24.7441V40.707H26.9004V34.543H27.8262ZM19.1777 39.3711C21.1172 39.3594 23.7305 39.3418 25.9629 39.0664L26.0215 39.7344C25.0957 39.8809 24.1172 39.9746 23.1621 40.0332V42.0898H22.2363V40.0801C21.1816 40.1211 20.1797 40.1211 19.3066 40.1211L19.1777 39.3711ZM20.0215 36.7812C20.0156 35.6855 21.0586 34.9648 22.5996 34.9648C24.1289 34.9648 25.1719 35.6855 25.1777 36.7812C25.1719 37.8945 24.1289 38.5859 22.5996 38.5859C21.0586 38.5859 20.0156 37.8945 20.0215 36.7812ZM20.6777 44.7266V41.6797H21.6035V43.9531H28.084V44.7266H20.6777ZM20.9004 36.7812C20.8887 37.4609 21.5801 37.9004 22.5996 37.9062C23.5898 37.9004 24.293 37.4609 24.2988 36.7812C24.293 36.1133 23.5898 35.6562 22.5996 35.668C21.5801 35.6562 20.8887 36.1133 20.9004 36.7812ZM35.3337 35.7031V36.4531H29.4391V35.7031H31.9704V34.4492H32.8845V35.7031H35.3337ZM30.0602 38.9141C30.0485 37.7539 31.0095 36.9863 32.4157 36.9922C33.8102 36.9863 34.7887 37.7539 34.7946 38.9141C34.7887 40.0801 33.8102 40.8418 32.4157 40.8477C31.0095 40.8418 30.0485 40.0801 30.0602 38.9141ZM30.9157 38.9141C30.9098 39.6465 31.5075 40.1387 32.4157 40.1328C33.3122 40.1387 33.9274 39.6465 33.9391 38.9141C33.9274 38.1816 33.3122 37.6953 32.4157 37.6836C31.5075 37.6953 30.9098 38.1816 30.9157 38.9141ZM31.1266 43.1562C31.1266 42.0195 32.445 41.375 34.6305 41.375C36.8044 41.375 38.1227 42.0195 38.1227 43.1562C38.1227 44.2754 36.8044 44.9258 34.6305 44.9258C32.445 44.9258 31.1266 44.2754 31.1266 43.1562ZM32.0759 43.1562C32.0817 43.8184 33.0485 44.2168 34.6305 44.2109C36.1891 44.2168 37.1501 43.8184 37.1501 43.1562C37.1501 42.4766 36.1891 42.0957 34.6305 42.0898C33.0485 42.0957 32.0817 42.4766 32.0759 43.1562ZM35.322 39.8281V39.0664H37.1384V37.8008H35.3337V37.0391H37.1384V34.5312H38.0641V41.2695H37.1384V39.8281H35.322Z" fill="#18181B"/>
</svg>
