<svg width="48" height="48" viewBox="0 0 48 48" fill="none" xmlns="http://www.w3.org/2000/svg">
<g filter="url(#filter0_i_1348_23334)">
<rect width="48" height="48" rx="4" fill="#E9F5FE"/>
<circle cx="24" cy="15" r="9.5" fill="#F5F6F7" stroke="#2390E3"/>
<path d="M23.0705 34.4258V42.4766H21.5705V41.6328H19.5314V40.6133H21.5705V34.4258H23.0705ZM14.0002 39.1484C15.9513 39.1367 18.588 39.1074 20.8439 38.832L20.9259 39.8984C20.0822 40.0391 19.2091 40.1387 18.3478 40.2031V42.2305H16.8478V43.6953H23.3048V44.8906H15.3595V41.7031H16.8478V40.291C15.8927 40.3262 14.9845 40.332 14.1759 40.332L14.0002 39.1484ZM14.7853 36.6992C14.7853 35.5625 15.881 34.7832 17.4689 34.7891C19.0158 34.7832 20.1232 35.5625 20.1291 36.6992C20.1232 37.8418 19.0158 38.5801 17.4689 38.5742C15.881 38.5801 14.7853 37.8418 14.7853 36.6992ZM16.2033 36.6992C16.1974 37.2148 16.7072 37.502 17.4689 37.4961C18.1838 37.502 18.6994 37.2148 18.7111 36.6992C18.6994 36.1719 18.1838 35.8789 17.4689 35.8789C16.7072 35.8789 16.1974 36.1719 16.2033 36.6992ZM30.1795 35.3984V36.582H24.2498V35.3984H26.5467V34.3203H28.035V35.3984H30.1795ZM24.7772 38.9375C24.7655 37.7539 25.8026 36.9395 27.2733 36.9336C28.7381 36.9395 29.7928 37.7539 29.8045 38.9375C29.7928 40.1328 28.7381 40.9238 27.2733 40.918C25.8026 40.9238 24.7655 40.1328 24.7772 38.9375ZM25.9139 43.2148C25.908 42.0312 27.3143 41.334 29.5936 41.3398C31.8612 41.334 33.2674 42.0312 33.2733 43.2148C33.2674 44.375 31.8612 45.084 29.5936 45.0781C27.3143 45.084 25.908 44.375 25.9139 43.2148ZM26.1717 38.9375C26.1659 39.5117 26.5995 39.8164 27.2733 39.8164C27.9412 39.8164 28.41 39.5117 28.41 38.9375C28.41 38.3691 27.9412 38.0527 27.2733 38.0469C26.5995 38.0527 26.1659 38.3691 26.1717 38.9375ZM27.4842 43.2148C27.4842 43.7012 28.2284 43.9531 29.5936 43.9531C30.9295 43.9531 31.6678 43.7012 31.6678 43.2148C31.6678 42.7051 30.9295 42.4766 29.5936 42.4648C28.2284 42.4766 27.4842 42.7051 27.4842 43.2148ZM30.2733 40.0859V38.8906H31.7264V37.9531H30.2967V36.7578H31.7264V34.4141H33.2147V41.2109H31.7264V40.0859H30.2733Z" fill="#279EF9"/>
</g>
<defs>
<filter id="filter0_i_1348_23334" x="0" y="0" width="48" height="52" filterUnits="userSpaceOnUse" color-interpolation-filters="sRGB">
<feFlood flood-opacity="0" result="BackgroundImageFix"/>
<feBlend mode="normal" in="SourceGraphic" in2="BackgroundImageFix" result="shape"/>
<feColorMatrix in="SourceAlpha" type="matrix" values="0 0 0 0 0 0 0 0 0 0 0 0 0 0 0 0 0 0 127 0" result="hardAlpha"/>
<feOffset dy="4"/>
<feGaussianBlur stdDeviation="6"/>
<feComposite in2="hardAlpha" operator="arithmetic" k2="-1" k3="1"/>
<feColorMatrix type="matrix" values="0 0 0 0 1 0 0 0 0 1 0 0 0 0 1 0 0 0 0.2 0"/>
<feBlend mode="normal" in2="shape" result="effect1_innerShadow_1348_23334"/>
</filter>
</defs>
</svg>
