<svg width="48" height="48" viewBox="0 0 48 48" fill="none" xmlns="http://www.w3.org/2000/svg">
<path d="M23.426 3.77897C23.7935 3.62672 24.2065 3.62672 24.574 3.77897L30.8215 6.36674C31.189 6.51898 31.481 6.81099 31.6333 7.17854L34.221 13.426L34.683 13.2346L34.221 13.426C34.3733 13.7935 34.3733 14.2065 34.221 14.574L31.6333 20.8215C31.481 21.189 31.189 21.481 30.8215 21.6333L24.574 24.221L24.7654 24.683L24.574 24.221C24.2065 24.3733 23.7935 24.3733 23.426 24.221L17.1785 21.6333C16.811 21.481 16.519 21.189 16.3667 20.8215L13.779 14.574C13.6267 14.2065 13.6267 13.7935 13.779 13.426L16.3667 7.17853C16.519 6.81099 16.811 6.51898 17.1785 6.36674L23.426 3.77897Z" fill="#F5F6F7" stroke="#BCBFC1"/>
<path d="M8.54541 34.82H14.3414V35.612H8.54541V34.82ZM8.35341 39.344L8.24541 38.516C10.1414 38.516 12.7214 38.492 14.8454 38.24L14.9054 38.972C12.7214 39.308 10.2254 39.332 8.35341 39.344ZM9.61341 35.156H10.5734V38.984H9.61341V35.156ZM12.3014 35.156H13.2614V38.984H12.3014V35.156ZM15.6374 34.088H16.6334V39.704H15.6374V34.088ZM16.2014 36.452H18.2294V37.28H16.2014V36.452ZM9.74541 40.232H16.6334V42.848H10.7534V44.456H9.76941V42.092H15.6614V41.024H9.74541V40.232ZM9.76941 44.024H17.0294V44.816H9.76941V44.024ZM26.4965 34.088H27.4925V40.448H26.4965V34.088ZM27.2165 36.824H29.1005V37.664H27.2165V36.824ZM23.4965 34.784H24.5405C24.5405 37.52 22.6325 39.476 19.4645 40.34L19.0565 39.56C21.8645 38.792 23.4965 37.22 23.4965 35.216V34.784ZM19.5365 34.784H24.0485V35.588H19.5365V34.784ZM20.4485 40.952H27.4925V44.936H26.4965V41.756H20.4485V40.952ZM36.0355 36.692H38.2435V37.508H36.0355V36.692ZM36.0235 38.804H38.2315V39.62H36.0235V38.804ZM29.9515 35.276H36.0235V36.08H29.9515V35.276ZM33.0235 36.644C34.4755 36.644 35.4715 37.436 35.4715 38.648C35.4715 39.86 34.4755 40.664 33.0235 40.664C31.5715 40.664 30.5635 39.86 30.5635 38.648C30.5635 37.436 31.5715 36.644 33.0235 36.644ZM33.0235 37.412C32.1115 37.412 31.4995 37.892 31.4995 38.648C31.4995 39.404 32.1115 39.896 33.0235 39.896C33.9235 39.896 34.5475 39.404 34.5475 38.648C34.5475 37.892 33.9235 37.412 33.0235 37.412ZM32.5315 33.992H33.5275V35.84H32.5315V33.992ZM37.8595 34.088H38.8555V41.096H37.8595V34.088ZM35.3035 41.204C37.5475 41.204 38.9155 41.888 38.9155 43.064C38.9155 44.24 37.5475 44.912 35.3035 44.912C33.0475 44.912 31.6915 44.24 31.6915 43.064C31.6915 41.888 33.0475 41.204 35.3035 41.204ZM35.3035 41.996C33.7075 41.996 32.7235 42.368 32.7235 43.064C32.7235 43.748 33.7075 44.144 35.3035 44.144C36.8995 44.144 37.8835 43.748 37.8835 43.064C37.8835 42.368 36.8995 41.996 35.3035 41.996Z" fill="#18181B"/>
</svg>
