<svg width="48" height="48" viewBox="0 0 48 48" fill="none" xmlns="http://www.w3.org/2000/svg">
<g filter="url(#filter0_i_1348_23343)">
<rect width="48" height="48" rx="4" fill="#E9F5FE"/>
<path d="M24.574 3.77897L30.8215 6.36674C31.189 6.51898 31.481 6.81099 31.6333 7.17853L34.221 13.426C34.3733 13.7935 34.3733 14.2065 34.221 14.574L31.6333 20.8215C31.481 21.189 31.189 21.481 30.8215 21.6333L24.574 24.221C24.2065 24.3733 23.7935 24.3733 23.426 24.221L17.1785 21.6333C16.811 21.481 16.519 21.189 16.3667 20.8215L13.779 14.574C13.6267 14.2065 13.6267 13.7935 13.779 13.426L16.3667 7.17853C16.519 6.81099 16.811 6.51898 17.1785 6.36674L23.426 3.77897C23.7935 3.62672 24.2065 3.62672 24.574 3.77897Z" fill="#F5F6F7" stroke="#2390E3"/>
<path d="M14.9163 35.0703V36.207H14.0491V38.3574C14.471 38.3281 14.8929 38.293 15.2913 38.2461L15.3499 39.3242C13.264 39.6523 10.8616 39.6758 9.04523 39.6758L8.88117 38.5039C9.25031 38.5039 9.63703 38.5039 10.0413 38.498V36.207H9.16242V35.0703H14.9163ZM10.3226 41.4688V40.3086H17.4007V43.1562H11.8109V43.8242H17.7054V45.0078H10.346V42.1016H15.9124V41.4688H10.3226ZM11.4827 38.4805C11.8519 38.4688 12.2327 38.457 12.6077 38.4395V36.207H11.4827V38.4805ZM15.9007 39.8867V34.4141H17.4007V36.5117H18.8421V37.7422H17.4007V39.8867H15.9007ZM27.5918 34.4141V36.9102H29.0332V38.1523H27.5918V40.6133H26.0918V34.4141H27.5918ZM18.9785 39.4531C21.4102 38.8379 22.7461 37.6309 22.9746 36.1953H19.541V35.0117H24.5918C24.5859 37.8594 22.7988 39.7871 19.5996 40.5898L18.9785 39.4531ZM20.4082 42.2305V41.0352H27.5918V45.0781H26.0918V42.2305H20.4082ZM35.2751 35.3984V36.582H29.3454V35.3984H31.6423V34.3203H33.1305V35.3984H35.2751ZM29.8727 38.9375C29.861 37.7539 30.8981 36.9395 32.3688 36.9336C33.8337 36.9395 34.8884 37.7539 34.9001 38.9375C34.8884 40.1328 33.8337 40.9238 32.3688 40.918C30.8981 40.9238 29.861 40.1328 29.8727 38.9375ZM31.0095 43.2148C31.0036 42.0312 32.4098 41.334 34.6891 41.3398C36.9567 41.334 38.363 42.0312 38.3688 43.2148C38.363 44.375 36.9567 45.084 34.6891 45.0781C32.4098 45.084 31.0036 44.375 31.0095 43.2148ZM31.2673 38.9375C31.2614 39.5117 31.695 39.8164 32.3688 39.8164C33.0368 39.8164 33.5055 39.5117 33.5055 38.9375C33.5055 38.3691 33.0368 38.0527 32.3688 38.0469C31.695 38.0527 31.2614 38.3691 31.2673 38.9375ZM32.5798 43.2148C32.5798 43.7012 33.3239 43.9531 34.6891 43.9531C36.0251 43.9531 36.7634 43.7012 36.7634 43.2148C36.7634 42.7051 36.0251 42.4766 34.6891 42.4648C33.3239 42.4766 32.5798 42.7051 32.5798 43.2148ZM35.3688 40.0859V38.8906H36.822V37.9531H35.3923V36.7578H36.822V34.4141H38.3102V41.2109H36.822V40.0859H35.3688Z" fill="#279EF9"/>
</g>
<defs>
<filter id="filter0_i_1348_23343" x="0" y="0" width="48" height="52" filterUnits="userSpaceOnUse" color-interpolation-filters="sRGB">
<feFlood flood-opacity="0" result="BackgroundImageFix"/>
<feBlend mode="normal" in="SourceGraphic" in2="BackgroundImageFix" result="shape"/>
<feColorMatrix in="SourceAlpha" type="matrix" values="0 0 0 0 0 0 0 0 0 0 0 0 0 0 0 0 0 0 127 0" result="hardAlpha"/>
<feOffset dy="4"/>
<feGaussianBlur stdDeviation="6"/>
<feComposite in2="hardAlpha" operator="arithmetic" k2="-1" k3="1"/>
<feColorMatrix type="matrix" values="0 0 0 0 1 0 0 0 0 1 0 0 0 0 1 0 0 0 0.2 0"/>
<feBlend mode="normal" in2="shape" result="effect1_innerShadow_1348_23343"/>
</filter>
</defs>
</svg>
