<svg width="48" height="48" viewBox="0 0 48 48" fill="none" xmlns="http://www.w3.org/2000/svg">
<g filter="url(#filter0_i_1348_23337)">
<rect width="48" height="48" rx="4" fill="#E9F5FE"/>
<rect x="12.5" y="9.5" width="23" height="11" rx="5.5" fill="#F5F6F7" stroke="#2390E3"/>
<path d="M14.9984 35.1289V36.3242H12.8773C12.8831 37.5664 13.639 38.7676 15.3382 39.2656L14.6234 40.4375C13.4456 40.0801 12.6253 39.3594 12.1566 38.4512C11.682 39.5234 10.8148 40.3789 9.53742 40.8008L8.7757 39.6172C10.5452 39.0605 11.348 37.6777 11.3655 36.3242H9.18586V35.1289H14.9984ZM10.2523 43.0039C10.2464 41.7031 11.6527 40.9473 13.9085 40.9531C16.1292 40.9473 17.5003 41.7031 17.5062 43.0039C17.5003 44.3105 16.1292 45.084 13.9085 45.0781C11.6527 45.084 10.2464 44.3105 10.2523 43.0039ZM11.7523 43.0039C11.7405 43.6133 12.5081 43.918 13.9085 43.918C15.2913 43.918 16.0296 43.6133 16.0296 43.0039C16.0296 42.4062 15.2913 42.1074 13.9085 42.1133C12.5081 42.1074 11.7405 42.4062 11.7523 43.0039ZM15.9007 40.7422V34.4141H17.4007V36.8867H18.8421V38.1055H17.4007V40.7422H15.9007ZM24.0996 40.9414C26.3203 40.9414 27.6914 41.7031 27.6973 43.0039C27.6914 44.3223 26.3203 45.0898 24.0996 45.0898C21.8438 45.0898 20.4375 44.3223 20.4434 43.0039C20.4375 41.7031 21.8438 40.9414 24.0996 40.9414ZM19.4473 40.0977V35.082H20.9355V36.4297H23.1152V35.082H24.6152V40.0977H19.4473ZM20.9355 38.9141H23.1152V37.5898H20.9355V38.9141ZM21.9434 43.0039C21.9316 43.6133 22.6992 43.9297 24.0996 43.9297C25.4824 43.9297 26.2207 43.6133 26.2207 43.0039C26.2207 42.3945 25.4824 42.1074 24.0996 42.1016C22.6992 42.1074 21.9316 42.3945 21.9434 43.0039ZM26.0918 40.707V34.4141H27.5918V36.8867H29.0332V38.1406H27.5918V40.707H26.0918ZM35.2751 35.3984V36.582H29.3454V35.3984H31.6423V34.3203H33.1305V35.3984H35.2751ZM29.8727 38.9375C29.861 37.7539 30.8981 36.9395 32.3688 36.9336C33.8337 36.9395 34.8884 37.7539 34.9001 38.9375C34.8884 40.1328 33.8337 40.9238 32.3688 40.918C30.8981 40.9238 29.861 40.1328 29.8727 38.9375ZM31.0095 43.2148C31.0036 42.0312 32.4098 41.334 34.6891 41.3398C36.9567 41.334 38.363 42.0312 38.3688 43.2148C38.363 44.375 36.9567 45.084 34.6891 45.0781C32.4098 45.084 31.0036 44.375 31.0095 43.2148ZM31.2673 38.9375C31.2614 39.5117 31.695 39.8164 32.3688 39.8164C33.0368 39.8164 33.5055 39.5117 33.5055 38.9375C33.5055 38.3691 33.0368 38.0527 32.3688 38.0469C31.695 38.0527 31.2614 38.3691 31.2673 38.9375ZM32.5798 43.2148C32.5798 43.7012 33.3239 43.9531 34.6891 43.9531C36.0251 43.9531 36.7634 43.7012 36.7634 43.2148C36.7634 42.7051 36.0251 42.4766 34.6891 42.4648C33.3239 42.4766 32.5798 42.7051 32.5798 43.2148ZM35.3688 40.0859V38.8906H36.822V37.9531H35.3923V36.7578H36.822V34.4141H38.3102V41.2109H36.822V40.0859H35.3688Z" fill="#279EF9"/>
</g>
<defs>
<filter id="filter0_i_1348_23337" x="0" y="0" width="48" height="52" filterUnits="userSpaceOnUse" color-interpolation-filters="sRGB">
<feFlood flood-opacity="0" result="BackgroundImageFix"/>
<feBlend mode="normal" in="SourceGraphic" in2="BackgroundImageFix" result="shape"/>
<feColorMatrix in="SourceAlpha" type="matrix" values="0 0 0 0 0 0 0 0 0 0 0 0 0 0 0 0 0 0 127 0" result="hardAlpha"/>
<feOffset dy="4"/>
<feGaussianBlur stdDeviation="6"/>
<feComposite in2="hardAlpha" operator="arithmetic" k2="-1" k3="1"/>
<feColorMatrix type="matrix" values="0 0 0 0 1 0 0 0 0 1 0 0 0 0 1 0 0 0 0.2 0"/>
<feBlend mode="normal" in2="shape" result="effect1_innerShadow_1348_23337"/>
</filter>
</defs>
</svg>
