<svg width="48" height="48" viewBox="0 0 48 48" fill="none" xmlns="http://www.w3.org/2000/svg">
<path d="M22.7757 5.59486C23.3735 4.75042 24.6265 4.75042 25.2243 5.59486L27.5032 8.81418C27.8204 9.26227 28.2763 9.59349 28.8005 9.7567L32.5665 10.9293C33.5543 11.2369 33.9415 12.4286 33.3231 13.258L30.9656 16.4202C30.6375 16.8604 30.4634 17.3963 30.4701 17.9453L30.5187 21.8893C30.5314 22.9238 29.5177 23.6603 28.5377 23.3285L24.8018 22.0636C24.2818 21.8875 23.7182 21.8875 23.1982 22.0636L19.4623 23.3285C18.4823 23.6603 17.4686 22.9238 17.4813 21.8893L17.5299 17.9453C17.5367 17.3963 17.3625 16.8604 17.0344 16.4202L14.6769 13.258C14.0585 12.4286 14.4457 11.2369 15.4335 10.9293L19.1995 9.7567C19.7237 9.59349 20.1796 9.26227 20.4968 8.81418L22.7757 5.59486Z" fill="#F5F6F7" stroke="#BCBFC1"/>
<path d="M21.5469 34.088H22.5429V44.936H21.5469V34.088ZM18.3669 35.252H19.3509C19.3509 38.396 17.9349 41.144 14.3109 42.92L13.7829 42.116C16.9149 40.604 18.3669 38.3 18.3669 35.42V35.252ZM14.2749 35.252H18.7989V36.068H14.2749V35.252ZM24.966 41.504H25.818C27.822 41.504 29.202 41.456 30.834 41.168L30.942 41.984C29.262 42.272 27.846 42.332 25.818 42.332H24.966V41.504ZM24.966 35.072H30.018V35.9H25.962V41.792H24.966V35.072ZM25.71 38.108H29.778V38.912H25.71V38.108ZM31.842 34.088H32.85V44.936H31.842V34.088ZM32.61 38.444H34.626V39.284H32.61V38.444Z" fill="#18181B"/>
</svg>
