<svg width="48" height="48" viewBox="0 0 48 48" fill="none" xmlns="http://www.w3.org/2000/svg">
<g filter="url(#filter0_i_1348_23342)">
<rect width="48" height="48" rx="4" fill="#E9F5FE"/>
<path d="M24.75 4.01036L32.2763 8.35566C32.7404 8.62361 33.0263 9.1188 33.0263 9.6547V18.3453C33.0263 18.8812 32.7404 19.3764 32.2763 19.6443L24.75 23.9896C24.2859 24.2576 23.7141 24.2576 23.25 23.9896L15.7237 19.6443C15.2596 19.3764 14.9737 18.8812 14.9737 18.3453V9.6547C14.9737 9.1188 15.2596 8.62361 15.7237 8.35566L23.25 4.01036C23.7141 3.74241 24.2859 3.74241 24.75 4.01036Z" fill="#F5F6F7" stroke="#2390E3"/>
<path d="M18.6663 39.3945V40.5781H16.3226V41.5742H17.4827V45.0781H15.9945V42.7461H10.0179V41.5742H11.2366V40.5781H8.93977V39.3945H18.6663ZM9.91242 36.7227C9.91242 35.4219 11.4417 34.6191 13.803 34.625C16.1468 34.6191 17.6761 35.4219 17.682 36.7227C17.6761 38.0293 16.1468 38.832 13.803 38.832C11.4417 38.832 9.91242 38.0293 9.91242 36.7227ZM11.471 36.7227C11.4593 37.3555 12.3089 37.6719 13.803 37.6719C15.2738 37.6719 16.1351 37.3555 16.1351 36.7227C16.1351 36.1074 15.2738 35.7793 13.803 35.7852C12.3089 35.7793 11.4593 36.1074 11.471 36.7227ZM12.7484 41.5742H14.846V40.5781H12.7484V41.5742ZM27.5918 34.4141V36.9102H29.0332V38.1523H27.5918V40.6133H26.0918V34.4141H27.5918ZM18.9785 39.4531C21.4102 38.8379 22.7461 37.6309 22.9746 36.1953H19.541V35.0117H24.5918C24.5859 37.8594 22.7988 39.7871 19.5996 40.5898L18.9785 39.4531ZM20.4082 42.2305V41.0352H27.5918V45.0781H26.0918V42.2305H20.4082ZM35.2751 35.3984V36.582H29.3454V35.3984H31.6423V34.3203H33.1305V35.3984H35.2751ZM29.8727 38.9375C29.861 37.7539 30.8981 36.9395 32.3688 36.9336C33.8337 36.9395 34.8884 37.7539 34.9001 38.9375C34.8884 40.1328 33.8337 40.9238 32.3688 40.918C30.8981 40.9238 29.861 40.1328 29.8727 38.9375ZM31.0095 43.2148C31.0036 42.0312 32.4098 41.334 34.6891 41.3398C36.9567 41.334 38.363 42.0312 38.3688 43.2148C38.363 44.375 36.9567 45.084 34.6891 45.0781C32.4098 45.084 31.0036 44.375 31.0095 43.2148ZM31.2673 38.9375C31.2614 39.5117 31.695 39.8164 32.3688 39.8164C33.0368 39.8164 33.5055 39.5117 33.5055 38.9375C33.5055 38.3691 33.0368 38.0527 32.3688 38.0469C31.695 38.0527 31.2614 38.3691 31.2673 38.9375ZM32.5798 43.2148C32.5798 43.7012 33.3239 43.9531 34.6891 43.9531C36.0251 43.9531 36.7634 43.7012 36.7634 43.2148C36.7634 42.7051 36.0251 42.4766 34.6891 42.4648C33.3239 42.4766 32.5798 42.7051 32.5798 43.2148ZM35.3688 40.0859V38.8906H36.822V37.9531H35.3923V36.7578H36.822V34.4141H38.3102V41.2109H36.822V40.0859H35.3688Z" fill="#279EF9"/>
</g>
<defs>
<filter id="filter0_i_1348_23342" x="0" y="0" width="48" height="52" filterUnits="userSpaceOnUse" color-interpolation-filters="sRGB">
<feFlood flood-opacity="0" result="BackgroundImageFix"/>
<feBlend mode="normal" in="SourceGraphic" in2="BackgroundImageFix" result="shape"/>
<feColorMatrix in="SourceAlpha" type="matrix" values="0 0 0 0 0 0 0 0 0 0 0 0 0 0 0 0 0 0 127 0" result="hardAlpha"/>
<feOffset dy="4"/>
<feGaussianBlur stdDeviation="6"/>
<feComposite in2="hardAlpha" operator="arithmetic" k2="-1" k3="1"/>
<feColorMatrix type="matrix" values="0 0 0 0 1 0 0 0 0 1 0 0 0 0 1 0 0 0 0.2 0"/>
<feBlend mode="normal" in2="shape" result="effect1_innerShadow_1348_23342"/>
</filter>
</defs>
</svg>
