<svg width="48" height="48" viewBox="0 0 48 48" fill="none" xmlns="http://www.w3.org/2000/svg">
<path d="M23.1183 4.25861C23.6441 3.87664 24.3559 3.87664 24.8817 4.25861L32.9922 10.1512C33.5179 10.5332 33.7379 11.2102 33.5371 11.8283L30.4391 21.3627C30.2383 21.9807 29.6624 22.3992 29.0126 22.3992H18.9874C18.3376 22.3992 17.7617 21.9807 17.5609 21.3627L14.4629 11.8283C14.2621 11.2102 14.4821 10.5332 15.0078 10.1512L23.1183 4.25861Z" fill="#F5F6F7" stroke="#BCBFC1"/>
<path d="M12.6134 40.22H13.6094V42.92H12.6134V40.22ZM13.1174 34.796C15.4094 34.796 17.0534 35.912 17.0534 37.64C17.0534 39.368 15.4094 40.484 13.1174 40.484C10.8254 40.484 9.16941 39.368 9.16941 37.64C9.16941 35.912 10.8254 34.796 13.1174 34.796ZM13.1174 35.588C11.3894 35.588 10.1294 36.404 10.1294 37.64C10.1294 38.876 11.3894 39.692 13.1174 39.692C14.8334 39.692 16.0934 38.876 16.0934 37.64C16.0934 36.404 14.8334 35.588 13.1174 35.588ZM8.22141 42.728H18.0494V43.556H8.22141V42.728ZM26.4965 34.088H27.4925V40.448H26.4965V34.088ZM27.2165 36.824H29.1005V37.664H27.2165V36.824ZM23.4965 34.784H24.5405C24.5405 37.52 22.6325 39.476 19.4645 40.34L19.0565 39.56C21.8645 38.792 23.4965 37.22 23.4965 35.216V34.784ZM19.5365 34.784H24.0485V35.588H19.5365V34.784ZM20.4485 40.952H27.4925V44.936H26.4965V41.756H20.4485V40.952ZM36.0355 36.692H38.2435V37.508H36.0355V36.692ZM36.0235 38.804H38.2315V39.62H36.0235V38.804ZM29.9515 35.276H36.0235V36.08H29.9515V35.276ZM33.0235 36.644C34.4755 36.644 35.4715 37.436 35.4715 38.648C35.4715 39.86 34.4755 40.664 33.0235 40.664C31.5715 40.664 30.5635 39.86 30.5635 38.648C30.5635 37.436 31.5715 36.644 33.0235 36.644ZM33.0235 37.412C32.1115 37.412 31.4995 37.892 31.4995 38.648C31.4995 39.404 32.1115 39.896 33.0235 39.896C33.9235 39.896 34.5475 39.404 34.5475 38.648C34.5475 37.892 33.9235 37.412 33.0235 37.412ZM32.5315 33.992H33.5275V35.84H32.5315V33.992ZM37.8595 34.088H38.8555V41.096H37.8595V34.088ZM35.3035 41.204C37.5475 41.204 38.9155 41.888 38.9155 43.064C38.9155 44.24 37.5475 44.912 35.3035 44.912C33.0475 44.912 31.6915 44.24 31.6915 43.064C31.6915 41.888 33.0475 41.204 35.3035 41.204ZM35.3035 41.996C33.7075 41.996 32.7235 42.368 32.7235 43.064C32.7235 43.748 33.7075 44.144 35.3035 44.144C36.8995 44.144 37.8835 43.748 37.8835 43.064C37.8835 42.368 36.8995 41.996 35.3035 41.996Z" fill="#18181B"/>
</svg>
