<svg width="48" height="48" viewBox="0 0 48 48" fill="none" xmlns="http://www.w3.org/2000/svg">
<path d="M23.0159 4.29187C23.5885 3.77227 24.4624 3.77318 25.034 4.29397L34.7547 13.1505C35.4115 13.7489 35.4071 14.7838 34.7454 15.3766L25.0247 24.0844C24.4559 24.5939 23.5951 24.5948 23.0253 24.0864L13.2639 15.3786C12.599 14.7855 12.5946 13.7471 13.2545 13.1484L23.0159 4.29187Z" fill="#F5F6F7" stroke="#BCBFC1"/>
<path d="M8.64141 35.168H13.6214V42.188H8.64141V35.168ZM12.6494 35.972H9.61341V41.384H12.6494V35.972ZM15.5534 34.088H16.5614V44.936H15.5534V34.088ZM16.3214 38.42H18.3374V39.26H16.3214V38.42ZM19.0685 39.68H28.9085V40.496H19.0685V39.68ZM20.3165 34.352H27.6365V36.92H21.3245V38.36H20.3405V36.188H26.6645V35.132H20.3165V34.352ZM20.3405 37.976H27.8765V38.756H20.3405V37.976ZM20.3885 41.48H27.6485V44.792H20.3885V41.48ZM26.6765 42.272H21.3605V43.988H26.6765V42.272ZM29.9395 42.728H39.7675V43.556H29.9395V42.728ZM34.3315 39.92H35.3275V42.956H34.3315V39.92ZM31.0795 34.988H38.5675V40.1H31.0795V34.988ZM37.6075 35.792H32.0515V39.296H37.6075V35.792Z" fill="#18181B"/>
</svg>
