<svg width="48" height="48" viewBox="0 0 48 48" fill="none" xmlns="http://www.w3.org/2000/svg">
<g filter="url(#filter0_i_1348_23340)">
<rect width="48" height="48" rx="4" fill="#E9F5FE"/>
<path d="M25.034 4.29397L34.7547 13.1505C35.4115 13.7489 35.4071 14.7838 34.7454 15.3766L25.0247 24.0844C24.4559 24.5939 23.5951 24.5948 23.0253 24.0864L13.2639 15.3786C12.599 14.7855 12.5946 13.7471 13.2545 13.1484L23.0159 4.29187C23.5885 3.77227 24.4624 3.77318 25.034 4.29397Z" fill="#F5F6F7" stroke="#2390E3"/>
<path d="M14.4007 35.4219V42.4766H9.27961V35.4219H14.4007ZM10.7562 41.293H12.9124V36.5938H10.7562V41.293ZM15.8538 45.0781V34.4141H17.3538V38.4336H18.9241V39.6758H17.3538V45.0781H15.8538ZM28.8809 39.793V40.9766H19.1191V39.793H28.8809ZM20.3145 35.7617V34.6133H27.6973V37.4609H21.8262V38.082H27.8965V39.2188H20.3379V36.3828H26.1973V35.7617H20.3145ZM20.373 44.9609V41.6328H27.7441V44.9609H20.373ZM21.8379 43.7656H26.2559V42.8164H21.8379V43.7656ZM39.0837 42.6055V43.8359H29.322V42.6055H33.4352V40.4258H30.3532V35.1992H37.9938V40.4258H34.9235V42.6055H39.0837ZM31.8298 39.2539H36.5173V36.3945H31.8298V39.2539Z" fill="#279EF9"/>
</g>
<defs>
<filter id="filter0_i_1348_23340" x="0" y="0" width="48" height="52" filterUnits="userSpaceOnUse" color-interpolation-filters="sRGB">
<feFlood flood-opacity="0" result="BackgroundImageFix"/>
<feBlend mode="normal" in="SourceGraphic" in2="BackgroundImageFix" result="shape"/>
<feColorMatrix in="SourceAlpha" type="matrix" values="0 0 0 0 0 0 0 0 0 0 0 0 0 0 0 0 0 0 127 0" result="hardAlpha"/>
<feOffset dy="4"/>
<feGaussianBlur stdDeviation="6"/>
<feComposite in2="hardAlpha" operator="arithmetic" k2="-1" k3="1"/>
<feColorMatrix type="matrix" values="0 0 0 0 1 0 0 0 0 1 0 0 0 0 1 0 0 0 0.2 0"/>
<feBlend mode="normal" in2="shape" result="effect1_innerShadow_1348_23340"/>
</filter>
</defs>
</svg>
