<svg width="24" height="24" viewBox="0 0 24 24" fill="none" xmlns="http://www.w3.org/2000/svg">
<path d="M6 8L5 8C4.46957 8 3.96086 8.21071 3.58579 8.58579C3.21071 8.96086 3 9.46957 3 10L3 19C3 19.5304 3.21071 20.0391 3.58579 20.4142C3.96086 20.7893 4.46957 21 5 21L14 21C14.5304 21 15.0391 20.7893 15.4142 20.4142C15.7893 20.0391 16 19.5304 16 19L16 18M15 6L18 9M19.385 7.58511C19.7788 7.19126 20.0001 6.65709 20.0001 6.10011C20.0001 5.54312 19.7788 5.00895 19.385 4.61511C18.9912 4.22126 18.457 4 17.9 4C17.343 4 16.8088 4.22126 16.415 4.61511L8 13.0001L8 16.0001L11 16.0001L19.385 7.58511Z" stroke="#BCBFC1" stroke-width="2" stroke-linecap="round" stroke-linejoin="round"/>
</svg>
