<svg width="110" height="160" viewBox="0 0 110 160" fill="none" xmlns="http://www.w3.org/2000/svg">
<path fill-rule="evenodd" clip-rule="evenodd" d="M21.2143 141C20.5437 141 20 141.544 20 142.214C20 142.885 19.4563 143.429 18.7857 143.429H2C0.895431 143.429 0 144.324 0 145.429V148.714C0 149.819 0.895431 150.714 2 150.714H18.1786C19.1845 150.714 20 151.53 20 152.536C20 153.542 20.8155 154.357 21.8214 154.357H37.069C37.0238 154.564 37 154.779 37 155V157C37 158.657 38.3431 160 40 160H41C42.3062 160 43.4175 159.165 43.8293 158H66.1707C66.5825 159.165 67.6938 160 69 160C70.6569 160 72 158.657 72 157V155C72 154.779 71.9762 154.564 71.931 154.357H88.1786C89.1845 154.357 90 153.542 90 152.536C90 151.53 90.8155 150.714 91.8214 150.714H107C108.105 150.714 109 149.819 109 148.714V145.429C109 144.324 108.105 143.429 107 143.429H91.2143C90.5437 143.429 90 142.885 90 142.214C90 141.544 89.4563 141 88.7857 141H21.2143ZM66 156V155C66 154.779 66.0238 154.564 66.069 154.357H43.931C43.9762 154.564 44 154.779 44 155V156H66Z" fill="#D2D2D2"/>
<path d="M21 139.706V107L1.15727 145.741C0.743419 146.549 1.53359 147.446 2.38733 147.137L20.34 140.646C20.7361 140.503 21 140.127 21 139.706Z" fill="#CAE0F0"/>
<path d="M89 139.706V107L108.843 145.741C109.257 146.549 108.466 147.446 107.613 147.137L89.66 140.646C89.2639 140.503 89 140.127 89 139.706Z" fill="#CAE0F0"/>
<path fill-rule="evenodd" clip-rule="evenodd" d="M42 36C40.8954 36 40 36.8954 40 38V41.7712C28.7446 47.3134 21 58.8983 21 72.292V140.292C21 145.815 25.4772 150.292 31 150.292H79C84.5228 150.292 89 145.815 89 140.292V72.292C89 58.8983 81.2554 47.3134 70 41.7712V38C70 36.8954 69.1046 36 68 36H42Z" fill="#A7CBE6"/>
<path d="M31 81C31 67.7452 41.7452 57 55 57C68.2548 57 79 67.7452 79 81V131C79 136.523 74.5229 141 69 141H41C35.4772 141 31 136.523 31 131V81Z" fill="white" fill-opacity="0.4"/>
<path d="M65 18V10.0082C65 9.64339 64.9002 9.28553 64.7115 8.97336L59.8693 0.965161C59.5071 0.366069 58.8579 0 58.1578 0H51.5862C50.8701 0 50.2086 0.382863 49.852 1.00381L45.2658 8.9879C45.0916 9.29103 45 9.63451 45 9.98409V18C45 19.1046 45.8954 20 47 20H63C64.1046 20 65 19.1046 65 18Z" fill="#FFD4D4"/>
<rect x="37" y="19" width="36" height="20" rx="2" fill="#E7E7E7"/>
<circle cx="55" cy="81" r="17" fill="#F4F4F4" fill-opacity="0.8"/>
<circle cx="55" cy="81" r="13" fill="#A2D5FC"/>
<path d="M43 118C43 111.373 48.3726 106 55 106C61.6274 106 67 111.373 67 118V133.619C67 134.382 66.3817 135 65.619 135H44.381C43.6183 135 43 134.382 43 133.619V118Z" fill="#484D5F"/>
<path d="M61.0052 136L69.4822 154.926" stroke="#A2A2A2" stroke-width="6" stroke-linecap="round"/>
<path d="M48.476 136.074L39.999 155" stroke="#A2A2A2" stroke-width="6" stroke-linecap="round"/>
<path d="M61 141L47 141" stroke="#A2A2A2" stroke-width="6" stroke-linecap="round"/>
<path d="M65.2455 149.246H44.0929" stroke="#A2A2A2" stroke-width="6" stroke-linecap="round"/>
</svg>
